<svg width="245" height="345" viewBox="0 0 245 345" fill="none" xmlns="http://www.w3.org/2000/svg">
<g filter="url(#filter0_f)">
<rect x="25" y="25" width="195" height="295" fill="black" fill-opacity="0.24"/>
</g>
<g filter="url(#filter1_i)">
<rect x="25" y="12" width="196" height="297" rx="5" fill="white"/>
</g>
<path d="M93.5244 228.288C60.8745 233.406 34.2374 221.562 25 215V304C25 306.761 27.2386 309 30 309H216C218.761 309 221 306.761 221 304V235.67C189.257 249.942 134.337 221.89 93.5244 228.288Z" fill="url(#paint0_linear)"/>
<ellipse cx="121.997" cy="282.934" rx="90.9617" ry="9.54847" fill="black" fill-opacity="0.22"/>
<path d="M186.874 227.7V224.657C178.423 229.956 156.617 226.328 146.77 224.657L147.845 230.207L137.103 282.484H139.967L142.474 269.594H146.77L144.98 278.725H147.845L149.635 269.594H180.787L182.219 278.725H185.083L182.935 269.594H186.874L189.917 282.484H193.14L182.219 229.491C183.365 229.777 185.8 228.416 186.874 227.7Z" fill="#31426D"/>
<path d="M173.81 230.564H156.802L149.82 263.507H179.181L173.81 230.564Z" fill="#606BC8"/>
<path d="M178.823 265.117H149.999L149.82 266.908L180.255 267.266L178.823 265.117Z" fill="#505AAE"/>
<path d="M179.178 230.385H176.492L181.684 264.76L187.055 265.834L179.178 230.385Z" fill="#646FCF"/>
<path d="M179.5 230H176L178 238L181 238.5L179.5 230Z" fill="white"/>
<path d="M150.536 229.311H153.221L148.029 263.685L143.196 266.192L150.536 229.311Z" fill="white"/>
<path d="M143.225 266.923C144.508 263.126 144.428 245.944 144.227 237.828C147.166 237.002 153.323 236.342 154.445 240.304C155.847 245.256 150.037 258.876 150.037 261.971C150.037 264.447 151.106 265.066 151.64 265.066L152.041 267.542C152.241 268.781 145.83 274.558 142.023 276.003C138.978 277.159 139.419 275.521 140.02 274.558C140.554 273.595 141.943 270.72 143.225 266.923Z" fill="#E9C6B2"/>
<path d="M183.384 263.51C181.856 259.719 170.16 246.872 164.503 240.922C166.332 238.151 171.948 232.018 175.541 234.172C180.032 236.866 183.852 252.295 185.948 254.62C187.624 256.48 188.669 258.767 189.103 258.376C189.437 258.637 189.554 259.001 190.355 259.628C191.356 260.411 190.668 267.338 188.553 271.21C186.861 274.308 186.111 272.755 185.948 271.592C185.73 270.477 184.912 267.301 183.384 263.51Z" fill="#E9C6B2"/>
<path d="M192.714 217.099C194.903 218.981 200.898 224.638 198.888 227.15C196.263 230.431 178.35 230.27 177.119 229.852C176.262 229.561 174.1 229.354 172.742 229.26C174.398 230.243 176.08 231.593 177.119 233.406C179.417 237.42 170.689 241.629 166.038 243.232C163.849 240.096 158.938 233.657 156.803 232.988C154.136 232.152 158.856 240.932 156.393 240.932C153.931 240.932 153.11 241.56 149.211 239.887C146.092 238.549 144.355 238.633 143.876 238.842C143.465 234.87 143.219 226.047 145.517 222.535C147.816 219.023 150.853 217.727 152.084 217.517L192.714 217.099Z" fill="#0FBBC9"/>
<path opacity="0.85" d="M50.1326 208.054V201.778C53.6671 197.467 65.2687 190.696 83.3989 183.853C106.062 175.299 92.1313 188.234 92.1313 187.4C92.1313 186.732 91.7154 185.452 91.5075 184.896C85.5196 190.904 86.379 202.838 87.5571 208.054H50.1326Z" fill="url(#paint1_linear)"/>
<path opacity="0.85" d="M59.0595 155.84H67.2193C63.6154 162.115 55.8773 174.708 53.7557 174.873C51.6342 175.039 50.8318 173.425 50.6958 172.598C48.0847 158.033 55.1837 155.357 59.0595 155.84Z" fill="#5A5BAD"/>
<path opacity="0.85" d="M89.3125 184.454C89.1495 183.973 88.1577 183.786 88.0898 184.053C87.4784 184.922 86.174 188.941 85.848 190.865C85.4404 193.269 84.6252 196.674 86.4593 195.873C88.0613 195.173 89.5163 185.055 89.3125 184.454Z" fill="#332D75"/>
<path d="M45.9367 185.265C55.4035 158.505 70.9184 151.113 77.4926 150.763C77.8386 154.55 80.6066 162.208 88.9108 162.544C89.672 162.334 91.1114 161.408 90.7792 159.388C90.447 157.369 91.0898 156.934 91.2282 156.864C93.9962 157.495 99.1249 160.188 99.291 166.752C99.457 173.316 99.3602 175.798 99.291 176.219L94.9313 186.107H92.6476V183.162L91.1944 186.107L88.9445 186.317L88.9108 184.424C88.804 184.452 88.6945 184.482 88.5823 184.511C86.9459 185.39 85.9139 192.664 85.5891 196.416C84.2604 196.247 82.5443 196.907 81.8522 197.257C65.9359 204.41 36.47 212.026 45.9367 185.265Z" fill="#19B2BC"/>
<path opacity="0.85" d="M73.8978 122.559C70.7316 130.795 79.9385 132.014 84.9377 131.594C88.9371 121.845 100.769 120.808 106.184 121.508C107.295 121.368 109.85 120.038 111.184 115.835C112.517 111.633 108.406 110.162 106.184 109.952C106.393 109.462 106.434 107.473 104.935 103.439C101.268 99.5728 96.7414 102.528 94.9361 104.489C94.8667 103.369 93.5613 101.212 88.8954 101.548C84.2295 101.884 83.4796 106.871 83.6879 109.322C81.5216 108.818 79.3136 109.532 78.4804 109.952C72.648 116.045 78.4804 119.827 77.2306 119.827C76.2307 119.827 74.5921 121.648 73.8978 122.559Z" fill="url(#paint2_linear)"/>
<path d="M91.8618 139.325C89.1892 140.79 86.1314 143.715 85.3658 144.732C82.9298 139.172 80.6469 126.993 91.0034 122.761C103.949 117.472 112.51 122.761 116.059 129.678C118.899 135.211 117.335 139.325 112.533 142.987C113.702 139.732 113.484 136.73 112.51 135.985C106.329 130.451 98.1025 133.679 94.7617 135.985C93.5322 135.257 92.9058 131.595 90.1914 134.443C88.0199 136.721 91.2354 137.901 91.8618 139.325Z" fill="#30426A"/>
<path d="M85.2999 144.041C83.6095 148.801 79.2426 150.558 77.2705 150.842C77.2705 153.18 77.2705 153.817 79.3835 157.643C85.2999 165.294 92.4841 162.956 91.2163 160.193C90.2021 157.983 92.4841 155.022 93.7519 153.817C103.26 156.793 110.022 150.204 110.233 147.441C110.402 145.231 113.121 142.695 114.459 141.703V137.877C109.726 128.015 99.2457 132.068 94.5971 135.327C94.6675 134.831 94.2168 133.669 91.8502 132.989C88.892 132.139 87.8355 136.389 90.1598 137.877C92.0192 139.067 90.9346 139.79 90.1598 140.002L85.2999 144.041Z" fill="url(#paint3_linear)"/>
<path opacity="0.85" d="M100.046 120.526C95.817 119.751 90.7952 122.269 88.8129 123.625C87.9319 122.54 88.4458 121.494 88.8129 121.107C90.061 119.816 93.4823 117.311 97.1826 117.621C100.883 117.93 100.633 119.687 100.046 120.526Z" fill="#E56F55"/>
<circle cx="104.408" cy="141.717" r="1.0051" fill="black"/>
<path d="M102.386 143.194C102.967 144.189 103.471 145.176 102.682 145.678C101.894 146.18 101.131 145.337 100.55 144.342C99.9687 143.346 99.5066 142.217 100.367 141.715C101.228 141.212 101.804 142.199 102.386 143.194Z" fill="#8E3A2F"/>
<path d="M110.21 147.388C110.073 148.306 109.902 148.428 109.793 148.723C109.683 149.018 109.375 149.349 109.375 149.349C108.223 149.329 107.88 149.342 107.898 148.345C107.915 147.348 109.058 147.368 110.21 147.388Z" fill="#8E3A2F"/>
<ellipse cx="110.439" cy="145.235" rx="1.0051" ry="0.502551" fill="black"/>
<path d="M103.403 139.707C104.428 139.707 106.667 139.707 107.423 139.707" stroke="#30426A" stroke-linecap="round"/>
<path d="M107.424 142.722C107.065 143.384 106.39 145.107 106.562 146.696C106.777 148.684 105.485 148.904 104.408 148.684" stroke="#784C41"/>
<path d="M100.388 147.747C100.388 148.57 100.79 150.324 102.398 150.763" stroke="#784C41"/>
<path d="M110.453 142.573C110.905 142.817 111.811 143.462 111.818 144.088" stroke="#30426A" stroke-linecap="round"/>
<path opacity="0.85" d="M95.1332 185.97C94.1713 185.815 89.5893 186.321 87.7191 186.516C86.9175 188.034 86.5836 190.213 86.3164 192.16C86.9843 192.16 88.6008 192.588 89.7229 192.588C90.845 192.588 92.0607 192.847 92.5282 192.977C93.7973 190.706 96.095 186.126 95.1332 185.97Z" fill="url(#paint4_linear)"/>
<path d="M79.9949 265.833V230.027H82.5014L83.0385 265.833L107.566 273.532V277.113H105.06V275.501L96.824 273.532L99.3305 274.606V277.113H96.824V275.501L81.0691 267.803L65.4932 275.501V277.113H62.6287V274.606L64.598 273.532L57.2577 275.501V277.113H54.7512V273.532L79.9949 265.833Z" fill="#2F426A"/>
<path d="M57.9734 224.572C57.9734 224 60.2411 222.663 61.375 222.066C62.5208 220.92 92.5268 221.589 107.387 222.066C107.267 222.902 106.456 225.145 104.164 227.437C101.872 229.729 91.5719 230.66 86.7977 230.66C84.4703 230.719 77.7387 230.803 70.1476 230.66C62.5566 230.516 58.9879 228.332 57.9734 227.437V224.572Z" fill="#5E5FB2"/>
<path d="M84.8086 228.155C57.6555 227.521 51.2226 224.153 49.1274 217.217C72.3137 217.019 119.105 217.098 120.781 217.256C122.457 217.415 123.295 218.644 123.505 219.238C122.667 217.97 120.362 217.653 119.315 217.653C112.778 217.653 106.674 224.655 104.439 228.155H100.039C102.554 226.372 106.492 222.25 102.135 220.031C94.4244 216.384 87.5322 223.928 84.8086 228.155Z" fill="#24344E"/>
<path d="M81.9009 271.887C84.141 275.03 84.8446 272.507 84.9164 270.853V259.892C84.9164 255.426 87.501 250.587 88.7934 248.725C91.1626 243.487 98.3997 231.566 102.363 226.768C106.326 221.97 103.512 219.636 102.363 218.947C100.711 217.982 95.9442 217.044 90.0857 221.015C82.7625 225.978 80.6086 242.935 80.3932 248.105C80.2209 252.241 78.3111 256.584 77.3778 258.238C76.733 264.635 79.0906 267.943 81.8827 271.861L81.9009 271.887Z" fill="url(#paint5_linear)"/>
<path d="M93.1653 272.268C94.7701 275.813 95.9421 273.439 96.3275 271.809L98.4128 260.92C99.2627 256.482 103.619 250.251 104.897 248.358C106.566 245.884 115.11 233.004 119.92 228.984C124.73 224.964 124.588 218.258 121.797 217.299C118.877 216.673 114.844 216.803 109.487 221.472C101.35 228.566 98.0117 243.38 96.2075 248.358C94.7806 252.294 92.5468 256.389 91.3141 257.857C89.463 264.09 91.152 267.821 93.1523 272.239L93.1653 272.268Z" fill="url(#paint6_linear)"/>
<path d="M74.2938 259.769C73.8642 257.621 77.1181 255.83 78.7294 255.293C78.252 256.188 77.7313 259.483 80.0229 264.782C82.3146 270.081 83.8617 268.78 84.4585 267.467C84.2794 268.124 84.463 269.974 85.752 272.122C87.3633 274.808 84.1407 273.913 82.1713 273.197C80.202 272.48 78.5906 270.153 78.2326 266.751C77.8746 263.35 74.8309 262.455 74.2938 259.769Z" fill="#E17052"/>
<path d="M88.0505 259.88C88.0376 257.69 91.6681 255.011 93.3521 254.791C92.7131 255.579 91.4796 260.254 92.7207 265.892C93.9618 271.531 96.0343 270.54 96.87 269.365C96.5693 269.975 96.0914 271.834 96.948 274.189C98.0187 277.132 95.0254 275.64 93.2283 274.562C91.4312 273.484 90.2923 270.892 90.5883 267.485C90.8842 264.077 88.0666 262.619 88.0505 259.88Z" fill="#E17052"/>
<circle opacity="0.85" cx="56.0032" cy="279.978" r="2.32743" fill="#2F426A"/>
<circle cx="98.2557" cy="279.978" r="2.32743" fill="#2F426A"/>
<circle opacity="0.85" cx="64.2391" cy="279.978" r="2.32743" fill="#2F426A"/>
<circle cx="106.492" cy="279.978" r="2.32743" fill="#2F426A"/>
<path d="M155.764 156.984C151.285 158.627 140.493 156.636 133.597 156.776C159.268 157.944 150.75 183.594 144.628 194.582C142.869 194.93 139.181 195.375 138.506 194.373C137.661 193.121 136.183 182.273 136.817 178.309C137.45 174.346 132.806 168.713 131.328 166.001C129.85 163.289 125.417 154.109 132.172 145.973C137.577 139.464 144.276 140.34 146.95 141.592C150.257 140.688 157.548 140.298 160.25 145.973C163.628 153.066 170.594 164.957 175.661 166.418C180.727 167.878 182.416 182.899 179.039 178.935C176.336 175.764 164.824 171.912 159.405 170.382C160.081 168.546 158.702 166.974 157.928 166.418C158.434 165.416 157.717 162.245 157.294 160.785C160.619 159.07 159.299 155.687 155.764 156.984Z" fill="url(#paint7_linear)"/>
<path d="M135.537 164.652C133.637 163.047 133.45 158.9 133.594 157.027C135.148 155.582 148.486 156.559 154.961 157.228C155.32 156.291 156.73 154.86 159.493 156.626C162.946 158.833 157.766 160.438 158.63 160.839C159.32 161.16 159.455 165.152 159.455 166.824C159.095 166.757 157.771 166.784 155.354 166.623C152.333 166.423 150.213 167.862 152.155 167.862C154.097 167.862 154.961 171.875 152.155 172.277C149.91 172.598 151.685 174.449 146.975 174.885C141.277 173.922 138.702 170.604 138.126 169.066C138.055 168.263 137.436 166.257 135.537 164.652Z" fill="#E0BAA5"/>
<path d="M165.698 169.223C165.525 167.229 161.443 167.864 160.072 168.317C158.341 169.45 155.497 171.68 154.805 173.674C153.939 176.167 157.185 178.433 160.863 178.886C164.541 179.339 165.914 171.716 165.698 169.223Z" fill="#DAB299"/>
<path d="M175.224 167.615C172.415 165.757 165.653 165.715 162.623 165.926C164.452 165.926 167.303 167.319 164.069 172.893C160.835 178.466 157.488 174.23 156.219 171.415C156.425 170.57 156.301 169.684 154.153 172.893C151.467 176.904 160.557 190.204 161.383 191.049C162.044 191.724 165.515 203.294 167.168 208.994C167.65 209.557 171.589 211.274 183.488 213.639C195.387 216.003 198.819 223.632 198.888 227.15C201.863 225.124 201.048 218.846 200.428 215.961C193.404 207.938 191.338 194.849 187.413 183.871C183.488 172.893 178.736 169.937 175.224 167.615Z" fill="#F39B53"/>
<path d="M151.985 180.211L153.028 184.556C152.527 185.599 150.038 186.584 148.856 186.946C148.23 184.774 145.617 178.973 145.617 176.8C145.618 174.46 149.164 173.759 151.568 172.172C153.824 170.682 152.293 170.065 150.207 167.892C148.121 165.72 155.214 165.285 159.703 166.523C161.485 167.014 160.468 168.478 159.703 169.347C158.521 170.723 155.656 173.953 153.654 175.865C151.651 177.777 151.707 179.559 151.985 180.211Z" fill="#E6C1AE"/>
<path d="M151.648 166.844C152.59 167.179 154.512 168.05 154.663 168.854" stroke="#695D5D" stroke-width="0.1"/>
<path d="M153.658 166.844C154.6 167.179 156.523 168.05 156.674 168.854" stroke="#695D5D" stroke-width="0.1"/>
<path d="M155.632 166.249C156.591 166.745 158.515 167.908 158.534 168.596" stroke="#695D5D" stroke-width="0.1"/>
<path d="M143.583 196.078C140.073 204.24 136.829 203.227 135.645 201.7L133.556 210.652L140.24 211.069C142.886 210.167 148.345 207.654 149.014 204.823C149.682 201.991 150.406 203.226 150.685 204.198C153.358 210.194 158.901 210.999 161.338 210.652C165.585 208.57 174.372 201.2 175.542 188.375C176.712 175.549 173.105 172.759 171.155 172.967C168.37 172.482 162.967 173.675 163.636 182.337C164.304 190.998 160.85 198.577 159.04 201.283C158.483 201.422 157.369 200.992 157.369 198.16C157.369 195.329 155.002 185.598 153.818 181.087C154.152 183.253 148.805 185.46 146.089 186.292C146.437 185.737 147.175 184.252 147.343 182.753C147.551 180.879 143.583 179.005 144.627 182.753C145.463 185.751 144.279 192.886 143.583 196.078Z" fill="#F3C12E"/>
<path d="M99.3827 175.89L86.6718 205.28H65.2092V207.169H66.2511V209.059H136.682L150.643 177.36L149.809 175.89H99.3827Z" fill="#767676"/>
<path d="M149.965 175.89H99.4903L86.8189 205.28H65.2092V207.169H66.2582V209.059H88.3437L101.173 177.378H151.648L149.965 175.89Z" fill="#8EA1A8"/>
<path d="M221 208.053H24V217.699H27.9678V293.487H33.5227V217.699H212.668V293.487H217.429V217.699H221V208.053Z" fill="#445879"/>
<path d="M152.284 227.943C150.632 224.086 155.862 219.846 158.684 218.104H151.146C144.375 220.033 143.542 226.604 143.611 229.55L143.817 238.792C145.607 239.06 148.146 239.559 150.128 240.362C153.387 241.684 156.239 241.186 157.032 240.801V233.167C156.138 233.033 153.935 231.8 152.284 227.943Z" fill="url(#paint8_linear)"/>
<path d="M147.051 270.027C150.658 268.677 151.054 265.741 150.713 264.546C150.508 264.194 150.795 264.039 152.762 266.234C155.222 268.977 151.969 271.504 150.74 271.715C149.51 271.926 147.871 273.192 146.231 275.935C142.747 280.577 140.083 279.311 138.033 279.1C135.984 278.889 136.393 277.201 137.418 277.201C138.238 277.201 139.372 275.729 139.851 274.885C142.105 277.839 143.772 271.293 147.051 270.027Z" fill="#D86023"/>
<path d="M188.982 264.858C189.415 261.311 190.007 259.075 188.982 258.39C188.599 258.257 188.757 258.199 191.686 258.58C195.346 259.057 194.575 262.691 193.748 263.654C192.921 264.616 192.442 266.647 192.9 269.799C193.119 275.596 190.091 276.617 188.356 277.794C186.621 278.972 185.435 278.42 185.852 276.96C186.161 275.879 186.105 272.569 185.944 271.617C189.578 272.388 188.163 268.197 188.982 264.858Z" fill="#D86023"/>
<circle cx="144.612" cy="162.824" r="1.0051" fill="black"/>
<circle cx="139.587" cy="165.839" r="1.0051" fill="black"/>
<path d="M141.597 163.829C142.183 164.256 143.306 165.624 143.105 167.675C142.853 170.24 145.366 170.026 145.617 169.599" stroke="black" stroke-width="0.1"/>
<path d="M147.567 169.86C147.752 170.53 147.622 171.87 145.617 171.87" stroke="black" stroke-width="0.1"/>
<path d="M149.531 164.372C149.153 163.241 147.801 164.136 147.173 164.725C145.994 165.961 146.937 166.844 147.88 166.844C148.823 166.844 150.002 165.785 149.531 164.372Z" fill="#E38E89"/>
<path d="M144.612 159.809C143.644 159.864 141.485 160.144 140.592 160.814" stroke="#5A5CA9" stroke-width="0.3" stroke-linecap="round"/>
<path d="M137.577 163.829C137.289 163.913 136.686 164.231 136.572 164.834" stroke="#5A5CA9" stroke-width="0.3" stroke-linecap="round"/>
<path d="M96.4609 53.2529C94.9277 53.9951 92.9258 54.3662 90.4551 54.3662C87.2324 54.3662 84.6982 53.4189 82.8525 51.5244C81.0068 49.6299 80.084 47.1055 80.084 43.9512C80.084 40.5918 81.1191 37.8672 83.1895 35.7773C85.2695 33.6875 87.9648 32.6426 91.2754 32.6426C93.3262 32.6426 95.0547 32.9014 96.4609 33.4189V37.9746C95.0547 37.1348 93.4531 36.7148 91.6562 36.7148C89.6836 36.7148 88.0918 37.335 86.8809 38.5752C85.6699 39.8154 85.0645 41.4951 85.0645 43.6143C85.0645 45.6455 85.6357 47.2666 86.7783 48.4775C87.9209 49.6787 89.459 50.2793 91.3926 50.2793C93.2383 50.2793 94.9277 49.8301 96.4609 48.9316V53.2529ZM107.417 54.3662C104.917 54.3662 102.95 53.668 101.514 52.2715C100.088 50.8652 99.3754 48.9609 99.3754 46.5586C99.3754 44.0781 100.118 42.1396 101.602 40.7432C103.086 39.3369 105.093 38.6338 107.622 38.6338C110.113 38.6338 112.066 39.3369 113.482 40.7432C114.898 42.1396 115.606 43.9902 115.606 46.2949C115.606 48.7852 114.873 50.7529 113.409 52.1982C111.954 53.6436 109.956 54.3662 107.417 54.3662ZM107.535 42.1787C106.441 42.1787 105.591 42.5547 104.986 43.3066C104.38 44.0586 104.078 45.123 104.078 46.5C104.078 49.3809 105.24 50.8213 107.564 50.8213C109.781 50.8213 110.889 49.3418 110.889 46.3828C110.889 43.5801 109.771 42.1787 107.535 42.1787ZM133.887 54H129.258V51.9346H129.199C128.144 53.5557 126.596 54.3662 124.555 54.3662C122.68 54.3662 121.172 53.707 120.029 52.3887C118.887 51.0605 118.315 49.21 118.315 46.8369C118.315 44.3564 118.945 42.3691 120.205 40.875C121.465 39.3809 123.115 38.6338 125.156 38.6338C127.09 38.6338 128.437 39.3271 129.199 40.7139H129.258V31.793H133.887V54ZM129.346 46.7051V45.5771C129.346 44.6006 129.062 43.79 128.496 43.1455C127.929 42.501 127.192 42.1787 126.284 42.1787C125.259 42.1787 124.458 42.584 123.882 43.3945C123.305 44.1953 123.017 45.2988 123.017 46.7051C123.017 48.0234 123.296 49.0391 123.852 49.752C124.409 50.4648 125.18 50.8213 126.167 50.8213C127.104 50.8213 127.866 50.4453 128.452 49.6934C129.048 48.9414 129.346 47.9453 129.346 46.7051ZM140.727 36.627C139.946 36.627 139.306 36.3975 138.808 35.9385C138.31 35.4697 138.061 34.8984 138.061 34.2246C138.061 33.5312 138.31 32.9648 138.808 32.5254C139.306 32.0859 139.946 31.8662 140.727 31.8662C141.518 31.8662 142.157 32.0859 142.646 32.5254C143.144 32.9648 143.393 33.5312 143.393 34.2246C143.393 34.9277 143.144 35.5039 142.646 35.9531C142.157 36.4023 141.518 36.627 140.727 36.627ZM143.012 54H138.383V39H143.012V54ZM161.996 54H157.381V45.665C157.381 43.3408 156.551 42.1787 154.891 42.1787C154.09 42.1787 153.431 42.4863 152.914 43.1016C152.396 43.7168 152.137 44.498 152.137 45.4453V54H147.508V39H152.137V41.373H152.196C153.299 39.5469 154.906 38.6338 157.015 38.6338C160.336 38.6338 161.996 40.6943 161.996 44.8154V54ZM180.979 52.2861C180.979 55.0693 180.174 57.2227 178.562 58.7461C176.951 60.2793 174.617 61.0459 171.561 61.0459C169.539 61.0459 167.938 60.7578 166.756 60.1816V56.2852C168.299 57.1836 169.856 57.6328 171.429 57.6328C172.991 57.6328 174.202 57.2178 175.062 56.3877C175.921 55.5674 176.351 54.4492 176.351 53.0332V51.8467H176.292C175.237 53.5264 173.68 54.3662 171.619 54.3662C169.705 54.3662 168.187 53.6924 167.063 52.3447C165.94 50.9971 165.379 49.1904 165.379 46.9248C165.379 44.3857 166.004 42.3691 167.254 40.875C168.504 39.3809 170.149 38.6338 172.19 38.6338C174.017 38.6338 175.384 39.3369 176.292 40.7432H176.351V39H180.979V52.2861ZM176.409 46.793V45.6064C176.409 44.6592 176.126 43.8535 175.56 43.1895C175.003 42.5156 174.275 42.1787 173.377 42.1787C172.352 42.1787 171.546 42.5791 170.96 43.3799C170.374 44.1807 170.081 45.3086 170.081 46.7637C170.081 48.0137 170.359 49.0049 170.916 49.7373C171.473 50.46 172.234 50.8213 173.201 50.8213C174.158 50.8213 174.93 50.4551 175.516 49.7227C176.111 48.9805 176.409 48.0039 176.409 46.793Z" fill="#845DF1"/>
<defs>
<filter id="filter0_f" x="0" y="0" width="245" height="345" filterUnits="userSpaceOnUse" color-interpolation-filters="sRGB">
<feFlood flood-opacity="0" result="BackgroundImageFix"/>
<feBlend mode="normal" in="SourceGraphic" in2="BackgroundImageFix" result="shape"/>
<feGaussianBlur stdDeviation="12.5" result="effect1_foregroundBlur"/>
</filter>
<filter id="filter1_i" x="25" y="12" width="196" height="301" filterUnits="userSpaceOnUse" color-interpolation-filters="sRGB">
<feFlood flood-opacity="0" result="BackgroundImageFix"/>
<feBlend mode="normal" in="SourceGraphic" in2="BackgroundImageFix" result="shape"/>
<feColorMatrix in="SourceAlpha" type="matrix" values="0 0 0 0 0 0 0 0 0 0 0 0 0 0 0 0 0 0 127 0" result="hardAlpha"/>
<feOffset dy="4"/>
<feGaussianBlur stdDeviation="5"/>
<feComposite in2="hardAlpha" operator="arithmetic" k2="-1" k3="1"/>
<feColorMatrix type="matrix" values="0 0 0 0 0 0 0 0 0 0 0 0 0 0 0 0 0 0 0.25 0"/>
<feBlend mode="normal" in2="shape" result="effect1_innerShadow"/>
</filter>
<linearGradient id="paint0_linear" x1="123" y1="215" x2="123" y2="309" gradientUnits="userSpaceOnUse">
<stop stop-color="#7B87F4"/>
<stop offset="1" stop-color="#333B7E"/>
</linearGradient>
<linearGradient id="paint1_linear" x1="73.2499" y1="180.916" x2="73.2499" y2="208.054" gradientUnits="userSpaceOnUse">
<stop stop-color="#19A8B0"/>
<stop offset="1" stop-color="#10565C"/>
</linearGradient>
<linearGradient id="paint2_linear" x1="92.3469" y1="101.513" x2="92.3469" y2="131.666" gradientUnits="userSpaceOnUse">
<stop stop-color="#36518B"/>
<stop offset="1" stop-color="#2C3C5E"/>
</linearGradient>
<linearGradient id="paint3_linear" x1="95.8649" y1="131.666" x2="95.8649" y2="162.824" gradientUnits="userSpaceOnUse">
<stop stop-color="#7A4A3C"/>
<stop offset="1" stop-color="#BF9A91"/>
</linearGradient>
<linearGradient id="paint4_linear" x1="86.9175" y1="188.656" x2="94.5171" y2="190.098" gradientUnits="userSpaceOnUse">
<stop stop-color="#815344"/>
<stop offset="1" stop-color="#BB7660"/>
</linearGradient>
<linearGradient id="paint5_linear" x1="82.8706" y1="232.58" x2="93.8613" y2="238.744" gradientUnits="userSpaceOnUse">
<stop stop-color="#7F4540"/>
<stop offset="0.591667" stop-color="#9D7665"/>
</linearGradient>
<linearGradient id="paint6_linear" x1="110.316" y1="224.623" x2="106.562" y2="247.714" gradientUnits="userSpaceOnUse">
<stop stop-color="#7F4540"/>
<stop offset="0.591667" stop-color="#9D7665"/>
</linearGradient>
<linearGradient id="paint7_linear" x1="139.93" y1="140.712" x2="140.549" y2="194.953" gradientUnits="userSpaceOnUse">
<stop stop-color="#5B5DAA"/>
<stop offset="0.0001" stop-color="#5B5DAA"/>
<stop offset="0.440794" stop-color="#354D7F"/>
<stop offset="1" stop-color="#36456E"/>
</linearGradient>
<linearGradient id="paint8_linear" x1="158.888" y1="225.332" x2="144.406" y2="239.387" gradientUnits="userSpaceOnUse">
<stop stop-color="#008999"/>
<stop offset="1" stop-color="#03C2D4"/>
</linearGradient>
</defs>
</svg>
