<svg width="245" height="345" viewBox="0 0 245 345" fill="none" xmlns="http://www.w3.org/2000/svg">
<g filter="url(#filter0_f)">
<rect x="25" y="25" width="195" height="295" fill="black" fill-opacity="0.24"/>
</g>
<g opacity="0.85" filter="url(#filter1_i)">
<rect x="24.5791" y="10" width="196" height="297" rx="5" fill="white"/>
</g>
<mask id="mask0" mask-type="alpha" maskUnits="userSpaceOnUse" x="24" y="10" width="197" height="297">
<rect x="24.5791" y="10" width="196" height="297" rx="5" fill="white"/>
</mask>
<g mask="url(#mask0)">
<path d="M145.079 228.5C92.8118 201.7 39.2061 234.193 23.5791 237.32V307H220.579V228.5C220.579 228.5 210.413 262 145.079 228.5Z" fill="url(#paint0_linear)"/>
</g>
<path opacity="0.3" d="M35.2912 187.947C35.2912 187.947 67.8409 202.028 70.0322 195.828C72.2234 189.628 32.6532 182.744 32.6532 182.744C32.6532 182.744 24.3527 147.797 28.2457 135.706C28.2457 135.706 57.1282 162.766 57.7206 156.205C58.313 149.644 29.5559 120.112 29.5559 120.112C29.5559 120.112 30.6126 86.4499 50.911 85.6166C71.2093 84.7833 78.9652 95.3303 79.1209 100.388C79.2765 105.446 72.1757 136.06 76.3448 136.168C80.5139 136.276 91.4249 116.992 90.3531 104.61C90.3531 104.61 119.115 124.529 113.864 140.917C108.613 157.305 97.1 160.131 94.0353 170.319C90.9706 180.507 92.1176 188.717 96.0433 184.167C99.9689 179.616 101.917 161.644 110.872 154.888C119.828 148.131 125.701 142.338 125.503 158.625C125.305 174.912 117.22 202.364 104.02 205.231C105.072 208.479 112.125 214.595 117.604 218.973C118.555 219.636 119.863 220.634 121.595 222.08C122.393 222.688 123.048 223.177 123.505 223.516C136.055 232.115 160.402 234.593 160.402 234.593L160.57 238.107C135.059 240.047 118.239 222.675 118.239 222.675C104.492 210.765 90.8275 208.084 90.8275 208.084C90.8275 208.084 67.5322 234.189 47.8161 215.065C47.8161 215.062 36.2752 200.725 35.2912 187.947Z" fill="#AEC3FF" fill-opacity="0.43"/>
<path d="M116.998 236.425L133.449 217.805C141.447 225.96 148.51 230.148 158.738 231.363C173.647 233.13 182.961 222.809 186.631 206.712C180.14 211.041 171.6 213.372 161.024 212.112C134.669 208.986 119.413 192.391 122.379 167.416C125.283 142.962 146.321 127.169 173.713 130.424C190.015 132.361 199.07 137.483 207.167 147.768C214.806 157.47 218.962 171.332 216.079 195.608C211.403 234.979 189.661 259.657 155.162 255.557C137.479 253.454 126.217 246.138 116.998 236.425ZM190.982 174.509C192.258 163.756 185.21 155.003 171.861 153.417C158.683 151.852 150.325 158.597 149.007 169.697C147.73 180.45 154.818 188.86 167.995 190.422C181.171 191.983 189.701 185.263 190.982 174.509Z" fill="#AEC3FF" fill-opacity="0.34"/>
<path opacity="0.5" d="M189.085 101.619L170 96.4215L170.318 90.1621L198.746 72.0001L206 73.9755L199.254 97.112L204.5 98.5404L202.538 105.282L197.287 103.857L194.906 112L186.703 109.766L189.085 101.619ZM191.046 94.878L194.474 83.1202L180.667 92.0563L191.046 94.878Z" fill="#AEC3FF" fill-opacity="0.43"/>
<path d="M62.052 113.218L63.3942 108.763C65.6413 109.487 67.5887 109.64 69.4702 108.84C71.6529 107.912 72.5517 106.303 71.6993 104.427C70.9001 102.666 68.8883 102.297 66.6742 103.237C65.3402 103.804 64.287 104.672 63.4729 105.509L59.9884 104.924L55.9977 94.5418L69.0366 89.0001L70.8342 92.9623L61.7981 96.8042L63.1665 100.458C63.9223 99.8914 64.6144 99.4224 65.7971 98.9201C69.9167 97.1673 74.1044 97.6994 76.2354 102.394C78.206 106.738 76.2736 110.849 71.3915 112.924C67.9954 114.367 64.9769 114.249 62.052 113.218Z" fill="#F99746"/>
<path opacity="0.85" d="M129.255 94.0002C143.044 94.0181 154.221 100.918 154.221 109.415C154.221 113.661 151.424 117.502 146.905 120.278L152.719 127.797L140.724 123.058C137.288 124.151 133.387 124.76 129.25 124.76C115.461 124.742 104.285 117.842 104.285 109.346C104.285 100.849 115.464 93.9812 129.255 94.0002Z" fill="#CAE1F9"/>
<path opacity="0.85" d="M220.577 264V262L218.614 261.732C154.226 252.952 88.9394 253.042 24.5768 262V264C89.3047 272.543 155.86 272.629 220.577 264Z" fill="black" fill-opacity="0.34"/>
<path d="M183.199 135.106C183.056 131.462 183.565 127.862 185.111 124.467C186.443 121.548 189.737 119.89 192.74 119.886C202.279 119.873 203.491 133.157 209.563 138.281C211.419 139.847 213.492 141.122 215.247 142.811C221.735 149.046 218.81 160.589 212.858 166.054C208.727 169.847 202.232 172.003 197.145 169.038C194.487 167.49 192.47 164.911 191.033 162.098C188.993 158.096 187.677 153.48 186.223 149.215C184.683 144.677 183.389 139.953 183.199 135.106Z" fill="#B75742"/>
<path d="M187.398 145.739C187.398 145.739 188.692 148.036 187.782 151.198C186.872 154.361 176.551 163.43 175.316 163.958C173.968 164.534 173.204 164.185 172.658 163.795C167.96 160.429 162.33 144.344 161.614 143.168L160.988 142.136L161.912 139.609L174.241 156.366C174.241 156.366 186.613 144.582 187.398 145.739Z" fill="#F7A491"/>
<path d="M189.649 143.307C189.649 143.307 188.567 143.659 188.233 143.841C185.968 145.08 178.245 152.659 178.245 152.659C178.245 152.659 181.571 157.328 183.049 159.332L193.037 152.652L189.649 143.307Z" fill="#FAE0B2"/>
<path d="M193.704 250.549C193.704 250.549 193.305 256.188 193.629 258.022C193.802 259.007 194.578 260.766 194.135 261.69C193.692 262.614 192.71 262.664 192.71 262.664L182.632 262.874C182.007 262.885 181.688 262.874 182.192 262.457C183.016 261.78 183.682 261.332 186.317 259.909C186.489 259.816 187.114 259.372 187.34 259.218C187.911 258.828 188.486 258.214 188.98 257.599C189.805 256.575 189.877 251.608 189.877 251.608L193.704 250.549Z" fill="#F7A491"/>
<path d="M184.266 179.369C184.266 179.369 182.481 189.008 183.478 194.661C184.476 200.313 189.254 252.714 189.254 252.714L194.565 253.015C194.565 253.015 195.678 231.126 195.478 228.082C195.279 225.038 193.704 219.944 193.704 219.944L194.232 202.271L187.53 179.054L184.266 179.369Z" fill="#355389"/>
<path d="M213.749 249.317C213.749 249.317 214.455 253.649 215.677 255.047C216.087 255.515 216.834 256.114 217.324 256.957C218.088 258.277 217.507 259.696 216.943 260.778C216.655 261.333 216.634 261.205 215.976 261.385C214.025 261.919 212.446 261.695 211.61 260.049C211.035 258.885 210.712 257.632 210.657 256.357C210.449 252.424 209.062 250.424 209.062 250.424L213.749 249.317Z" fill="#F7A491"/>
<path d="M211.527 259.294C214.752 259.854 216.899 258.065 218.016 256.713C218.836 258.237 219.236 260.509 218.632 261.76C218.102 262.866 216.549 262.831 215.327 262.874C214.034 262.92 213.034 262.237 212.393 261.165C212.04 260.572 211.75 259.945 211.527 259.294Z" fill="#466EB6"/>
<path d="M199.233 178.541C199.233 178.541 203.385 184.831 204.373 190.037C205.36 195.242 203.648 211.239 205.549 218.06C206.578 221.753 210.48 227.455 211.073 232.227C211.666 237 213.992 249.497 213.992 249.497L208.722 250.549L196.475 219.334L186.866 191.12L184.408 176.589L199.233 178.541Z" fill="#466EB6"/>
<path d="M187.49 259.178C190.766 259.91 192.915 259.654 194.27 259.178C194.617 260.04 195.678 261.121 195.435 261.745C195.134 262.508 194.705 262.678 194.328 262.689C191.336 262.758 183.367 262.85 181.086 262.876C181.016 262.878 180.946 262.862 180.886 262.83C180.826 262.798 180.777 262.751 180.747 262.694C180.716 262.637 180.704 262.574 180.713 262.512C180.722 262.449 180.751 262.391 180.796 262.343C181.363 261.755 187.246 259.308 187.49 259.178Z" fill="#466EB6"/>
<path d="M195.899 142.093C195.899 142.093 201.493 141.732 203.706 144.175C205.918 146.617 198.798 165.938 198.395 169.047C197.993 172.156 200.958 179.803 200.958 179.803C200.958 179.803 186.938 183.087 183.176 180.571C183.176 180.571 183.147 158.228 183.549 156.007C183.951 153.787 187.305 144.756 188.108 143.864C188.912 142.971 195.899 142.093 195.899 142.093Z" fill="#F7CC7F"/>
<path d="M194.583 134.794C194.583 134.794 194.613 134.946 194.668 135.207C194.93 136.455 195.937 140.595 196.617 141.733C197.44 143.111 193.801 147.496 190.299 146.96C189.256 146.801 191.181 142.932 191.087 142.52C190.91 141.734 190.671 140.664 190.425 139.566C190.286 138.946 190.146 138.318 190.015 137.728L189.339 134.678L194.583 134.794Z" fill="#F7A491"/>
<path d="M194.118 135.213C194.069 134.949 194.042 134.795 194.042 134.795L189.339 134.678L189.949 137.761C190.066 138.355 190.192 138.986 190.315 139.609C191.042 139.502 191.802 139.15 192.567 138.486C193.345 137.807 193.932 136.936 194.27 135.961C194.203 135.664 194.155 135.408 194.118 135.213Z" fill="#F47458"/>
<path d="M190.856 122.366C190.856 122.366 193.385 122.076 194.968 124.107C196.552 126.138 198.261 132.417 194.324 135.831C190.388 139.246 186.503 135.381 185.922 131.283C185.342 127.184 185.122 122.218 190.856 122.366Z" fill="#F7A491"/>
<path d="M184.739 131.353C185.205 132.001 185.984 132.36 186.483 132.155C186.981 131.95 187.006 131.257 186.542 130.608C186.078 129.959 185.294 129.601 184.799 129.805C184.303 130.009 184.275 130.704 184.739 131.353Z" fill="#F7A491"/>
<path d="M190.572 122.407C190.572 122.407 193.501 127.687 195.596 127.932C197.692 128.176 197.968 130.98 197.968 130.98C197.968 130.98 197.218 124.516 195.144 123.27C193.069 122.023 190.572 122.407 190.572 122.407Z" fill="#B75742"/>
<path d="M195.551 130.104C195.363 131.105 195.735 132.066 196.389 132.198C197.044 132.329 197.733 131.581 197.92 130.581C198.107 129.58 197.73 128.662 197.076 128.531C196.421 128.399 195.738 129.104 195.551 130.104Z" fill="#F7A491"/>
<path d="M179.586 178.672L194.723 179.054L195.502 158.099L179.478 158.15L179.586 178.672Z" fill="#466EB6"/>
<path d="M180.137 166.79C180.206 166.732 181.285 167.287 182.16 167.084C182.334 167.042 181.691 166.48 181.598 166.313C181.587 166.292 180.293 165.425 180.4 164.833C180.508 164.242 181.621 164.624 181.621 164.624C181.621 164.624 184.767 166.16 185.211 166.635C185.463 166.897 185.685 167.19 185.871 167.508C186.029 167.563 186.191 167.606 186.355 167.635C189.249 168.029 193.974 167.33 201.174 166.131L201.182 162.128C202.707 162.223 205.369 161.942 206.596 161.797C206.532 164.849 206.568 170.144 205.952 171.154C205.521 171.861 201.72 172.344 197.49 172.68C192.103 173.118 190.691 172.792 186.01 172.442C184.593 172.33 182.646 172.788 181.906 172.799C180.807 172.806 180.421 172.936 179.866 172.323C179.397 171.806 179.452 170.537 179.528 169.75C179.679 168.264 179.645 167.2 180.137 166.79Z" fill="#F48C7F"/>
<path d="M200.795 142.076C200.795 142.076 204.207 142.676 205.864 145.591C206.957 147.513 208.122 156.414 207.762 163.03C205.453 162.557 201.576 162.473 199.2 162.465C199.291 156.535 199.633 141.876 200.795 142.076Z" fill="#FAE0B2"/>
<path d="M183.657 154.401L184.408 155.757L183.176 156.866C183.267 156.163 183.431 155.333 183.657 154.401Z" fill="#F7CC7F"/>
<path d="M172.082 153.767C172.082 153.767 165.056 142.929 163.64 141.197C162.224 139.466 156.296 134.237 156.068 134.708C155.84 135.179 159.142 139.167 159.083 139.291C159.024 139.415 158.341 140.406 158.082 140.947C157.823 141.488 157.649 142.813 157.789 143.244C157.929 143.675 159.155 144.5 159.855 144.854C160.554 145.208 161.611 145.156 162.408 146.036C163.205 146.915 169.17 158.099 169.17 158.099L172.082 153.767Z" fill="#F7A491"/>
<path d="M46.8295 132.213L129.954 132.381C130.632 132.382 131.302 132.517 131.927 132.777C132.553 133.037 133.12 133.417 133.598 133.896C134.076 134.375 134.455 134.944 134.713 135.569C134.971 136.194 135.103 136.864 135.101 137.54L134.857 257.738C134.856 258.414 134.721 259.083 134.461 259.707C134.2 260.332 133.819 260.898 133.339 261.376C132.86 261.853 132.29 262.231 131.664 262.488C131.038 262.746 130.367 262.877 129.689 262.876L46.5655 262.708C45.1977 262.705 43.887 262.16 42.9218 261.192C41.9566 260.225 41.4158 258.914 41.4185 257.549L41.6624 137.351C41.6637 136.675 41.7984 136.006 42.0588 135.382C42.3192 134.758 42.7001 134.191 43.18 133.714C43.6598 133.237 44.229 132.858 44.8552 132.601C45.4814 132.343 46.1523 132.212 46.8295 132.213Z" fill="#F47458"/>
<path d="M127.705 142.69L50.0471 142.691L50.0471 163.006L127.705 163.646L127.705 142.69Z" fill="#CAE1F9"/>
<g style="mix-blend-mode:multiply">
<path d="M52.1401 146.15L127.7 146.302V142.691L50.0471 142.69V163.026L52.1066 163.03L52.1401 146.15Z" fill="#3CB4C5"/>
</g>
<path opacity="0.85" d="M71.7681 188.683L58.2535 188.655C57.9013 188.654 57.5527 188.584 57.2276 188.449C56.9025 188.313 56.6073 188.115 56.3588 187.866C56.1103 187.616 55.9133 187.32 55.7793 186.994C55.6452 186.669 55.5765 186.32 55.5773 185.968V185.233C55.5779 184.88 55.6479 184.532 55.7833 184.207C55.9187 183.881 56.1169 183.586 56.3665 183.337C56.616 183.089 56.9122 182.892 57.2379 182.758C57.5636 182.623 57.9126 182.555 58.2649 182.556L71.7785 182.583C72.4899 182.584 73.1715 182.868 73.6736 183.372C74.1756 183.876 74.457 184.559 74.4557 185.271V186.005C74.4551 186.358 74.3851 186.706 74.2496 187.032C74.1142 187.357 73.9161 187.652 73.6665 187.901C73.4169 188.149 73.1208 188.346 72.7951 188.48C72.4693 188.615 72.1204 188.683 71.7681 188.683Z" fill="#F47458"/>
<path d="M96.1952 175.356L80.3124 175.323C79.8984 175.322 79.4886 175.238 79.1064 175.074C78.7241 174.911 78.377 174.672 78.0848 174.37C77.7926 174.069 77.5611 173.712 77.4034 173.318C77.2457 172.925 77.165 172.504 77.1659 172.078V171.191C77.1666 170.766 77.2489 170.345 77.4081 169.953C77.5673 169.56 77.8002 169.204 78.0935 168.904C78.3869 168.603 78.7349 168.366 79.1177 168.204C79.5006 168.042 79.9107 167.959 80.3247 167.96L96.2074 167.992C97.0435 167.994 97.8447 168.337 98.4347 168.945C99.0248 169.554 99.3554 170.378 99.354 171.237V172.125C99.3531 172.551 99.2707 172.971 99.1115 173.364C98.9522 173.756 98.7193 174.113 98.426 174.413C98.1327 174.713 97.7847 174.951 97.402 175.112C97.0192 175.274 96.6091 175.357 96.1952 175.356Z" fill="#F47458"/>
<path d="M124.546 175.356L108.664 175.329C107.828 175.327 107.026 175.042 106.436 174.534C105.846 174.027 105.516 173.34 105.517 172.625V171.886C105.518 171.531 105.6 171.18 105.759 170.853C105.919 170.526 106.151 170.229 106.445 169.979C106.738 169.729 107.086 169.531 107.469 169.396C107.852 169.261 108.262 169.192 108.676 169.193L124.56 169.22C125.396 169.221 126.197 169.507 126.786 170.014C127.376 170.521 127.707 171.208 127.705 171.924V172.664C127.704 173.018 127.622 173.369 127.463 173.696C127.304 174.023 127.071 174.32 126.777 174.57C126.484 174.82 126.136 175.018 125.753 175.153C125.371 175.288 124.96 175.357 124.546 175.356Z" fill="#F47458"/>
<path d="M62.8258 197.544L54.4923 197.527C53.9073 197.526 53.3283 197.41 52.7882 197.187C52.2482 196.964 51.7578 196.637 51.345 196.226C50.9322 195.815 50.6051 195.327 50.3824 194.791C50.1597 194.254 50.0458 193.679 50.0471 193.099L50.0616 185.93C50.0627 185.35 50.179 184.775 50.4039 184.239C50.6288 183.704 50.958 183.217 51.3725 182.808C51.7871 182.398 52.279 182.073 52.82 181.852C53.3611 181.632 53.9407 181.518 54.5258 181.52L62.8593 181.536C64.0407 181.539 65.1727 182.007 66.0063 182.837C66.8399 183.668 67.3069 184.792 67.3045 185.964L67.29 193.133C67.2891 193.714 67.1729 194.288 66.9481 194.824C66.7232 195.36 66.3941 195.847 65.9795 196.256C65.5649 196.666 65.073 196.991 64.5319 197.212C63.9908 197.433 63.411 197.546 62.8258 197.544Z" fill="#96D9C9"/>
<path d="M82.5486 197.544L74.2162 197.528C73.6311 197.527 73.052 197.411 72.5119 197.188C71.9719 196.965 71.4814 196.638 71.0685 196.227C70.6556 195.816 70.3284 195.328 70.1056 194.791C69.8828 194.255 69.7687 193.68 69.7699 193.099L69.7844 185.93C69.7856 185.349 69.902 184.775 70.127 184.239C70.352 183.703 70.6812 183.217 71.0957 182.807C71.5103 182.398 72.0021 182.073 72.543 181.852C73.084 181.631 73.6636 181.518 74.2486 181.52L82.581 181.536C83.1661 181.537 83.7452 181.653 84.2854 181.876C84.8256 182.099 85.3161 182.426 85.729 182.837C86.1419 183.248 86.4691 183.736 86.6919 184.273C86.9146 184.809 87.0286 185.384 87.0273 185.965L87.0128 193.136C87.0098 194.308 86.5379 195.43 85.7008 196.257C84.8636 197.084 83.7298 197.547 82.5486 197.544Z" fill="#96D9C9"/>
<path d="M102.27 197.544L93.9378 197.527C93.3527 197.526 92.7737 197.41 92.2337 197.187C91.6936 196.964 91.2032 196.637 90.7904 196.226C90.3777 195.815 90.0506 195.327 89.8279 194.791C89.6052 194.254 89.4912 193.679 89.4926 193.099L89.5071 185.93C89.5081 185.35 89.6244 184.775 89.8493 184.239C90.0743 183.704 90.4034 183.217 90.818 182.808C91.2325 182.398 91.7244 182.073 92.2654 181.852C92.8065 181.632 93.3861 181.518 93.9712 181.52L102.305 181.536C103.486 181.539 104.618 182.007 105.452 182.837C106.285 183.668 106.752 184.793 106.75 185.964L106.735 193.133C106.734 193.714 106.618 194.288 106.393 194.824C106.168 195.36 105.839 195.847 105.424 196.256C105.01 196.666 104.518 196.991 103.976 197.212C103.435 197.433 102.855 197.546 102.27 197.544Z" fill="#96D9C9"/>
<path d="M62.8247 217.267L54.4923 217.251C53.3109 217.248 52.1789 216.78 51.3453 215.949C50.5117 215.119 50.0448 213.994 50.0471 212.822L50.0616 205.652C50.0628 205.072 50.1792 204.497 50.4042 203.962C50.6292 203.426 50.9584 202.939 51.3729 202.53C51.7875 202.12 52.2793 201.796 52.8203 201.575C53.3612 201.354 53.9408 201.241 54.5258 201.242L62.8593 201.259C63.4443 201.26 64.0234 201.376 64.5634 201.599C65.1034 201.822 65.5938 202.149 66.0066 202.56C66.4194 202.971 66.7465 203.459 66.9692 203.996C67.1919 204.532 67.3058 205.107 67.3045 205.688L67.29 212.859C67.2887 213.439 67.1721 214.013 66.947 214.549C66.7219 215.085 66.3926 215.571 65.9779 215.98C65.5633 216.39 65.0714 216.714 64.5303 216.935C63.9893 217.156 63.4097 217.269 62.8247 217.267Z" fill="#96D9C9"/>
<path d="M82.5486 217.267L74.2162 217.251C73.6311 217.25 73.0519 217.134 72.5118 216.911C71.9716 216.688 71.4811 216.361 71.0682 215.95C70.6553 215.539 70.3281 215.051 70.1053 214.514C69.8826 213.978 69.7686 213.403 69.7699 212.822L69.7844 205.653C69.7856 205.073 69.902 204.498 70.127 203.962C70.3519 203.427 70.6811 202.94 71.0956 202.531C71.5102 202.121 72.002 201.796 72.543 201.575C73.0839 201.354 73.6635 201.241 74.2486 201.242L82.581 201.259C83.7625 201.262 84.8946 201.73 85.7283 202.56C86.5621 203.39 87.0293 204.515 87.0273 205.687L87.0116 212.857C87.0106 213.437 86.8944 214.011 86.6695 214.547C86.4446 215.083 86.1156 215.569 85.7011 215.979C85.2867 216.388 84.795 216.713 84.254 216.934C83.7131 217.155 83.1336 217.268 82.5486 217.267Z" fill="#96D9C9"/>
<path d="M102.27 217.267L93.9386 217.251C93.3535 217.249 92.7745 217.134 92.2344 216.911C91.6944 216.688 91.2039 216.361 90.7911 215.95C90.3782 215.539 90.0511 215.051 89.8283 214.514C89.6055 213.977 89.4914 213.402 89.4926 212.822L89.5082 205.652C89.5094 205.072 89.6258 204.497 89.8507 203.962C90.0757 203.426 90.4049 202.939 90.8194 202.53C91.2339 202.12 91.7257 201.796 92.2666 201.575C92.8076 201.354 93.3871 201.241 93.9721 201.242L102.304 201.259C102.889 201.26 103.468 201.375 104.008 201.599C104.548 201.822 105.039 202.148 105.452 202.559C105.865 202.971 106.192 203.459 106.415 203.995C106.637 204.532 106.751 205.107 106.75 205.688L106.735 212.857C106.734 213.438 106.618 214.012 106.392 214.548C106.167 215.084 105.838 215.57 105.423 215.98C105.009 216.389 104.517 216.714 103.976 216.935C103.435 217.155 102.855 217.268 102.27 217.267Z" fill="#96D9C9"/>
<path d="M124.209 181.541L114.017 181.52C113.557 181.519 113.101 181.608 112.676 181.782C112.25 181.957 111.864 182.212 111.538 182.535C111.212 182.858 110.953 183.241 110.776 183.663C110.599 184.086 110.508 184.538 110.507 184.996L110.497 189.949L110.488 194.031L110.448 213.757C110.447 214.214 110.537 214.667 110.712 215.09C110.887 215.513 111.145 215.897 111.469 216.221C111.794 216.545 112.18 216.803 112.604 216.979C113.029 217.154 113.484 217.245 113.945 217.246L124.136 217.267C124.596 217.268 125.052 217.179 125.478 217.005C125.903 216.831 126.29 216.575 126.616 216.252C126.942 215.929 127.201 215.546 127.377 215.124C127.554 214.701 127.646 214.249 127.646 213.791L127.686 194.066L127.695 189.983L127.705 185.03C127.706 184.573 127.616 184.12 127.441 183.697C127.266 183.274 127.009 182.89 126.684 182.566C126.359 182.242 125.973 181.984 125.549 181.808C125.124 181.633 124.669 181.542 124.209 181.541Z" fill="#FAE0B2"/>
<path d="M62.8258 236.99L54.4923 236.973C53.9073 236.972 53.3283 236.857 52.7882 236.633C52.2482 236.41 51.7578 236.084 51.345 235.673C50.9322 235.261 50.6051 234.773 50.3824 234.237C50.1598 233.7 50.0458 233.125 50.0471 232.545L50.0616 225.375C50.0628 224.794 50.1792 224.22 50.4042 223.684C50.6292 223.149 50.9584 222.662 51.3729 222.253C51.7875 221.843 52.2793 221.519 52.8203 221.298C53.3612 221.077 53.9408 220.964 54.5258 220.965L62.8593 220.982C63.4443 220.983 64.0234 221.098 64.5634 221.322C65.1034 221.545 65.5938 221.871 66.0066 222.283C66.4194 222.694 66.7465 223.182 66.9692 223.718C67.1919 224.255 67.3058 224.83 67.3045 225.41L67.29 232.579C67.289 233.16 67.1727 233.734 66.9477 234.27C66.7228 234.806 66.3937 235.293 65.9791 235.702C65.5645 236.112 65.0727 236.436 64.5316 236.657C63.9906 236.878 63.4109 236.991 62.8258 236.99Z" fill="#96D9C9"/>
<path d="M82.5486 236.99L74.2162 236.973C73.6311 236.972 73.052 236.857 72.5119 236.634C71.9719 236.41 71.4814 236.084 71.0685 235.673C70.6556 235.261 70.3284 234.774 70.1056 234.237C69.8828 233.7 69.7687 233.125 69.7699 232.545L69.7844 225.376C69.7856 224.795 69.902 224.221 70.127 223.685C70.3519 223.149 70.6811 222.663 71.0956 222.253C71.5102 221.844 72.002 221.519 72.543 221.298C73.0839 221.077 73.6635 220.964 74.2486 220.965L82.581 220.983C83.1661 220.984 83.7452 221.099 84.2854 221.322C84.8256 221.546 85.3161 221.872 85.729 222.283C86.1419 222.695 86.4691 223.182 86.6919 223.719C86.9146 224.256 87.0286 224.831 87.0273 225.411L87.0116 232.58C87.0105 233.161 86.8941 233.735 86.6692 234.271C86.4442 234.806 86.1152 235.293 85.7008 235.702C85.2863 236.112 84.7946 236.436 84.2538 236.657C83.7129 236.878 83.1335 236.991 82.5486 236.99Z" fill="#96D9C9"/>
<path d="M102.27 236.99L93.9378 236.973C93.3527 236.972 92.7737 236.857 92.2337 236.633C91.6936 236.41 91.2032 236.084 90.7904 235.673C90.3777 235.261 90.0506 234.774 89.8279 234.237C89.6052 233.7 89.4912 233.125 89.4926 232.545L89.5071 225.375C89.5082 224.794 89.6246 224.22 89.8496 223.684C90.0746 223.149 90.4038 222.662 90.8184 222.253C91.2329 221.843 91.7247 221.519 92.2657 221.298C92.8067 221.077 93.3862 220.964 93.9712 220.965L102.304 220.982C102.889 220.983 103.468 221.098 104.008 221.322C104.548 221.545 105.038 221.871 105.451 222.282C105.864 222.694 106.191 223.182 106.414 223.718C106.637 224.255 106.751 224.83 106.75 225.41L106.735 232.579C106.734 233.16 106.618 233.734 106.393 234.27C106.168 234.806 105.839 235.293 105.424 235.702C105.009 236.112 104.517 236.437 103.976 236.658C103.435 236.878 102.855 236.991 102.27 236.99Z" fill="#96D9C9"/>
<path d="M123.227 236.99L114.893 236.973C113.712 236.971 112.58 236.503 111.746 235.672C110.913 234.842 110.446 233.717 110.448 232.545L110.462 225.375C110.463 224.795 110.58 224.22 110.805 223.684C111.03 223.148 111.359 222.662 111.773 222.252C112.188 221.843 112.68 221.518 113.221 221.298C113.762 221.077 114.342 220.964 114.927 220.965L123.26 220.981C124.441 220.984 125.573 221.452 126.407 222.282C127.24 223.113 127.707 224.237 127.705 225.409L127.691 232.579C127.69 233.159 127.573 233.734 127.349 234.27C127.124 234.805 126.795 235.292 126.38 235.702C125.966 236.111 125.474 236.436 124.933 236.657C124.392 236.878 123.812 236.991 123.227 236.99Z" fill="#FAE0B2"/>
<path d="M62.8258 256.713L54.4923 256.695C53.9073 256.694 53.3281 256.578 52.7881 256.355C52.248 256.132 51.7575 255.806 51.3447 255.395C50.9319 254.983 50.6048 254.495 50.3821 253.959C50.1595 253.422 50.0457 252.847 50.0471 252.267L50.0616 245.098C50.0627 244.518 50.179 243.943 50.4039 243.407C50.6288 242.872 50.958 242.385 51.3725 241.976C51.7871 241.566 52.279 241.242 52.82 241.021C53.3611 240.8 53.9407 240.687 54.5258 240.688L62.8593 240.704C64.0407 240.707 65.1727 241.175 66.0063 242.005C66.8399 242.836 67.3069 243.961 67.3045 245.132L67.29 252.301C67.2891 252.882 67.1729 253.456 66.9481 253.992C66.7232 254.528 66.3941 255.015 65.9795 255.424C65.5649 255.834 65.073 256.159 64.5319 256.38C63.9908 256.601 63.411 256.714 62.8258 256.713Z" fill="#FAE0B2"/>
<path d="M82.5494 256.713L74.2154 256.696C73.6303 256.695 73.0512 256.579 72.5112 256.356C71.9711 256.133 71.4807 255.806 71.0679 255.395C70.6551 254.984 70.3279 254.496 70.1052 253.96C69.8825 253.423 69.7686 252.848 69.7699 252.268L69.7844 245.097C69.7856 244.517 69.902 243.943 70.127 243.407C70.352 242.871 70.6812 242.385 71.0958 241.975C71.5104 241.566 72.0022 241.241 72.5432 241.02C73.0842 240.8 73.6638 240.687 74.2489 240.688L82.5818 240.704C83.1669 240.705 83.746 240.821 84.2862 241.044C84.8263 241.267 85.3168 241.594 85.7296 242.005C86.1425 242.416 86.4696 242.904 86.6922 243.441C86.9149 243.977 87.0287 244.552 87.0273 245.133L87.0128 252.303C87.0116 252.883 86.8952 253.458 86.6703 253.993C86.4453 254.529 86.1162 255.015 85.7018 255.425C85.2873 255.834 84.7956 256.159 84.2547 256.38C83.7138 256.601 83.1344 256.714 82.5494 256.713Z" fill="#96D9C9"/>
<path d="M102.273 256.713L93.938 256.695C93.353 256.694 92.7739 256.578 92.2338 256.355C91.6938 256.132 91.2033 255.805 90.7905 255.394C90.3777 254.983 90.0506 254.495 89.8279 253.959C89.6052 253.422 89.4912 252.847 89.4926 252.267L89.506 245.098C89.5086 243.926 89.9804 242.803 90.8176 241.976C91.6548 241.149 92.7888 240.686 93.9704 240.688L102.304 240.706C102.889 240.707 103.469 240.822 104.009 241.045C104.549 241.269 105.039 241.595 105.452 242.006C105.865 242.417 106.192 242.905 106.415 243.442C106.637 243.978 106.751 244.553 106.75 245.134L106.735 252.302C106.734 252.883 106.618 253.457 106.393 253.992C106.169 254.528 105.84 255.015 105.425 255.424C105.011 255.834 104.519 256.158 103.978 256.379C103.438 256.6 102.858 256.714 102.273 256.713Z" fill="#FAE0B2"/>
<path d="M122.314 256.713L114.576 256.696C114.032 256.695 113.495 256.579 112.993 256.356C112.492 256.133 112.036 255.806 111.653 255.395C111.27 254.984 110.966 254.496 110.759 253.959C110.552 253.423 110.447 252.848 110.448 252.267L110.461 245.098C110.462 244.517 110.571 243.943 110.779 243.407C110.988 242.871 111.294 242.385 111.679 241.975C112.064 241.566 112.521 241.241 113.023 241.021C113.525 240.8 114.063 240.687 114.607 240.688L122.345 240.704C122.888 240.706 123.426 240.821 123.927 241.044C124.429 241.268 124.884 241.594 125.267 242.005C125.651 242.417 125.954 242.904 126.161 243.441C126.368 243.978 126.474 244.553 126.473 245.133L126.459 252.303C126.458 252.883 126.35 253.458 126.141 253.993C125.932 254.529 125.626 255.016 125.241 255.425C124.857 255.835 124.4 256.159 123.898 256.38C123.395 256.601 122.857 256.714 122.314 256.713Z" fill="#FAE0B2"/>
<path opacity="0.85" d="M61.1411 224.672V225.442L56.8684 233.292H55.5002L59.7574 225.667V225.641L54.9778 225.632V224.663L61.1411 224.672Z" fill="white"/>
<path opacity="0.85" d="M75.9332 231.935C75.9332 230.732 76.6256 229.882 77.7506 229.386L77.7372 229.342C76.726 228.841 76.2878 228.018 76.2878 227.196C76.2878 225.682 77.5142 224.66 79.1175 224.663C80.888 224.663 81.771 225.828 81.7688 227.018C81.7688 227.825 81.3853 228.689 80.2603 229.244V229.288C81.3975 229.761 82.0988 230.598 82.0966 231.758C82.0966 233.416 80.7285 234.528 78.9859 234.525C77.0805 234.521 75.931 233.33 75.9332 231.935ZM80.8512 231.887C80.8512 230.723 80.0819 230.169 78.8443 229.799C77.7762 230.12 77.1987 230.847 77.1976 231.763C77.153 232.73 77.8543 233.583 79.0205 233.586C80.131 233.587 80.849 232.87 80.8512 231.887ZM77.4596 227.113C77.4596 228.067 78.1453 228.581 79.1989 228.877C79.986 228.6 80.5914 228.014 80.5936 227.149C80.5936 226.387 80.1611 225.592 79.0506 225.59C78.0249 225.585 77.4618 226.289 77.4551 227.111L77.4596 227.113Z" fill="white"/>
<path opacity="0.85" d="M82.0966 249.22C82.0899 252.465 80.9409 254.252 78.9278 254.247C77.1533 254.247 75.9532 252.501 75.9332 249.339C75.9332 246.141 77.2564 244.382 79.102 244.386C81.0152 244.391 82.1021 246.183 82.0966 249.22ZM77.1621 249.357C77.1621 251.837 77.8808 253.247 78.9999 253.249C80.2576 253.249 80.8621 251.713 80.8666 249.276C80.8666 246.929 80.3009 245.387 79.0287 245.384C77.9529 245.381 77.1621 246.76 77.1621 249.357Z" fill="white"/>
<path opacity="0.85" d="M96.4157 233.462C96.7524 233.482 97.0901 233.468 97.4242 233.42C98.1419 233.329 98.8143 233.007 99.3472 232.499C99.9556 231.926 100.395 231.09 100.566 229.957H100.524C100.014 230.604 99.2788 230.984 98.361 230.983C96.7093 230.983 95.6525 229.683 95.6559 228.052C95.6559 226.244 96.9188 224.66 98.7936 224.663C100.668 224.667 101.827 226.257 101.819 228.697C101.819 230.796 101.135 232.266 100.229 233.176C99.496 233.893 98.5571 234.34 97.5564 234.449C97.1786 234.513 96.7957 234.536 96.4134 234.519L96.4157 233.462ZM96.8785 227.967C96.8785 229.156 97.5665 229.996 98.6401 229.998C99.4738 229.998 100.124 229.575 100.45 229.002C100.529 228.861 100.568 228.699 100.562 228.536C100.562 226.903 99.9881 225.654 98.6882 225.651C97.6315 225.646 96.8818 226.614 96.8785 227.967Z" fill="white"/>
<path opacity="0.85" d="M58.8861 213.569V211.22L54.9778 211.212V210.442L58.7423 204.94H59.9746L59.9633 210.303H61.1411V211.219H59.9633V213.568L58.8861 213.569ZM58.8923 210.304L58.8984 207.423C58.8984 206.972 58.9121 206.521 58.9395 206.07H58.9015C58.6407 206.573 58.4332 206.944 58.2001 207.342L56.1361 210.271V210.298L58.8923 210.304Z" fill="white"/>
<path opacity="0.85" d="M80.714 205.919L77.6909 205.912L77.3814 208.086C77.5953 208.052 77.8113 208.035 78.0276 208.035C78.6243 208.023 79.2132 208.182 79.733 208.496C80.3551 208.876 80.8649 209.607 80.8639 210.678C80.8639 212.335 79.6266 213.577 77.9076 213.569C77.037 213.569 76.3105 213.304 75.9332 213.042L76.2031 212.169C76.7222 212.475 77.3044 212.638 77.897 212.642C78.9088 212.642 79.7756 211.941 79.7785 210.805C79.7679 209.71 79.0868 208.925 77.5023 208.922C77.1349 208.925 76.7681 208.955 76.4043 209.011L76.9238 204.94L80.7159 204.949L80.714 205.919Z" fill="white"/>
<path opacity="0.85" d="M100.944 205.871C100.639 205.859 100.334 205.875 100.033 205.922C98.1245 206.213 97.1123 207.511 96.9017 208.882H96.9434C97.2 208.575 97.53 208.329 97.9073 208.162C98.2845 207.995 98.6984 207.913 99.1159 207.921C100.705 207.921 101.823 208.994 101.819 210.629C101.819 212.16 100.693 213.572 98.8275 213.569C96.9061 213.569 95.6472 212.174 95.6559 209.996C95.6559 208.349 96.2975 207.051 97.1847 206.229C97.9326 205.549 98.9284 205.126 100.062 205.004C100.355 204.962 100.65 204.941 100.946 204.94L100.944 205.871ZM100.589 210.695C100.589 209.499 99.8595 208.777 98.7409 208.775C98.3775 208.782 98.0232 208.882 97.716 209.063C97.4088 209.243 97.1603 209.499 96.9972 209.801C96.9023 209.953 96.8541 210.126 96.8579 210.302C96.882 211.679 97.5576 212.697 98.8319 212.699C99.8792 212.701 100.585 211.892 100.589 210.695Z" fill="white"/>
<path opacity="0.85" d="M58.4582 186.306H58.4244L56.497 187.113L56.2104 186.223L58.6312 185.218H59.9085L59.8868 193.846H58.4379L58.4582 186.306Z" fill="white"/>
<path opacity="0.85" d="M75.9332 193.836V193.131L76.7548 192.259C78.7358 190.201 79.6263 189.106 79.6404 187.827C79.6404 186.965 79.2631 186.17 78.1094 186.17C77.4086 186.17 76.8247 186.558 76.4681 186.884L76.136 186.074C76.7514 185.515 77.5266 185.212 78.3255 185.218C79.9895 185.218 80.6837 186.475 80.6837 187.689C80.6837 189.256 79.6461 190.52 78.0123 192.239L77.3935 192.86V192.886L80.8639 192.894V193.846L75.9332 193.836Z" fill="white"/>
<path opacity="0.85" d="M96.0242 193.43C96.6857 193.812 97.438 194.021 98.2079 194.037C99.9221 194.037 100.455 192.989 100.442 192.193C100.429 190.857 99.1866 190.282 97.8973 190.279H97.1534V189.311H97.8973C98.8676 189.311 100.098 188.831 100.1 187.701C100.1 186.938 99.6019 186.262 98.3728 186.26C97.6659 186.277 96.9799 186.495 96.3998 186.886L96.0531 185.947C96.5695 185.581 97.5711 185.217 98.6328 185.218C100.576 185.218 101.453 186.339 101.451 187.499C101.451 188.482 100.841 189.316 99.6247 189.74V189.769C100.838 190.002 101.823 190.888 101.819 192.224C101.819 193.751 100.585 195.084 98.2187 195.079C97.1112 195.079 96.141 194.737 95.6559 194.428L96.0242 193.43Z" fill="white"/>
<path opacity="0.85" d="M59.9085 251.784C59.908 252.028 59.8352 252.266 59.6993 252.469C59.5635 252.671 59.3706 252.829 59.1452 252.922C58.9198 253.015 58.6719 253.039 58.4329 252.99C58.1938 252.942 57.9744 252.825 57.8024 252.652C57.6304 252.479 57.5134 252.259 57.4663 252.02C57.4192 251.781 57.4442 251.533 57.5379 251.308C57.6317 251.083 57.79 250.891 57.993 250.756C58.196 250.621 58.4345 250.549 58.6783 250.549C58.8402 250.55 59.0004 250.582 59.1498 250.644C59.2992 250.706 59.4349 250.797 59.5492 250.912C59.6634 251.027 59.7539 251.163 59.8156 251.313C59.8772 251.462 59.9088 251.623 59.9085 251.784Z" fill="white"/>
<path opacity="0.85" d="M125.24 199.868L119.235 199.855L119.246 193.85L117.702 193.846L117.689 199.853L111.684 199.84L111.681 201.384L117.687 201.397L117.674 207.402L119.218 207.406L119.231 201.399L125.236 201.412L125.24 199.868Z" fill="white"/>
<path opacity="0.85" d="M101.808 252.26L98.8764 249.318L101.819 246.387L101.065 245.63L98.1223 248.561L95.1923 245.619L94.435 246.372L97.3661 249.315L94.4232 252.245L95.1773 253.003L98.1202 250.071L101.05 253.015L101.808 252.26Z" fill="white"/>
<path opacity="0.85" d="M122.979 228.844L113.303 228.823L113.3 230.306L122.976 230.326L122.979 228.844Z" fill="white"/>
<path opacity="0.85" d="M123.293 245.971L113.617 245.951L113.614 247.433L123.29 247.453L123.293 245.971Z" fill="white"/>
<path opacity="0.85" d="M123.286 249.701L113.609 249.681L113.606 251.163L123.283 251.184L123.286 249.701Z" fill="white"/>
<path d="M139.473 188.841C138.699 187.223 137.728 182.201 137.41 180.495C137.563 179.385 137.711 179.141 137.501 178.399C137.22 177.408 136.682 176.996 136.227 176.733C135.772 176.471 134.49 173.956 133.869 174.124C133.247 174.291 134.934 177.074 134.526 176.839C134.119 176.605 133.257 173.903 132.378 174.138C131.498 174.374 133.684 177.368 133.212 177.495C132.74 177.621 131.722 175.388 131.02 175.578C130.317 175.768 132.567 178.567 132.325 178.43C132.082 178.293 130.407 177.228 130.183 177.523C129.925 177.861 133.893 181.001 134.009 181.92C133.981 184.281 133.88 188.562 134.99 191.134C136.351 194.282 139.711 201.242 139.711 201.242L144.963 199.507C144.963 199.507 140.389 190.759 139.473 188.841Z" fill="#F7A491"/>
<path d="M154.701 183.316C154.701 183.316 156.587 182.351 157.886 183.705C159.185 185.06 158.786 186.079 158.786 186.079C158.786 186.079 161.109 186.538 160.925 188.988C160.741 191.439 160.335 191.641 160.335 191.641C160.335 191.641 161.205 192.696 160.936 193.959C160.666 195.221 159.598 195.568 159.598 195.568C159.598 195.568 158.894 197.655 157.314 197.942C155.734 198.229 155.197 197.899 155.197 197.899C155.197 197.899 154.319 199.207 151.788 198.63C150.861 198.418 150.276 197.921 150.183 197.673C150.183 197.673 148.213 197.322 147.53 196.347C146.333 194.645 146.877 193.487 146.877 193.487C146.877 193.487 145.581 190.878 146.564 188.963C147.346 187.441 147.869 187.637 147.869 187.637C147.869 187.637 147.233 183.885 150.279 184.548C150.271 184.565 151.445 181.529 154.701 183.316Z" fill="#B75742"/>
<path d="M172.266 200.277C172.266 200.277 172.059 199.535 172.575 198.304C172.906 197.519 172.862 195.979 173.329 196.261C173.797 196.542 173.296 197.943 173.689 197.818C174.082 197.694 175.324 194.84 175.749 195.095C176.174 195.351 174.828 197.972 175.173 197.861C175.519 197.75 176.497 195.23 177.097 195.591C177.697 195.952 175.684 198.452 176.005 198.646C176.326 198.84 177.556 197.232 178.039 197.525C178.522 197.817 176.258 199.642 176.465 199.577C176.671 199.512 178.14 198.975 178.242 199.26C178.357 199.583 175.309 200.881 175.026 201.601C174.743 202.321 170.073 209.7 168.523 209.866C166.973 210.032 159.508 206.175 158.839 204.736C158.17 203.297 158.624 201.651 159.615 201.339C160.607 201.027 167.597 204.894 167.908 204.797C168.219 204.699 172.266 200.277 172.266 200.277Z" fill="#F7A491"/>
<path d="M174.547 198.777C174.686 198.936 174.791 199.122 174.855 199.323C174.931 199.538 174.957 199.768 174.931 199.994C174.905 200.221 174.828 200.439 174.707 200.632C174.812 200.169 174.927 199.657 174.547 198.777Z" fill="#F48C7F"/>
<path d="M142.623 193.846C142.623 193.846 141.383 194.163 137.567 198.583L144.963 208.638L147.428 199.165L142.623 193.846Z" fill="#E8BC6D"/>
<path d="M143.937 235.307C143.937 235.307 143.73 239.856 143.73 242.627C143.73 245.398 147.707 256.275 147.345 257.828C146.983 259.381 151.093 259.168 151.093 259.168C151.093 259.168 151.373 250.725 150.311 246.73C149.248 242.735 150.311 234.525 150.311 234.525L143.937 235.307Z" fill="#FFA283"/>
<path d="M153.592 233.292C153.592 233.292 154.983 240.734 156.114 242.437C157.245 244.14 163.328 255.725 163.328 257.207C163.328 258.689 167.151 257.481 167.151 257.481C167.151 257.481 163.921 244.798 162.628 240.955C161.854 238.664 161.26 236.313 160.851 233.926L153.592 233.292Z" fill="#FFA283"/>
<path d="M142.184 225.15C141.76 227.533 140.032 242.005 140.032 242.005C140.032 242.005 145.922 243.677 149.445 242.929C149.445 242.929 150.65 232.838 150.853 232.276C151.168 231.403 152.184 232.661 152.463 233.699C153.137 236.206 155.155 243.153 155.155 243.153C155.155 243.153 163.069 242.105 164.686 241.411C164.686 241.411 161.729 225.13 159.014 222.619L155.758 219.915L143.887 218.5C143.887 218.5 142.485 223.469 142.184 225.15Z" fill="#13375B"/>
<path d="M140.156 262.876H152.324C152.324 262.876 152.574 258.419 151.739 257.573C150.904 256.727 151.126 257.679 149.735 258.218C148.343 258.758 147.436 257.458 146.8 256.812C146.164 256.167 146.616 258.87 143.941 258.87C141.267 258.87 139.543 261.635 140.156 262.876Z" fill="#13375B"/>
<path d="M163.279 256.935C162.69 257.066 160.833 258.533 160.218 260.118C159.603 261.702 159.778 262.27 159.778 262.27C159.778 262.27 161.664 263.083 165.286 262.826C168.908 262.569 168.353 262.191 168.353 262.191C168.353 262.191 168.095 258.584 167.479 257.491C166.864 256.398 164.312 256.705 163.279 256.935Z" fill="#13375B"/>
<path d="M152.323 262.876C152.323 262.876 152.376 261.743 152.353 260.411C150.926 261.176 143.098 261.054 140.253 260.982C140.005 261.69 139.956 262.383 140.156 262.876H152.323Z" fill="#F7CC7F"/>
<path d="M165.285 262.827C168.905 262.575 168.353 262.197 168.353 262.197C168.353 262.197 168.294 261.379 168.164 260.411C165.644 262.553 161.707 261.46 159.985 260.821C159.653 261.883 159.778 262.28 159.778 262.28C159.778 262.28 161.663 263.079 165.285 262.827Z" fill="#F7CC7F"/>
<path d="M152.178 199.476C152.178 199.476 148.395 198.886 147.53 198.777C146.264 200.329 142.43 216.157 142.498 221.893C147.096 223.639 157.98 226.007 160.987 225.896C160.987 225.896 159.857 221.817 159.543 219.91C158.783 215.25 158.17 209.444 158.17 207.849C158.17 206.913 162.761 210.16 162.761 210.16L164.685 202.815C164.685 202.815 158.823 200.328 156.769 199.88C156.194 199.756 152.178 199.476 152.178 199.476Z" fill="#F7CC7F"/>
<path d="M150.662 196.354C150.662 196.354 151.196 199.756 150.063 200.677C148.866 201.648 154.4 201.381 154.787 199.775C154.998 198.908 154.242 195.079 154.242 195.079L150.662 196.354Z" fill="#F7A491"/>
<path d="M154.505 195.079L151.126 196.094C151.206 196.567 151.246 197.042 151.246 197.518C152.071 197.607 153.016 197.477 154.026 197.038C154.307 196.916 154.575 196.777 154.824 196.622C154.674 195.802 154.505 195.079 154.505 195.079Z" fill="#F48C7F"/>
<path d="M156.201 193.557C155.882 194.218 156.111 194.884 156.712 195.044C157.313 195.205 158.06 194.798 158.378 194.137C158.697 193.476 158.468 192.809 157.867 192.649C157.266 192.488 156.522 192.895 156.201 193.557Z" fill="#F7A491"/>
<path d="M147.43 191.342C147.406 192.021 147.662 192.591 148.001 192.613C148.34 192.636 148.635 192.1 148.659 191.42C148.683 190.741 148.427 190.171 148.088 190.149C147.749 190.128 147.453 190.656 147.43 191.342Z" fill="#F7A491"/>
<path d="M153.933 185.277C155.024 185.665 155.955 186.475 156.56 187.561C157.531 189.358 158.069 194.559 154.597 196.825C151.124 199.091 148.597 195.575 148.662 192.25C148.727 188.924 150.055 184.667 153.933 185.277Z" fill="#F7A491"/>
<path d="M174.702 200.632C174.807 200.17 175.23 200.202 174.851 199.324C174.994 199.481 174.782 199.125 174.851 199.324" fill="#F48C7F"/>
<path d="M137.598 179.144C137.853 178.609 137.969 177.972 137.928 177.336C137.906 176.927 137.317 175.7 137.21 175.473C137.129 175.355 136.753 175.959 136.95 176.589C137.148 177.219 137.129 177.493 136.704 177.924C136.91 179.369 137.598 179.144 137.598 179.144Z" fill="#F7A491"/>
<path d="M63.3185 194.642C64.5926 193.195 67.2683 187.173 68.1793 185.463C68.3194 185.134 68.3704 183.935 68.801 182.833C69.219 181.763 70.3147 180.235 70.8613 180.693C71.4079 181.15 69.7286 182.393 70.237 182.339C71.19 182.239 72.6935 178.673 73.1891 179.088C73.6847 179.502 71.6245 182.721 72.0717 182.623C72.5189 182.525 73.951 179.935 74.4492 180.395C74.8493 180.765 72.5533 183.373 72.9687 183.626C73.2401 183.792 74.9015 181.647 75.2544 181.944C75.8163 182.416 73.3993 184.437 73.5153 184.691C73.6796 185.051 75.4188 183.744 75.536 184.36C75.6239 184.823 71.1391 187.338 70.7033 188.281C69.8751 190.822 68.4214 195.47 66.4987 197.815C64.148 200.684 57.385 208.638 57.385 208.638L54.5819 203.045C54.5819 203.045 61.8087 196.358 63.3185 194.642Z" fill="#966259"/>
<path d="M37.147 214.039C36.1089 215.552 31.2576 219.327 29.9078 220.539C29.7507 220.555 28.842 220.683 27.6782 221.659C26.8563 222.349 24.9924 222.89 25.514 223.33C26.0356 223.769 27.5249 222.64 27.5249 223.143C27.5249 223.647 24.5764 226.196 25.049 226.59C25.5215 226.983 28.1508 224.404 28.1533 224.853C28.1558 225.302 25.5014 227.408 26.1688 227.965C26.8361 228.522 29.0594 225.217 29.4214 225.523C29.7834 225.829 28.3217 227.871 28.8596 228.32C29.3975 228.768 30.7159 225.433 30.7184 225.698C30.7209 225.962 30.6443 227.883 31.0263 227.883C31.4599 227.892 32.1901 223.025 32.9467 222.418C35.0619 221.115 39.0284 218.871 40.6359 216.48C42.2697 214.044 44.0016 211.439 44.7921 209.099C46.2425 204.81 45.9232 201.387 45.9232 201.387C45.9232 201.387 44.3057 200.37 42.7159 203.734C41.3221 206.693 38.3774 212.25 37.147 214.039Z" fill="#966259"/>
<path d="M70.6066 182.752C71.3747 183.29 71.803 183.929 71.837 184.587C71.8711 185.245 71.5095 185.894 70.798 186.45C71.2949 185.546 71.836 184.541 70.6066 182.752Z" fill="#6B4744"/>
<path opacity="0.85" d="M40.4005 252.519C40.4005 252.519 39.9454 256.469 39.2052 258.186C38.4651 259.902 36.0258 260.996 33.881 261.424C31.7361 261.851 32.4493 262.183 32.764 262.503C33.0787 262.823 43.0807 263.173 44.7204 262.876C44.7204 262.876 43.3868 259.494 43.3868 258.994C43.3868 258.493 45.953 250.549 45.953 250.549L40.4005 252.519Z" fill="#966259"/>
<path d="M44.7204 262.876C44.7204 262.876 44.7204 261.643 44.104 261.027C42.2666 261.317 38.4062 260.699 36.3006 260.411C35.6563 260.698 34.8738 260.784 34.2268 260.933C32.0313 261.445 32.1958 262.124 32.7461 262.598C33.118 262.913 43.042 263.235 44.7204 262.876Z" fill="#13375B"/>
<path opacity="0.85" d="M58.0868 251.791C58.0868 251.791 57.8325 256.537 58.3604 258.238C58.9074 259.992 59.6802 260.294 61.8137 260.866C63.909 261.427 63.113 262.326 62.7943 262.633C62.4757 262.94 55.1477 262.96 53.486 262.67C53.486 262.67 54.1247 259.506 54.1247 259.017C54.1247 258.528 53.3492 250.549 53.3492 250.549L58.0868 251.791Z" fill="#966259"/>
<path d="M53.3492 262.622C53.3492 262.622 53.4893 261.833 53.6294 260.912C55.4894 261.199 59.7459 260.697 61.8776 260.411C62.5497 260.58 63.2124 260.796 63.8623 261.057C65.9926 261.954 65.8021 262.189 65.4758 262.573C65.1494 262.958 55.0496 262.978 53.3492 262.622Z" fill="#13375B"/>
<path d="M38.557 252.984C38.557 252.984 43.264 254.247 48.604 254.247C53.944 254.247 64.4431 251.543 64.4431 251.543C64.4431 251.543 61.547 244.567 60.5511 239.213C59.5552 233.859 58.8318 224.663 58.8318 224.663H42.8985L41.9026 231.033L38.557 252.984Z" fill="#466EB6"/>
<path d="M45.063 200.816C45.063 200.816 43.9933 202.043 43.9933 205.847C43.9933 209.651 43.8073 215.359 43.4964 217.323C43.1854 219.286 42.2552 224.165 42.2552 224.165C42.2552 224.165 44.986 226.398 52.0633 225.791C59.1406 225.185 59.5126 224.236 59.5126 224.236C59.5126 224.236 58.5187 208.425 58.5187 206.765C58.5187 205.105 56.9998 200.315 56.9998 200.315C56.9998 200.315 52.9111 199.897 51.0494 200.039C49.1877 200.181 45.063 200.816 45.063 200.816Z" fill="#F7CC7F"/>
<path d="M57.5261 189.011C57.5261 189.011 61.9952 193.352 57.5261 197.088C56.0189 198.347 54.4065 197.96 54.4065 197.96C54.4065 197.96 53.3983 200.472 48.6342 199.934C45.1798 199.543 45.1631 197.106 45.1631 197.106C45.1631 197.106 42.7567 197.728 40.9878 195.574C38.8636 192.983 39.673 189.599 42.5541 188.375C42.5541 188.375 41.1277 184.647 45.0041 183.144C48.098 181.944 50.3916 183.884 50.3916 183.884C50.3916 183.884 52.5196 181.663 55.7996 183.759C59.0526 185.842 57.5261 189.011 57.5261 189.011Z" fill="#13375B"/>
<path opacity="0.85" d="M49.0755 193.312C49.8166 193.926 49.8457 194.662 49.1429 194.957C48.44 195.252 47.2692 194.994 46.5281 194.38C45.787 193.766 45.7597 193.03 46.4625 192.735C47.1654 192.441 48.3362 192.699 49.0755 193.312Z" fill="#966259"/>
<path opacity="0.85" d="M53.1902 196.769L53.349 200.58C53.349 200.58 53.3949 202.063 52.1804 202.408C50.9658 202.754 49.7446 201.709 49.6518 200.508C49.6395 200.357 49.8386 195.079 49.8386 195.079L53.1902 196.769Z" fill="#966259"/>
<path d="M35.7311 290.228L42.3634 260.133L81.186 268.69L35.7311 290.228Z" fill="#AEC3FF"/>
<path d="M43.4051 280.443L46.4026 266.843L63.9465 270.71L43.4051 280.443Z" fill="#BC4C99"/>
<path d="M44.7822 261.226L44.6097 261.188L44.1251 263.387L44.2976 263.425L44.7822 261.226Z" fill="#060633"/>
<path d="M45.7954 261.45L45.6229 261.412L45.3379 262.705L45.5104 262.743L45.7954 261.45Z" fill="#060633"/>
<path d="M46.6455 261.637L46.473 261.599L46.188 262.892L46.3605 262.93L46.6455 261.637Z" fill="#060633"/>
<path d="M47.4539 261.815L47.2814 261.777L46.9963 263.07L47.1688 263.108L47.4539 261.815Z" fill="#060633"/>
<path d="M48.2009 261.979L48.0284 261.941L47.7434 263.234L47.9159 263.272L48.2009 261.979Z" fill="#060633"/>
<path d="M49.0269 262.165L48.8544 262.127L48.5694 263.42L48.7419 263.458L49.0269 262.165Z" fill="#060633"/>
<path d="M49.8672 262.348L49.6947 262.31L49.2103 264.508L49.3828 264.546L49.8672 262.348Z" fill="#060633"/>
<path d="M50.8794 262.57L50.7069 262.532L50.4217 263.825L50.5941 263.863L50.8794 262.57Z" fill="#060633"/>
<path d="M51.7252 262.759L51.5527 262.721L51.2677 264.014L51.4402 264.052L51.7252 262.759Z" fill="#060633"/>
<path d="M52.5293 262.939L52.3568 262.901L52.0725 264.194L52.245 264.232L52.5293 262.939Z" fill="#060633"/>
<path d="M53.2793 263.104L53.1068 263.066L52.8216 264.359L52.994 264.397L53.2793 263.104Z" fill="#060633"/>
<path d="M54.119 263.285L53.9465 263.247L53.6615 264.54L53.834 264.578L54.119 263.285Z" fill="#060633"/>
<path d="M55.2639 263.541L55.0914 263.503L54.6082 265.701L54.7807 265.739L55.2639 263.541Z" fill="#060633"/>
<path d="M56.2872 263.761L56.1147 263.723L55.8298 265.016L56.0022 265.054L56.2872 263.761Z" fill="#060633"/>
<path d="M57.1149 263.956L56.9424 263.918L56.6571 265.211L56.8296 265.249L57.1149 263.956Z" fill="#060633"/>
<path d="M57.9459 264.128L57.7734 264.09L57.4884 265.383L57.6609 265.421L57.9459 264.128Z" fill="#060633"/>
<path d="M58.6932 264.292L58.5208 264.254L58.2357 265.548L58.4082 265.586L58.6932 264.292Z" fill="#060633"/>
<path d="M59.5167 264.479L59.3442 264.441L59.0599 265.734L59.2324 265.772L59.5167 264.479Z" fill="#060633"/>
<path d="M60.3594 264.659L60.1869 264.621L59.7022 266.82L59.8747 266.858L60.3594 264.659Z" fill="#060633"/>
<path d="M61.3724 264.883L61.2 264.845L60.915 266.138L61.0874 266.176L61.3724 264.883Z" fill="#060633"/>
<path d="M62.2179 265.072L62.0454 265.034L61.7604 266.327L61.9329 266.365L62.2179 265.072Z" fill="#060633"/>
<path d="M63.0359 265.247L62.8634 265.209L62.5784 266.502L62.7508 266.54L63.0359 265.247Z" fill="#060633"/>
<path d="M63.7718 265.415L63.5994 265.377L63.3141 266.67L63.4866 266.708L63.7718 265.415Z" fill="#060633"/>
<path d="M64.6117 265.597L64.4392 265.559L64.1542 266.852L64.3267 266.89L64.6117 265.597Z" fill="#060633"/>
<path d="M65.6506 265.837L65.4781 265.799L64.9934 267.997L65.1658 268.035L65.6506 265.837Z" fill="#060633"/>
<path d="M66.6852 266.053L66.5127 266.015L66.2277 267.308L66.4002 267.346L66.6852 266.053Z" fill="#060633"/>
<path d="M67.5361 266.241L67.3636 266.203L67.0787 267.496L67.2511 267.534L67.5361 266.241Z" fill="#060633"/>
<path d="M68.3505 266.417L68.178 266.379L67.8937 267.672L68.0662 267.71L68.3505 266.417Z" fill="#060633"/>
<path d="M69.092 266.583L68.9196 266.545L68.6346 267.838L68.807 267.876L69.092 266.583Z" fill="#060633"/>
<path d="M69.9188 266.77L69.7463 266.732L69.4613 268.025L69.6338 268.063L69.9188 266.77Z" fill="#060633"/>
<path d="M70.7584 266.952L70.5859 266.914L70.1015 269.112L70.274 269.15L70.7584 266.952Z" fill="#060633"/>
<path d="M71.7712 267.173L71.5988 267.135L71.3137 268.428L71.4862 268.466L71.7712 267.173Z" fill="#060633"/>
<path d="M72.6172 267.364L72.4447 267.326L72.1597 268.619L72.3322 268.657L72.6172 267.364Z" fill="#060633"/>
<path d="M73.4257 267.542L73.2532 267.504L72.9681 268.797L73.1406 268.835L73.4257 267.542Z" fill="#060633"/>
<path d="M74.1771 267.705L74.0046 267.667L73.7203 268.96L73.8928 268.998L74.1771 267.705Z" fill="#060633"/>
<path d="M75.0104 267.888L74.8379 267.85L74.5529 269.143L74.7254 269.181L75.0104 267.888Z" fill="#060633"/>
<path d="M76.1647 268.141L75.9922 268.103L75.5078 270.301L75.6802 270.339L76.1647 268.141Z" fill="#060633"/>
<path opacity="0.85" d="M49.6944 195.079L53.2882 197.098L53.3493 198.718C52.7311 198.808 51.8099 198.865 51.0337 198.355C50.3808 197.925 49.9915 197.32 49.6512 196.46C49.6692 195.652 49.6944 195.079 49.6944 195.079Z" fill="#6B4744"/>
<path d="M49.5117 185.75C48.4506 186.488 47.6824 187.578 47.3418 188.827C46.7873 190.903 47.5828 196.194 51.8403 197.349C56.0979 198.503 57.5543 194.313 56.8961 190.981C56.1181 187.036 53.4408 183.933 49.5117 185.75Z" fill="#966259"/>
<path d="M126.623 110.476L120.387 110.28L120.559 105.487L126.795 105.683L127.02 99.4309L131.913 99.5845L131.688 105.837L137.924 106.032L137.752 110.824L131.516 110.628L131.291 116.881L126.399 116.727L126.623 110.476Z" fill="#505ABA"/>
<path d="M54.3862 58H49.7134V45.4316C49.7134 44.0742 49.772 42.5752 49.8892 40.9346H49.772C49.5278 42.2236 49.3081 43.1514 49.1128 43.7178L44.1909 58H40.3237L35.314 43.8643C35.1772 43.4834 34.9575 42.5068 34.6548 40.9346H34.5229C34.6499 43.0049 34.7134 44.8213 34.7134 46.3838V58H30.4507V36.9941H37.3794L41.6714 49.4453C42.0132 50.4414 42.2622 51.4424 42.4185 52.4482H42.5063C42.77 51.2861 43.0483 50.2754 43.3413 49.416L47.6333 36.9941H54.3862V58ZM71.788 58H67.4081V55.8467H67.3495C66.3437 57.5264 64.8544 58.3662 62.8817 58.3662C61.4267 58.3662 60.2792 57.9561 59.4394 57.1357C58.6093 56.3057 58.1942 55.2021 58.1942 53.8252C58.1942 50.915 59.9179 49.2354 63.3651 48.7861L67.4374 48.2441C67.4374 46.6035 66.5487 45.7832 64.7714 45.7832C62.9843 45.7832 61.2851 46.3154 59.6737 47.3799V43.8936C60.3183 43.5615 61.1972 43.2686 62.3104 43.0146C63.4335 42.7607 64.454 42.6338 65.372 42.6338C69.6493 42.6338 71.788 44.7676 71.788 49.0352V58ZM67.4374 51.9062V50.8955L64.7128 51.2471C63.2089 51.4424 62.4569 52.1211 62.4569 53.2832C62.4569 53.8105 62.6376 54.2451 62.9989 54.5869C63.37 54.9189 63.8681 55.085 64.4931 55.085C65.3622 55.085 66.0702 54.7871 66.6171 54.1914C67.164 53.5859 67.4374 52.8242 67.4374 51.9062ZM90.7571 56.2861C90.7571 59.0693 89.9515 61.2227 88.3401 62.7461C86.7288 64.2793 84.3948 65.0459 81.3382 65.0459C79.3167 65.0459 77.7151 64.7578 76.5335 64.1816V60.2852C78.0765 61.1836 79.6341 61.6328 81.2063 61.6328C82.7688 61.6328 83.9798 61.2178 84.8392 60.3877C85.6985 59.5674 86.1282 58.4492 86.1282 57.0332V55.8467H86.0696C85.0149 57.5264 83.4573 58.3662 81.3968 58.3662C79.4827 58.3662 77.9642 57.6924 76.8411 56.3447C75.7181 54.9971 75.1565 53.1904 75.1565 50.9248C75.1565 48.3857 75.7815 46.3691 77.0315 44.875C78.2815 43.3809 79.9271 42.6338 81.9681 42.6338C83.7942 42.6338 85.1614 43.3369 86.0696 44.7432H86.1282V43H90.7571V56.2861ZM86.1868 50.793V49.6064C86.1868 48.6592 85.9036 47.8535 85.3372 47.1895C84.7806 46.5156 84.053 46.1787 83.1546 46.1787C82.1292 46.1787 81.3235 46.5791 80.7376 47.3799C80.1517 48.1807 79.8587 49.3086 79.8587 50.7637C79.8587 52.0137 80.137 53.0049 80.6937 53.7373C81.2503 54.46 82.012 54.8213 82.9788 54.8213C83.9358 54.8213 84.7073 54.4551 85.2933 53.7227C85.889 52.9805 86.1868 52.0039 86.1868 50.793ZM97.5681 40.627C96.7868 40.627 96.1472 40.3975 95.6491 39.9385C95.1511 39.4697 94.9021 38.8984 94.9021 38.2246C94.9021 37.5312 95.1511 36.9648 95.6491 36.5254C96.1472 36.0859 96.7868 35.8662 97.5681 35.8662C98.3591 35.8662 98.9987 36.0859 99.487 36.5254C99.9851 36.9648 100.234 37.5312 100.234 38.2246C100.234 38.9277 99.9851 39.5039 99.487 39.9531C98.9987 40.4023 98.3591 40.627 97.5681 40.627ZM99.8532 58H95.2243V43H99.8532V58ZM115.717 57.458C114.672 58.0635 113.163 58.3662 111.191 58.3662C108.886 58.3662 107.021 57.668 105.595 56.2715C104.169 54.875 103.456 53.0732 103.456 50.8662C103.456 48.3174 104.218 46.3105 105.741 44.8457C107.275 43.3711 109.32 42.6338 111.879 42.6338C113.647 42.6338 114.926 42.8682 115.717 43.3369V47.2627C114.75 46.54 113.671 46.1787 112.48 46.1787C111.151 46.1787 110.097 46.5693 109.316 47.3506C108.544 48.1221 108.158 49.1914 108.158 50.5586C108.158 51.8867 108.529 52.9316 109.272 53.6934C110.014 54.4453 111.034 54.8213 112.333 54.8213C113.485 54.8213 114.613 54.46 115.717 53.7373V57.458ZM152.644 58H147.972V45.4316C147.972 44.0742 148.03 42.5752 148.147 40.9346H148.03C147.786 42.2236 147.566 43.1514 147.371 43.7178L142.449 58H138.582L133.572 43.8643C133.435 43.4834 133.216 42.5068 132.913 40.9346H132.781C132.908 43.0049 132.972 44.8213 132.972 46.3838V58H128.709V36.9941H135.638L139.93 49.4453C140.271 50.4414 140.52 51.4424 140.677 52.4482H140.765C141.028 51.2861 141.307 50.2754 141.6 49.416L145.892 36.9941H152.644V58ZM170.046 58H165.666V55.8467H165.608C164.602 57.5264 163.113 58.3662 161.14 58.3662C159.685 58.3662 158.537 57.9561 157.698 57.1357C156.867 56.3057 156.452 55.2021 156.452 53.8252C156.452 50.915 158.176 49.2354 161.623 48.7861L165.696 48.2441C165.696 46.6035 164.807 45.7832 163.03 45.7832C161.242 45.7832 159.543 46.3154 157.932 47.3799V43.8936C158.576 43.5615 159.455 43.2686 160.569 43.0146C161.692 42.7607 162.712 42.6338 163.63 42.6338C167.908 42.6338 170.046 44.7676 170.046 49.0352V58ZM165.696 51.9062V50.8955L162.971 51.2471C161.467 51.4424 160.715 52.1211 160.715 53.2832C160.715 53.8105 160.896 54.2451 161.257 54.5869C161.628 54.9189 162.126 55.085 162.751 55.085C163.62 55.085 164.328 54.7871 164.875 54.1914C165.422 53.5859 165.696 52.8242 165.696 51.9062ZM183.376 57.8242C182.692 58.1855 181.662 58.3662 180.285 58.3662C177.023 58.3662 175.392 56.6719 175.392 53.2832V46.4131H172.961V43H175.392V39.7627L180.007 38.4443V43H183.376V46.4131H180.007V52.4775C180.007 54.04 180.627 54.8213 181.867 54.8213C182.355 54.8213 182.858 54.6797 183.376 54.3965V57.8242ZM200.997 58H196.383V49.4746C196.383 47.2773 195.582 46.1787 193.981 46.1787C193.16 46.1787 192.496 46.4863 191.988 47.1016C191.481 47.7168 191.227 48.498 191.227 49.4453V58H186.598V35.793H191.227V45.2266H191.285C192.418 43.498 193.956 42.6338 195.9 42.6338C199.298 42.6338 200.997 44.6846 200.997 48.7861V58ZM204.292 57.6045V53.8545C205.054 54.3135 205.811 54.6553 206.563 54.8799C207.325 55.1045 208.042 55.2168 208.716 55.2168C209.537 55.2168 210.181 55.1045 210.65 54.8799C211.128 54.6553 211.368 54.3135 211.368 53.8545C211.368 53.5615 211.26 53.3174 211.045 53.1221C210.831 52.9268 210.552 52.7559 210.21 52.6094C209.878 52.4629 209.512 52.3311 209.112 52.2139C208.711 52.0967 208.326 51.9648 207.955 51.8184C207.359 51.5938 206.832 51.3545 206.373 51.1006C205.923 50.8369 205.542 50.5342 205.23 50.1924C204.927 49.8506 204.693 49.4551 204.527 49.0059C204.371 48.5566 204.292 48.0244 204.292 47.4092C204.292 46.5693 204.473 45.8467 204.834 45.2412C205.206 44.6357 205.694 44.1426 206.299 43.7617C206.915 43.3711 207.613 43.0879 208.394 42.9121C209.185 42.7266 210.005 42.6338 210.855 42.6338C211.519 42.6338 212.193 42.6875 212.876 42.7949C213.56 42.8926 214.234 43.0391 214.898 43.2344V46.8086C214.312 46.4668 213.682 46.2129 213.008 46.0469C212.344 45.8711 211.69 45.7832 211.045 45.7832C210.743 45.7832 210.455 45.8125 210.181 45.8711C209.917 45.9199 209.683 45.998 209.478 46.1055C209.273 46.2031 209.112 46.335 208.995 46.501C208.877 46.6572 208.819 46.8379 208.819 47.043C208.819 47.3164 208.907 47.5508 209.083 47.7461C209.258 47.9414 209.488 48.1123 209.771 48.2588C210.054 48.3955 210.367 48.5225 210.708 48.6396C211.06 48.7471 211.407 48.8594 211.749 48.9766C212.364 49.1914 212.92 49.4258 213.418 49.6797C213.917 49.9336 214.341 50.2314 214.693 50.5732C215.054 50.915 215.328 51.3154 215.513 51.7744C215.708 52.2334 215.806 52.7803 215.806 53.415C215.806 54.3037 215.611 55.0654 215.22 55.7002C214.839 56.3252 214.327 56.8379 213.682 57.2383C213.047 57.6289 212.31 57.9121 211.47 58.0879C210.64 58.2734 209.776 58.3662 208.877 58.3662C207.227 58.3662 205.699 58.1123 204.292 57.6045Z" fill="#9F337E"/>
<defs>
<filter id="filter0_f" x="0" y="0" width="245" height="345" filterUnits="userSpaceOnUse" color-interpolation-filters="sRGB">
<feFlood flood-opacity="0" result="BackgroundImageFix"/>
<feBlend mode="normal" in="SourceGraphic" in2="BackgroundImageFix" result="shape"/>
<feGaussianBlur stdDeviation="12.5" result="effect1_foregroundBlur"/>
</filter>
<filter id="filter1_i" x="24.5791" y="10" width="196" height="297" filterUnits="userSpaceOnUse" color-interpolation-filters="sRGB">
<feFlood flood-opacity="0" result="BackgroundImageFix"/>
<feBlend mode="normal" in="SourceGraphic" in2="BackgroundImageFix" result="shape"/>
<feColorMatrix in="SourceAlpha" type="matrix" values="0 0 0 0 0 0 0 0 0 0 0 0 0 0 0 0 0 0 127 0" result="hardAlpha"/>
<feOffset/>
<feGaussianBlur stdDeviation="5"/>
<feComposite in2="hardAlpha" operator="arithmetic" k2="-1" k3="1"/>
<feColorMatrix type="matrix" values="0 0 0 0 0 0 0 0 0 0 0 0 0 0 0 0 0 0 0.25 0"/>
<feBlend mode="normal" in2="shape" result="effect1_innerShadow"/>
</filter>
<linearGradient id="paint0_linear" x1="122.079" y1="217.981" x2="122.079" y2="307" gradientUnits="userSpaceOnUse">
<stop stop-color="#F47BCB"/>
<stop offset="1" stop-color="#8D246E"/>
</linearGradient>
</defs>
</svg>
