<svg width="245" height="345" viewBox="0 0 245 345" fill="none" xmlns="http://www.w3.org/2000/svg">
<g filter="url(#filter0_f)">
<rect x="25" y="25" width="195" height="295" fill="black" fill-opacity="0.24"/>
</g>
<g filter="url(#filter1_i)">
<rect x="25" y="14" width="196" height="297" rx="5" fill="white"/>
</g>
<mask id="mask0" mask-type="alpha" maskUnits="userSpaceOnUse" x="25" y="14" width="196" height="297">
<rect x="25" y="14" width="196" height="297" rx="5" fill="white"/>
</mask>
<g mask="url(#mask0)">
<g filter="url(#filter2_i)">
<path d="M140.087 210C106.717 210 49.4581 235 25 247.5V311H221V229.5C207.933 223 173.457 210 140.087 210Z" fill="#7FB061"/>
</g>
<path opacity="0.85" d="M161.495 443.304C164.18 360.895 160.413 332.755 160.413 332.755L122.32 308.751L83.3747 332.755C83.3747 332.755 80.371 367.653 87.0019 444.475C87.0019 444.475 89.5474 520.546 89.6619 551.995C89.6619 551.995 107.238 556.704 116.975 551.575C116.975 551.575 116.122 468.529 115.867 455.191C115.664 444.538 118.095 396.315 120.322 373.902C120.371 373.521 120.556 373.171 120.845 372.917C121.133 372.664 121.503 372.524 121.887 372.524C122.271 372.524 122.642 372.664 122.93 372.917C123.218 373.171 123.404 373.521 123.453 373.902C125.693 396.315 131.471 444.538 131.267 455.191C131 468.529 136.524 551.575 136.524 551.575C146.26 556.666 163.353 551.995 163.353 551.995C163.429 520.546 161.495 443.304 161.495 443.304Z" fill="#28567A"/>
<g style="mix-blend-mode:multiply" opacity="0.85">
<path d="M83.3635 332.882V333.047C83.3635 333.124 83.3635 333.2 83.3635 333.302V333.569C83.3635 333.76 83.3635 333.976 83.3635 334.244V334.307V334.778V334.842C83.109 339.169 82.6126 350.229 82.9308 368.582C82.9308 370.186 82.9944 371.84 83.0326 373.558V373.889C83.0326 374.755 83.0326 375.646 83.1089 376.536C89.1035 377.084 103.829 377.809 111.516 375.187C116.734 373.406 122.398 368.913 128.202 372.718C137.836 379.082 150.767 377.453 162.502 375.264C162.12 344.527 160.542 332.704 160.542 332.704L122.322 308.751L83.3762 332.755V332.882H83.3635Z" fill="#28567A"/>
</g>
<path d="M105 224.038C107.176 225.133 109.378 226.189 111.631 227.131H111.707C114.431 228.022 117.18 228.874 119.967 229.549C125.134 228.48 130.289 227.347 135.558 226.571C137.391 225.502 139.224 224.407 140.98 223.211C141.158 223.033 141.336 222.867 141.476 222.714C144.022 220.004 146.274 217 148.782 214.238C151.289 211.476 153.873 209.02 156.24 206.258L156.405 205.927C156.545 205.66 156.685 205.393 156.813 205.113C151.722 204.731 146.987 204.196 143.78 202.885C133.904 198.864 133.904 179.493 133.904 179.493H112.025C112.025 179.493 112.025 198.864 102.162 202.885C98.8145 204.247 93.8126 204.769 88.5054 205.164C90.9236 208.804 93.1763 212.571 95.6199 216.529C96.2054 217.458 97.3508 218.896 98.0381 219.762L98.8654 220.474L99.1708 220.716L99.9599 221.225C101.614 222.193 103.269 223.173 105 224.038Z" fill="#F2AB88"/>
<path d="M145.002 213.334C143.462 211.922 141.705 209.898 139.605 209.274C138.447 208.931 137.264 208.6 136.055 208.294C132.085 209.194 128.033 209.681 123.964 209.745C119.034 209.658 114.133 208.978 109.365 207.722C108.093 208.829 106.922 209.974 105.649 211.018C103.662 212.461 101.762 214.02 99.96 215.689C107.965 237.58 125.262 277.213 125.86 279.325L145.702 213.933L145.002 213.334Z" fill="#394962"/>
<path d="M148.03 207.977L138.866 202.16L123.224 209.86L107.239 202.16L98.0881 207.977L114.799 229.575L123.059 217.217L131.306 229.575L148.03 207.977Z" fill="#BCADB4"/>
<path d="M166.038 292.969C169.78 256.925 181.311 214.913 179.504 211.018C176.157 204.044 158.835 206.385 147.686 203.802C145.433 204.973 143.282 205.953 141.208 206.793L124.853 260.515C124.306 258.605 104.489 213.424 103.484 205.787C102.135 205.176 100.76 204.515 99.3475 203.789C88.1602 206.335 67.5293 204.298 64.1821 211.273C62.1966 215.422 76.6166 253.095 80.4221 291.455C83.6548 323.935 76.3112 365.184 75.6366 368.544C75.6366 368.544 94.4857 373.011 108.409 367.055C114.391 364.509 118.273 356.618 123.058 327.205C123.058 327.205 126.469 362.956 137.822 367.615C147.406 371.535 170.595 368.544 170.595 368.544C169.869 364.891 162.398 328.147 166.038 292.969Z" fill="#17899C"/>
<path d="M149.671 221.874L155.92 220.411C155.92 218.985 155.857 207.976 155.793 204.998C152.507 204.828 149.236 204.428 146.006 203.802C143.893 204.896 141.908 207.976 139.96 208.753L125.515 263.671C125.006 261.889 105.635 215.014 104.642 207.824C103.369 207.264 102.364 205.278 101.04 204.527C97.7694 205.278 91.9403 204.922 87.7148 205.214C87.8167 207.276 89.1658 219.062 89.293 221.76L95.7839 223.287L91.2658 228.264C93.2003 232.234 124.968 276.042 124.968 276.042C125.782 274.769 151.58 234.818 154.686 226.774L149.671 221.874Z" fill="#17909C"/>
<path d="M140.647 202.16L154.609 204.527V218.986L145.7 220.844L152.394 227.373L124.853 273.675V260.515L140.647 202.16Z" fill="#2E96A6"/>
<path d="M103.063 202.16L89.4448 205.991L90.9848 220.373L100.034 221.277L94.0648 228.467L125.005 273.433V259.98L103.063 202.16Z" fill="#2E96A6"/>
<path d="M165.059 310.151C165.059 309.693 165.059 309.247 165.059 308.789C165.174 303.558 165.454 298.251 166.014 292.969C168.394 270.06 175.254 244.936 179.479 228.594C176.666 229.613 173.955 230.682 171.397 231.7C166.721 233.726 162.296 236.289 158.212 239.336C154.394 242.034 152.383 247.711 149.544 251.414C143.474 259.344 136.435 271.371 126.381 273.369C123.382 273.979 120.297 274.027 117.281 273.509C109.835 273.318 103.141 263.073 98.1899 257.358C97.6299 256.811 97.0826 256.251 96.5353 255.691C95.7148 254.84 95.0204 253.875 94.4735 252.827C92.4753 250.282 90.6553 247.736 88.8099 245.484C85.7044 241.665 82.5353 237.593 79.5444 234.347C78.0299 233.074 76.5408 231.878 75.1026 230.529C74.0023 229.616 72.8507 228.766 71.6535 227.984C70.9662 227.627 70.279 227.296 69.579 226.965L69.1717 226.864C68.3896 226.735 67.6278 226.504 66.9062 226.176C70.9153 241.449 77.9663 266.293 80.4608 291.404C81.0081 296.864 81.2499 302.565 81.2753 308.293V309.044C81.2753 310.724 81.2753 312.416 81.2753 314.134C80.7776 332.375 78.9228 350.553 75.7263 368.518C75.7263 368.518 77.1517 368.849 79.5444 369.218C81.4153 366.164 91.4953 344.973 88.0844 314.134C92.5008 313.918 94.2699 313.638 94.2699 313.638L96.179 319.556C115.947 320.639 135.774 319.645 155.335 316.591C155.794 323.991 156.983 331.328 158.886 338.494C161.292 347.696 163.748 359.545 169.17 368.696L170.71 368.518C167.195 350.659 165.338 332.513 165.161 314.313C165.034 312.925 165.046 311.538 165.059 310.151Z" fill="#52ACB5"/>
<path d="M122.029 200.645C131.905 200.645 136.373 197.425 137.658 196.662C133.967 189.535 133.955 179.48 133.955 179.48H112.025C112.025 179.48 112.025 190.285 107.915 197.425C108.576 197.705 115.945 200.645 122.029 200.645Z" fill="#DCB890"/>
<path d="M90.8831 157.703C94.4849 152.803 102.669 160.771 102.669 160.771C102.669 160.771 107.759 166.702 101.829 173.88C98.8758 177.469 95.4649 174.758 93.174 170.494C90.8831 166.231 88.2994 161.178 90.8831 157.703Z" fill="#F2AB88"/>
<path d="M96.0641 170.978C96.4201 171.423 96.881 171.772 97.4053 171.994C97.9296 172.216 98.5009 172.304 99.0678 172.251C99.3264 172.158 99.5481 171.984 99.6995 171.754C99.8509 171.525 99.924 171.253 99.9078 170.978C99.5641 169.922 96.1787 168.026 97.0314 165.073C97.8841 162.12 94.0787 159.218 92.895 160.86C91.9787 162.12 93.086 167.962 96.0641 170.978Z" fill="#DB7A5B"/>
<path d="M155.067 157.704C151.465 152.842 143.307 160.771 143.307 160.771C143.307 160.771 138.216 166.702 144.147 173.88C147.1 177.469 150.51 174.758 152.801 170.495C155.092 166.231 157.638 161.178 155.067 157.704Z" fill="#F2AB88"/>
<path d="M149.888 170.978C149.53 171.424 149.067 171.773 148.54 171.995C148.014 172.217 147.44 172.305 146.871 172.251C146.615 172.156 146.396 171.981 146.247 171.751C146.098 171.522 146.027 171.251 146.044 170.978C146.388 169.922 149.76 168.026 148.92 165.073C148.08 162.12 151.873 159.218 153.057 160.86C153.973 162.12 152.853 167.962 149.888 170.978Z" fill="#DB7A5B"/>
<path d="M149.671 134.515C148.959 130.518 146.235 127.133 142.773 124.333C137.182 119.835 130.222 117.383 123.046 117.383C115.87 117.383 108.91 119.835 103.319 124.333C99.8568 127.095 97.1205 130.48 96.4077 134.515C96.4077 134.515 94.715 165.951 102.542 177.991C108.626 187.333 116.262 192.398 123.033 192.398C129.804 192.398 137.44 187.307 143.511 177.991C151.377 165.951 149.671 134.515 149.671 134.515Z" fill="#F2AB88"/>
<path d="M99.1194 159.765C98.254 146.02 99.7431 135.8 100.532 134.591C104.538 131.367 107.675 127.193 109.658 122.449C109.658 122.449 120.959 127.934 138.854 125.745C138.854 125.745 142.176 130.429 145.218 135.253C146.681 137.582 147.305 151.009 146.91 159.727C146.875 160.355 146.978 160.983 147.214 161.566C147.449 162.149 147.81 162.673 148.272 163.1L148.858 163.634C151.072 159.167 153.249 140.369 152.141 134.145C148.985 116.633 136.321 114.774 123.709 114.774C118.449 114.803 113.261 115.989 108.512 118.249C107.545 117.969 106.069 117.625 106.094 117.434C99.3485 117.88 95.9122 127.476 93.9013 134.145C91.8903 140.814 94.9449 159.205 97.1467 163.634C97.7959 163.229 98.3225 162.655 98.6701 161.974C99.0176 161.292 99.173 160.529 99.1194 159.765V159.765Z" fill="#995235"/>
<path d="M106.398 124.409L108.282 125.274C108.786 124.358 109.241 123.415 109.644 122.449C109.644 122.449 120.946 127.934 138.84 125.745C138.84 125.745 141.653 129.716 144.453 134.12C146.896 133.385 149.217 132.291 151.338 130.874C147.253 116.391 135.429 114.774 123.657 114.774C118.397 114.803 113.209 115.989 108.46 118.249C107.493 117.969 106.017 117.625 106.042 117.434C104.018 117.625 102.136 118.559 100.76 120.056V120.145C102.262 122.007 104.198 123.472 106.398 124.409V124.409Z" fill="#995235"/>
<path d="M152.663 114.075C152.663 120.222 142.57 117.638 129.359 110.18C116.403 102.875 109.975 109.213 107.353 113.413C107.885 110.457 108.914 107.613 110.395 105C103.675 108.156 104.133 113.616 105.024 116.645C103.525 116.243 101.953 116.2 100.434 116.518C98.9149 116.837 97.4921 117.508 96.2808 118.478C96.2808 118.478 103.115 117.396 105.635 119.56C105.966 119.84 107.023 120.336 107.137 120.451C114.226 128.24 121.226 132.033 135.812 130.976C143.868 130.391 146.553 129.449 150.372 125.351C154.915 120.553 152.663 114.075 152.663 114.075Z" fill="#995235"/>
<path d="M135.811 131.027C143.447 130.467 146.222 129.615 149.722 126.089C144.166 126.354 138.729 124.42 134.589 120.706C134.462 122.716 135.467 125.389 138.14 128.482C131.752 127.616 125.708 125.068 120.627 121.1C121.709 123.251 122.791 126.802 123.873 127.871C120.538 127.871 111.68 124.053 109.694 123.111C116.007 129.118 122.943 131.956 135.811 131.027Z" fill="#995235"/>
<path d="M139.49 154.764C139.554 155.898 139.275 157.026 138.691 158.001C138.107 158.975 137.243 159.752 136.213 160.231C135.182 160.709 134.031 160.867 132.91 160.684C131.788 160.502 130.747 159.986 129.922 159.205C129.096 158.424 128.524 157.414 128.279 156.304C128.035 155.194 128.129 154.037 128.549 152.981C128.97 151.925 129.698 151.02 130.639 150.383C131.58 149.745 132.69 149.405 133.826 149.406C135.287 149.368 136.703 149.911 137.765 150.915C138.826 151.919 139.447 153.303 139.49 154.764V154.764Z" fill="#FDFAEE"/>
<path d="M135.9 158.633C134.917 158.843 133.915 158.954 132.909 158.964C132.101 158.968 131.302 158.794 130.569 158.453C129.836 158.112 129.188 157.612 128.671 156.991C129.163 157.95 129.914 158.753 130.838 159.309C131.762 159.864 132.823 160.151 133.901 160.137C134.979 160.122 136.031 159.807 136.94 159.226C137.849 158.646 138.577 157.823 139.044 156.851C138.169 157.709 137.086 158.324 135.9 158.633V158.633Z" fill="#E78660"/>
<path d="M137.149 155.044C137.159 155.703 136.973 156.35 136.614 156.903C136.255 157.456 135.74 157.889 135.134 158.149C134.528 158.408 133.858 158.481 133.211 158.359C132.563 158.236 131.966 157.924 131.497 157.461C131.027 156.999 130.705 156.407 130.573 155.762C130.441 155.116 130.503 154.445 130.753 153.835C131.003 153.225 131.429 152.704 131.976 152.336C132.523 151.969 133.168 151.773 133.827 151.773C134.7 151.769 135.539 152.111 136.161 152.724C136.784 153.337 137.139 154.17 137.149 155.044V155.044Z" fill="#633837"/>
<path d="M135.837 155.044C135.845 155.446 135.732 155.841 135.514 156.179C135.296 156.517 134.982 156.783 134.612 156.941C134.242 157.1 133.834 157.145 133.438 157.07C133.043 156.995 132.679 156.804 132.392 156.522C132.106 156.239 131.91 155.877 131.831 155.483C131.751 155.089 131.791 154.679 131.944 154.308C132.098 153.936 132.36 153.618 132.695 153.396C133.03 153.173 133.424 153.056 133.827 153.058C134.089 153.056 134.349 153.106 134.592 153.205C134.835 153.304 135.056 153.45 135.243 153.634C135.43 153.819 135.579 154.038 135.68 154.28C135.782 154.522 135.836 154.781 135.837 155.044V155.044Z" fill="#321413"/>
<path d="M130.097 153.147C131.404 152.727 132.773 152.537 134.145 152.587C136.075 152.705 137.931 153.376 139.49 154.522C139.35 151.671 138.217 148.54 133.877 148.247C129.537 147.955 128.481 151.518 128.201 154.216C128.741 153.717 129.39 153.351 130.097 153.147V153.147Z" fill="#E78660"/>
<path d="M106.081 154.764C106.018 155.898 106.296 157.026 106.88 158.001C107.465 158.975 108.328 159.752 109.359 160.231C110.39 160.709 111.54 160.867 112.662 160.684C113.784 160.502 114.824 159.986 115.65 159.205C116.475 158.424 117.048 157.414 117.292 156.304C117.537 155.194 117.443 154.037 117.022 152.981C116.601 151.925 115.874 151.02 114.933 150.383C113.992 149.745 112.881 149.405 111.745 149.406C110.284 149.368 108.868 149.911 107.807 150.915C106.745 151.919 106.125 153.303 106.081 154.764V154.764Z" fill="#FDFAEE"/>
<path d="M109.669 158.633C110.652 158.843 111.654 158.954 112.66 158.964C113.468 158.967 114.267 158.793 114.999 158.452C115.732 158.11 116.38 157.612 116.898 156.991C116.403 157.95 115.651 158.752 114.727 159.307C113.802 159.862 112.74 160.148 111.662 160.133C110.583 160.119 109.53 159.804 108.621 159.224C107.711 158.645 106.981 157.823 106.512 156.851C107.393 157.708 108.481 158.321 109.669 158.633V158.633Z" fill="#E78660"/>
<path d="M108.422 155.044C108.412 155.703 108.598 156.35 108.957 156.903C109.315 157.456 109.831 157.889 110.437 158.149C111.043 158.408 111.712 158.481 112.36 158.359C113.008 158.236 113.604 157.924 114.074 157.461C114.544 156.999 114.865 156.407 114.997 155.762C115.13 155.116 115.067 154.445 114.817 153.835C114.567 153.225 114.142 152.704 113.594 152.336C113.047 151.969 112.403 151.773 111.744 151.773C110.87 151.769 110.031 152.111 109.409 152.724C108.787 153.337 108.432 154.17 108.422 155.044Z" fill="#633837"/>
<path d="M109.72 155.044C109.712 155.445 109.824 155.84 110.042 156.178C110.26 156.516 110.573 156.781 110.942 156.94C111.311 157.099 111.719 157.145 112.114 157.071C112.509 156.997 112.873 156.808 113.16 156.526C113.447 156.245 113.644 155.884 113.725 155.491C113.806 155.097 113.768 154.688 113.616 154.316C113.464 153.944 113.205 153.626 112.871 153.402C112.538 153.178 112.145 153.058 111.743 153.058C111.212 153.055 110.701 153.262 110.322 153.634C109.943 154.006 109.726 154.512 109.72 155.044Z" fill="#321413"/>
<path d="M115.473 153.147C114.187 152.735 112.84 152.545 111.49 152.587C109.563 152.707 107.712 153.379 106.157 154.522C106.284 151.671 107.43 148.54 111.77 148.247C116.11 147.955 117.153 151.518 117.446 154.216C116.883 153.709 116.206 153.342 115.473 153.147V153.147Z" fill="#E78660"/>
<path d="M122.117 170.953C121.321 170.951 120.532 170.805 119.788 170.52C119.257 170.362 118.776 170.07 118.392 169.67C118.008 169.271 117.735 168.779 117.599 168.242C117.357 166.842 121.672 147.865 121.672 147.751C121.657 147.68 121.657 147.608 121.67 147.537C121.684 147.467 121.712 147.4 121.753 147.341C121.793 147.281 121.845 147.231 121.906 147.192C121.966 147.153 122.034 147.127 122.104 147.114C122.175 147.1 122.247 147.099 122.318 147.113C122.388 147.127 122.455 147.155 122.514 147.196C122.574 147.236 122.625 147.288 122.663 147.348C122.702 147.409 122.729 147.476 122.741 147.547C122.804 147.903 118.515 167.122 118.668 168.025C118.776 168.372 118.971 168.686 119.234 168.938C119.496 169.189 119.818 169.37 120.17 169.463C120.774 169.736 121.433 169.865 122.095 169.841C122.758 169.816 123.405 169.639 123.988 169.323C124.107 169.237 124.254 169.201 124.4 169.222C124.545 169.243 124.676 169.321 124.764 169.438C124.85 169.555 124.886 169.7 124.865 169.843C124.843 169.987 124.766 170.115 124.65 170.202C123.909 170.72 123.02 170.983 122.117 170.953V170.953Z" fill="#CE7959"/>
<path d="M128.034 138.969C128.034 138.969 135.671 138.511 137.593 139.3C139.514 140.089 143.409 143.246 143.154 144.391C142.9 145.536 136.714 142.775 135.964 142.915C135.213 143.055 127.907 143.424 127.322 142.393C126.736 141.362 126.762 138.982 128.034 138.969Z" fill="#884627"/>
<path d="M117.6 139.147C117.6 139.147 109.964 138.435 108.042 139.147C106.12 139.86 102.149 142.966 102.378 144.098C102.607 145.231 108.831 142.711 109.595 142.826C110.358 142.94 117.638 143.602 118.236 142.596C118.835 141.591 118.898 139.211 117.6 139.147Z" fill="#884627"/>
<path d="M113.882 154.267C113.882 154.398 113.843 154.526 113.77 154.635C113.697 154.744 113.594 154.829 113.473 154.879C113.352 154.929 113.219 154.942 113.091 154.917C112.962 154.891 112.844 154.828 112.752 154.735C112.659 154.643 112.596 154.525 112.571 154.397C112.545 154.268 112.558 154.135 112.608 154.014C112.658 153.893 112.743 153.79 112.852 153.717C112.961 153.644 113.089 153.606 113.22 153.606C113.307 153.604 113.394 153.62 113.475 153.652C113.556 153.685 113.63 153.734 113.692 153.796C113.753 153.857 113.802 153.931 113.835 154.012C113.867 154.093 113.883 154.18 113.882 154.267V154.267Z" fill="#FDFAEE"/>
<path d="M135.06 154.916C135.418 154.916 135.709 154.626 135.709 154.267C135.709 153.909 135.418 153.618 135.06 153.618C134.701 153.618 134.411 153.909 134.411 154.267C134.411 154.626 134.701 154.916 135.06 154.916Z" fill="#FDFAEE"/>
<path d="M134.145 172.62C133.534 172.62 133.292 171.767 133.292 171.754C133.255 171.613 133.163 171.491 133.036 171.417C132.91 171.343 132.759 171.323 132.617 171.36C132.476 171.397 132.354 171.489 132.28 171.615C132.206 171.742 132.186 171.893 132.223 172.034C132.294 172.276 132.397 172.507 132.528 172.722C122.97 180.269 113.641 173.74 112.228 172.658C112.342 172.462 112.432 172.252 112.495 172.034C112.531 171.896 112.51 171.749 112.439 171.626C112.368 171.502 112.251 171.411 112.114 171.373C112.044 171.351 111.971 171.345 111.899 171.353C111.827 171.36 111.758 171.383 111.694 171.419C111.631 171.454 111.576 171.503 111.532 171.56C111.488 171.618 111.457 171.684 111.439 171.754C111.439 171.754 111.197 172.569 110.574 172.62C110.502 172.626 110.432 172.647 110.368 172.68C110.304 172.714 110.247 172.76 110.201 172.815C110.155 172.871 110.12 172.935 110.099 173.004C110.078 173.073 110.07 173.146 110.077 173.218C110.09 173.354 110.153 173.481 110.255 173.572C110.356 173.664 110.488 173.715 110.625 173.714C110.903 173.688 111.172 173.601 111.414 173.46C114.723 175.884 118.692 177.242 122.792 177.354C126.622 177.343 130.328 175.993 133.266 173.536C133.487 173.667 133.736 173.745 133.992 173.765V173.765C134.129 173.766 134.261 173.715 134.362 173.623C134.463 173.532 134.526 173.405 134.539 173.269C134.57 173.131 134.546 172.986 134.473 172.865C134.399 172.744 134.282 172.656 134.145 172.62Z" fill="#CE7959"/>
<path d="M122.69 180.358C121.013 180.352 119.375 179.851 117.981 178.92C117.938 178.893 117.901 178.857 117.873 178.814C117.844 178.772 117.825 178.724 117.816 178.674C117.807 178.623 117.809 178.572 117.821 178.522C117.833 178.473 117.855 178.426 117.886 178.385C117.917 178.345 117.956 178.311 118 178.286C118.045 178.261 118.094 178.246 118.145 178.241C118.196 178.237 118.247 178.242 118.295 178.258C118.344 178.275 118.388 178.3 118.426 178.335C119.693 179.196 121.19 179.657 122.722 179.657C124.254 179.657 125.751 179.196 127.017 178.335C127.102 178.287 127.203 178.273 127.297 178.297C127.392 178.321 127.474 178.38 127.526 178.462C127.575 178.543 127.59 178.641 127.568 178.733C127.547 178.825 127.491 178.906 127.412 178.958C126.003 179.864 124.365 180.35 122.69 180.358V180.358Z" fill="#CE7959"/>
<path d="M143.854 165.264C143.854 167.809 141.029 169.909 137.49 169.909C133.952 169.909 131.127 167.835 131.127 165.264C131.127 162.693 133.952 160.618 137.49 160.618C141.029 160.618 143.854 162.705 143.854 165.264Z" fill="url(#paint0_radial)"/>
<path d="M102.123 165.264C102.123 167.809 104.948 169.909 108.486 169.909C112.024 169.909 114.85 167.835 114.85 165.264C114.85 162.693 112.024 160.618 108.486 160.618C104.948 160.618 102.123 162.705 102.123 165.264Z" fill="url(#paint1_radial)"/>
<path d="M98.8885 149.278C97.1541 149.21 95.439 148.888 93.7976 148.324C94.5612 154.802 95.9994 161.229 97.1958 163.596C97.8347 163.194 98.3537 162.627 98.6985 161.956C99.0433 161.284 99.2012 160.532 99.1558 159.778C98.8758 155.947 98.8249 152.435 98.8885 149.278Z" fill="#995235"/>
<path d="M146.909 149.545C147.023 153.071 147.01 156.685 146.909 159.727C146.873 160.355 146.976 160.983 147.212 161.566C147.447 162.149 147.809 162.673 148.27 163.1L148.856 163.634C150.129 161.089 151.338 154.076 151.974 147.28C150.437 148.336 148.721 149.104 146.909 149.545V149.545Z" fill="#995235"/>
<path d="M107.239 198.087L98.0881 203.904L114.799 225.502L123.224 209.86L107.239 198.087Z" fill="#394962"/>
<path d="M138.867 198.087L148.03 203.904L131.307 225.502L122.881 209.86L138.867 198.087Z" fill="#394962"/>
<path d="M178.36 209.453C171.318 217.483 165.553 226.549 161.267 236.333C158.089 243.764 156.778 251.861 157.449 259.916C157.945 266.14 158.416 274.667 157.576 276.844C156.202 280.394 98.3689 282.482 98.3689 282.482L101.449 308.114C101.449 308.114 172.531 308.942 183.489 300.478C193.187 293.071 183.4 211.285 178.36 209.453Z" fill="#17899C"/>
<path d="M157.614 276.843C157.769 276.382 157.867 275.903 157.906 275.418C158.185 276.533 158.246 277.691 158.084 278.829C157.942 280.021 157.415 281.133 156.583 281.998C155.514 283.373 148.539 284.263 147.979 284.963C146.604 286.694 147.661 290.627 148.132 294.483C144.963 296.418 123.224 303.494 101.13 305.429L98.4062 282.52C98.4062 282.52 156.239 280.394 157.614 276.843Z" fill="#52ACB5"/>
<path d="M150.79 281.667C153.629 280.764 156.95 279.847 158.16 277.365C158.885 275.851 158.058 270.124 158.058 270.124C156.446 269.514 154.796 269.008 153.12 268.609C149.416 267.985 139.934 274.744 139.934 274.744C139.603 276.296 140.125 279.287 141.08 282.304C141.283 282.914 145.636 282.494 146.234 282.469C147.781 282.401 149.313 282.131 150.79 281.667Z" fill="#F2AB88"/>
<path d="M158.058 270.124C157.53 269.905 156.99 269.714 156.442 269.551C156.913 274.247 156.938 278.727 150.829 279.962C148.615 280.42 142.824 280.598 140.647 280.84C140.775 281.324 140.915 281.807 141.067 282.304C141.22 282.8 145.624 282.495 146.222 282.469C147.769 282.401 149.301 282.132 150.778 281.667C153.617 280.764 156.938 279.847 158.147 277.366C158.886 275.851 158.058 270.124 158.058 270.124Z" fill="#D49481"/>
<path d="M64.1824 211.286C64.1824 211.286 46.8224 275.418 57.437 297.831C66.7533 317.52 143.982 292.002 143.982 292.002L140.164 271.218C140.164 271.218 80.5115 279.186 80.5115 275.406C80.5712 271.808 80.9459 268.222 81.6315 264.689C83.0259 258.48 83.0736 252.044 81.7715 245.815C78.9206 232.553 73.0661 211.286 64.1824 211.286Z" fill="#17899C"/>
<path d="M75.2682 254.66C78.4755 251.02 81.8737 255.436 82.6246 256.175C82.5396 259.031 82.1859 261.873 81.5682 264.664C80.9395 268.106 80.5652 271.59 80.4482 275.087C79.5064 274.413 67.5301 263.493 75.2682 254.66Z" fill="#52ACB5"/>
<path d="M76.6541 263.238C75.0632 262.907 74.3123 263.964 74.9868 265.555C75.3559 266.433 78.9959 270.646 82.9159 276.169C86.5686 276.907 91.0104 276.513 95.1086 276.169C93.7213 269.551 84.0613 257.422 81.4904 256.073C78.9195 254.724 78.3723 256.709 78.3723 256.709C74.885 255.716 75.8268 258.733 75.8268 258.733C73.2177 259.815 76.6541 263.238 76.6541 263.238Z" fill="#F2AB88"/>
<path d="M76.5786 263.226C76.5786 263.226 82.395 269.589 83.0823 270.964C83.4004 271.575 83.6168 271.295 82.9295 270.226C81.0128 267.718 78.8884 265.376 76.5786 263.226V263.226Z" fill="#D69C7C"/>
<path d="M75.8525 258.682C75.8525 258.682 82.6107 264.676 84.838 268.52C85.1944 269.156 85.4998 268.966 84.6089 267.566C82.1554 264.179 79.2031 261.184 75.8525 258.682Z" fill="#D69C7C"/>
<path d="M78.3979 256.62C78.3979 256.62 84.978 263.187 87.1925 267.044C87.5616 267.667 87.867 267.476 86.9761 266.076C85.6143 264.04 83.8452 261.774 78.3979 256.62Z" fill="#D69C7C"/>
<path d="M94.3589 273.751C93.2104 274.072 92.0344 274.285 90.8462 274.387C84.9534 275.431 79.3916 270.976 78.8953 270.76C80.168 272.325 81.4407 274.158 82.9171 276.182C86.5698 276.92 91.0116 276.525 95.1098 276.182C94.9275 275.352 94.6764 274.539 94.3589 273.751V273.751Z" fill="#D49481"/>
<path d="M49.7774 46.2461V53H45.3614V33.3945H52.2794C57.2195 33.3945 59.6895 35.4772 59.6895 39.6426C59.6895 41.6113 58.9786 43.2064 57.5567 44.4277C56.144 45.64 54.2527 46.2461 51.8829 46.2461H49.7774ZM49.7774 36.7852V42.8965H51.5137C53.8653 42.8965 55.0411 41.8665 55.0411 39.8066C55.0411 37.7923 53.8653 36.7852 51.5137 36.7852H49.7774ZM75.2749 47.2305H66.1421C66.2879 49.263 67.5685 50.2793 69.9839 50.2793C71.5243 50.2793 72.8778 49.9147 74.0445 49.1855V52.3027C72.7502 52.9954 71.0685 53.3418 68.9995 53.3418C66.7391 53.3418 64.9846 52.7174 63.7359 51.4688C62.4872 50.2109 61.8628 48.4609 61.8628 46.2188C61.8628 43.8945 62.5373 42.0534 63.8862 40.6953C65.2352 39.3372 66.8941 38.6582 68.8628 38.6582C70.9045 38.6582 72.4813 39.2643 73.5933 40.4766C74.7144 41.6888 75.2749 43.334 75.2749 45.4121V47.2305ZM71.2691 44.5781C71.2691 42.5729 70.4579 41.5703 68.8355 41.5703C68.1428 41.5703 67.5412 41.8574 67.0308 42.4316C66.5295 43.0059 66.2241 43.7214 66.1148 44.5781H71.2691ZM87.538 42.8965C87.0185 42.6139 86.4124 42.4727 85.7197 42.4727C84.7809 42.4727 84.0472 42.819 83.5185 43.5117C82.9899 44.1953 82.7255 45.1296 82.7255 46.3145V53H78.4052V39H82.7255V41.5977H82.7802C83.4638 39.7018 84.6943 38.7539 86.4716 38.7539C86.9274 38.7539 87.2828 38.8086 87.538 38.918V42.8965ZM89.2055 52.6309V49.1309C89.9164 49.5592 90.6228 49.8783 91.3246 50.0879C92.0355 50.2975 92.7055 50.4023 93.3344 50.4023C94.1 50.4023 94.7016 50.2975 95.1391 50.0879C95.5857 49.8783 95.809 49.5592 95.809 49.1309C95.809 48.8574 95.7087 48.6296 95.5082 48.4473C95.3077 48.265 95.0479 48.1055 94.7289 47.9688C94.419 47.832 94.0772 47.709 93.7035 47.5996C93.3298 47.4902 92.9698 47.3672 92.6234 47.2305C92.0674 47.0208 91.5753 46.7975 91.1469 46.5605C90.7276 46.3145 90.3721 46.0319 90.0805 45.7129C89.7979 45.3939 89.5792 45.0247 89.4242 44.6055C89.2784 44.1862 89.2055 43.6895 89.2055 43.1152C89.2055 42.3314 89.3741 41.6569 89.7113 41.0918C90.0577 40.5267 90.5134 40.0664 91.0785 39.7109C91.6527 39.3464 92.3044 39.082 93.0336 38.918C93.7719 38.7448 94.5375 38.6582 95.3305 38.6582C95.9503 38.6582 96.5792 38.7083 97.2172 38.8086C97.8552 38.8997 98.4841 39.0365 99.1039 39.2188V42.5547C98.557 42.2357 97.9691 41.9987 97.3402 41.8438C96.7204 41.6797 96.1098 41.5977 95.5082 41.5977C95.2256 41.5977 94.9568 41.625 94.7016 41.6797C94.4555 41.7253 94.2367 41.7982 94.0453 41.8984C93.8539 41.9896 93.7035 42.1126 93.5941 42.2676C93.4848 42.4134 93.4301 42.582 93.4301 42.7734C93.4301 43.0286 93.5121 43.2474 93.6762 43.4297C93.8402 43.612 94.0544 43.7715 94.3187 43.9082C94.5831 44.0358 94.8747 44.1543 95.1937 44.2637C95.5219 44.3639 95.8454 44.4688 96.1645 44.5781C96.7387 44.7786 97.2582 44.9974 97.723 45.2344C98.1879 45.4714 98.5844 45.7493 98.9125 46.0684C99.2497 46.3874 99.5049 46.7611 99.6781 47.1895C99.8604 47.6178 99.9516 48.1283 99.9516 48.7207C99.9516 49.5501 99.7693 50.2611 99.4047 50.8535C99.0492 51.4368 98.5707 51.9154 97.9691 52.2891C97.3767 52.6536 96.6885 52.918 95.9047 53.082C95.1299 53.2552 94.3233 53.3418 93.4848 53.3418C91.9444 53.3418 90.518 53.1048 89.2055 52.6309ZM109.685 53.3418C107.352 53.3418 105.515 52.6901 104.176 51.3867C102.845 50.0742 102.18 48.2969 102.18 46.0547C102.18 43.7396 102.872 41.9303 104.258 40.627C105.643 39.3145 107.516 38.6582 109.877 38.6582C112.201 38.6582 114.024 39.3145 115.346 40.627C116.667 41.9303 117.328 43.6576 117.328 45.8086C117.328 48.1328 116.644 49.9694 115.277 51.3184C113.919 52.6673 112.055 53.3418 109.685 53.3418ZM109.795 41.9668C108.774 41.9668 107.981 42.3177 107.416 43.0195C106.851 43.7214 106.568 44.7148 106.568 46C106.568 48.6888 107.653 50.0332 109.822 50.0332C111.891 50.0332 112.926 48.6523 112.926 45.8906C112.926 43.2747 111.882 41.9668 109.795 41.9668ZM134.212 53H129.906V45.2207C129.906 43.0514 129.131 41.9668 127.581 41.9668C126.834 41.9668 126.219 42.2539 125.736 42.8281C125.253 43.4023 125.011 44.1315 125.011 45.0156V53H120.691V39H125.011V41.2148H125.066C126.096 39.5104 127.595 38.6582 129.564 38.6582C132.663 38.6582 134.212 40.5814 134.212 44.4277V53ZM149.852 53H145.764V50.9902H145.71C144.771 52.5579 143.381 53.3418 141.54 53.3418C140.182 53.3418 139.111 52.959 138.327 52.1934C137.552 51.4186 137.165 50.3887 137.165 49.1035C137.165 46.3874 138.773 44.8197 141.991 44.4004L145.792 43.8945C145.792 42.3633 144.962 41.5977 143.303 41.5977C141.635 41.5977 140.05 42.0944 138.546 43.0879V39.834C139.147 39.5241 139.967 39.2507 141.007 39.0137C142.055 38.7767 143.007 38.6582 143.864 38.6582C147.856 38.6582 149.852 40.6497 149.852 44.6328V53ZM145.792 47.3125V46.3691L143.249 46.6973C141.845 46.8796 141.143 47.513 141.143 48.5977C141.143 49.0898 141.312 49.4954 141.649 49.8145C141.995 50.1243 142.46 50.2793 143.044 50.2793C143.855 50.2793 144.516 50.0013 145.026 49.4453C145.537 48.8802 145.792 48.1693 145.792 47.3125ZM158.151 53H153.83V32.2734H158.151V53ZM164.535 36.7852C163.806 36.7852 163.209 36.571 162.744 36.1426C162.279 35.7051 162.046 35.1719 162.046 34.543C162.046 33.8958 162.279 33.3672 162.744 32.957C163.209 32.5469 163.806 32.3418 164.535 32.3418C165.273 32.3418 165.87 32.5469 166.326 32.957C166.791 33.3672 167.023 33.8958 167.023 34.543C167.023 35.1992 166.791 35.737 166.326 36.1562C165.87 36.5755 165.273 36.7852 164.535 36.7852ZM166.668 53H162.347V39H166.668V53ZM179.327 52.8359C178.689 53.1732 177.728 53.3418 176.442 53.3418C173.398 53.3418 171.876 51.7604 171.876 48.5977V42.1855H169.606V39H171.876V35.9785L176.183 34.748V39H179.327V42.1855H176.183V47.8457C176.183 49.304 176.761 50.0332 177.919 50.0332C178.375 50.0332 178.844 49.901 179.327 49.6367V52.8359ZM195.665 39L189.977 54.1211C188.61 57.7578 186.55 59.5762 183.797 59.5762C182.749 59.5762 181.888 59.4577 181.213 59.2207V55.7754C181.788 56.1126 182.412 56.2812 183.086 56.2812C184.198 56.2812 184.973 55.7572 185.411 54.709L186.149 52.9727L180.461 39H185.247L187.858 47.5176C188.022 48.0462 188.15 48.6706 188.241 49.3906H188.295C188.377 48.862 188.528 48.2467 188.747 47.5449L191.385 39H195.665ZM34.3348 89V69.3945H41.2801C48.2436 69.3945 51.7254 72.5801 51.7254 78.9512C51.7254 82.0046 50.7729 84.4427 48.868 86.2656C46.9721 88.0885 44.4428 89 41.2801 89H34.3348ZM38.7508 72.9902V85.418H40.9383C42.8523 85.418 44.3517 84.8438 45.4363 83.6953C46.5301 82.5469 47.077 80.9837 47.077 79.0059C47.077 77.1374 46.5346 75.6699 45.45 74.6035C44.3745 73.528 42.8615 72.9902 40.9109 72.9902H38.7508ZM67.6936 83.2305H58.5608C58.7066 85.263 59.9872 86.2793 62.4026 86.2793C63.9429 86.2793 65.2965 85.9147 66.4631 85.1855V88.3027C65.1689 88.9954 63.4872 89.3418 61.4182 89.3418C59.1578 89.3418 57.4032 88.7174 56.1545 87.4688C54.9058 86.2109 54.2815 84.4609 54.2815 82.2188C54.2815 79.8945 54.956 78.0534 56.3049 76.6953C57.6539 75.3372 59.3127 74.6582 61.2815 74.6582C63.3231 74.6582 64.9 75.2643 66.0119 76.4766C67.133 77.6888 67.6936 79.334 67.6936 81.4121V83.2305ZM63.6877 80.5781C63.6877 78.5729 62.8765 77.5703 61.2541 77.5703C60.5614 77.5703 59.9599 77.8574 59.4494 78.4316C58.9481 79.0059 58.6428 79.7214 58.5334 80.5781H63.6877ZM84.154 75L78.945 89H74.0231L69.0602 75H73.6813L76.1149 83.627C76.3884 84.6022 76.5479 85.4316 76.5934 86.1152H76.6481C76.7119 85.4681 76.8805 84.666 77.154 83.709L79.6423 75H84.154ZM99.1378 83.2305H90.005C90.1508 85.263 91.4314 86.2793 93.8468 86.2793C95.3872 86.2793 96.7407 85.9147 97.9073 85.1855V88.3027C96.6131 88.9954 94.9314 89.3418 92.8624 89.3418C90.602 89.3418 88.8474 88.7174 87.5987 87.4688C86.35 86.2109 85.7257 84.4609 85.7257 82.2188C85.7257 79.8945 86.4002 78.0534 87.7491 76.6953C89.0981 75.3372 90.757 74.6582 92.7257 74.6582C94.7674 74.6582 96.3442 75.2643 97.4562 76.4766C98.5773 77.6888 99.1378 79.334 99.1378 81.4121V83.2305ZM95.132 80.5781C95.132 78.5729 94.3208 77.5703 92.6984 77.5703C92.0056 77.5703 91.4041 77.8574 90.8937 78.4316C90.3924 79.0059 90.087 79.7214 89.9777 80.5781H95.132ZM106.588 89H102.268V68.2734H106.588V89ZM117.457 89.3418C115.124 89.3418 113.287 88.6901 111.947 87.3867C110.617 86.0742 109.951 84.2969 109.951 82.0547C109.951 79.7396 110.644 77.9303 112.029 76.627C113.415 75.3145 115.288 74.6582 117.648 74.6582C119.973 74.6582 121.796 75.3145 123.117 76.627C124.439 77.9303 125.1 79.6576 125.1 81.8086C125.1 84.1328 124.416 85.9694 123.049 87.3184C121.691 88.6673 119.827 89.3418 117.457 89.3418ZM117.566 77.9668C116.546 77.9668 115.753 78.3177 115.188 79.0195C114.622 79.7214 114.34 80.7148 114.34 82C114.34 84.6888 115.424 86.0332 117.594 86.0332C119.663 86.0332 120.697 84.6523 120.697 81.8906C120.697 79.2747 119.654 77.9668 117.566 77.9668ZM132.837 87.373H132.783V95.4395H128.462V75H132.783V77.1055H132.837C133.904 75.474 135.403 74.6582 137.335 74.6582C139.149 74.6582 140.548 75.2826 141.533 76.5312C142.526 77.7708 143.023 79.4616 143.023 81.6035C143.023 83.9368 142.444 85.8099 141.287 87.2227C140.138 88.6354 138.607 89.3418 136.693 89.3418C135.007 89.3418 133.721 88.6855 132.837 87.373ZM132.714 81.6309V82.752C132.714 83.7181 132.97 84.5065 133.48 85.1172C133.99 85.7279 134.66 86.0332 135.49 86.0332C136.474 86.0332 137.235 85.6549 137.773 84.8984C138.32 84.1328 138.593 83.0527 138.593 81.6582C138.593 79.1973 137.636 77.9668 135.722 77.9668C134.838 77.9668 134.113 78.304 133.548 78.9785C132.992 79.6439 132.714 80.528 132.714 81.6309ZM168.616 89H164.309V81.0156C164.309 78.9831 163.562 77.9668 162.067 77.9668C161.356 77.9668 160.778 78.2721 160.331 78.8828C159.884 79.4935 159.661 80.2546 159.661 81.166V89H155.341V80.9336C155.341 78.9557 154.607 77.9668 153.14 77.9668C152.401 77.9668 151.809 78.2585 151.362 78.8418C150.925 79.4251 150.706 80.2181 150.706 81.2207V89H146.386V75H150.706V77.1875H150.761C151.207 76.4401 151.832 75.834 152.634 75.3691C153.445 74.8952 154.329 74.6582 155.286 74.6582C157.264 74.6582 158.617 75.5286 159.347 77.2695C160.413 75.5286 161.981 74.6582 164.05 74.6582C167.094 74.6582 168.616 76.5358 168.616 80.291V89ZM185.172 83.2305H176.039C176.185 85.263 177.466 86.2793 179.881 86.2793C181.422 86.2793 182.775 85.9147 183.942 85.1855V88.3027C182.647 88.9954 180.966 89.3418 178.897 89.3418C176.636 89.3418 174.882 88.7174 173.633 87.4688C172.384 86.2109 171.76 84.4609 171.76 82.2188C171.76 79.8945 172.435 78.0534 173.784 76.6953C175.132 75.3372 176.791 74.6582 178.76 74.6582C180.802 74.6582 182.379 75.2643 183.491 76.4766C184.612 77.6888 185.172 79.334 185.172 81.4121V83.2305ZM181.166 80.5781C181.166 78.5729 180.355 77.5703 178.733 77.5703C178.04 77.5703 177.438 77.8574 176.928 78.4316C176.427 79.0059 176.121 79.7214 176.012 80.5781H181.166ZM201.824 89H197.517V81.2207C197.517 79.0514 196.743 77.9668 195.193 77.9668C194.446 77.9668 193.83 78.2539 193.347 78.8281C192.864 79.4023 192.623 80.1315 192.623 81.0156V89H188.302V75H192.623V77.2148H192.677C193.707 75.5104 195.207 74.6582 197.176 74.6582C200.274 74.6582 201.824 76.5814 201.824 80.4277V89ZM214.279 88.8359C213.64 89.1732 212.679 89.3418 211.394 89.3418C208.349 89.3418 206.827 87.7604 206.827 84.5977V78.1855H204.558V75H206.827V71.9785L211.134 70.748V75H214.279V78.1855H211.134V83.8457C211.134 85.304 211.713 86.0332 212.87 86.0332C213.326 86.0332 213.795 85.901 214.279 85.6367V88.8359Z" fill="#F0B444"/>
</g>
<defs>
<filter id="filter0_f" x="0" y="0" width="245" height="345" filterUnits="userSpaceOnUse" color-interpolation-filters="sRGB">
<feFlood flood-opacity="0" result="BackgroundImageFix"/>
<feBlend mode="normal" in="SourceGraphic" in2="BackgroundImageFix" result="shape"/>
<feGaussianBlur stdDeviation="12.5" result="effect1_foregroundBlur"/>
</filter>
<filter id="filter1_i" x="25" y="14" width="196" height="297" filterUnits="userSpaceOnUse" color-interpolation-filters="sRGB">
<feFlood flood-opacity="0" result="BackgroundImageFix"/>
<feBlend mode="normal" in="SourceGraphic" in2="BackgroundImageFix" result="shape"/>
<feColorMatrix in="SourceAlpha" type="matrix" values="0 0 0 0 0 0 0 0 0 0 0 0 0 0 0 0 0 0 127 0" result="hardAlpha"/>
<feOffset/>
<feGaussianBlur stdDeviation="5"/>
<feComposite in2="hardAlpha" operator="arithmetic" k2="-1" k3="1"/>
<feColorMatrix type="matrix" values="0 0 0 0 0 0 0 0 0 0 0 0 0 0 0 0 0 0 0.25 0"/>
<feBlend mode="normal" in2="shape" result="effect1_innerShadow"/>
</filter>
<filter id="filter2_i" x="25" y="205" width="196" height="106" filterUnits="userSpaceOnUse" color-interpolation-filters="sRGB">
<feFlood flood-opacity="0" result="BackgroundImageFix"/>
<feBlend mode="normal" in="SourceGraphic" in2="BackgroundImageFix" result="shape"/>
<feColorMatrix in="SourceAlpha" type="matrix" values="0 0 0 0 0 0 0 0 0 0 0 0 0 0 0 0 0 0 127 0" result="hardAlpha"/>
<feOffset dy="-5"/>
<feGaussianBlur stdDeviation="5"/>
<feComposite in2="hardAlpha" operator="arithmetic" k2="-1" k3="1"/>
<feColorMatrix type="matrix" values="0 0 0 0 0 0 0 0 0 0 0 0 0 0 0 0 0 0 0.25 0"/>
<feBlend mode="normal" in2="shape" result="effect1_innerShadow"/>
</filter>
<radialGradient id="paint0_radial" cx="0" cy="0" r="1" gradientUnits="userSpaceOnUse" gradientTransform="translate(137.698 165.264) scale(5.88191 5.02727)">
<stop stop-color="#F29788"/>
<stop offset="0.61" stop-color="#F2A388"/>
<stop offset="0.92" stop-color="#F2AB88"/>
</radialGradient>
<radialGradient id="paint1_radial" cx="0" cy="0" r="1" gradientUnits="userSpaceOnUse" gradientTransform="translate(-15521.9 929.534) rotate(180) scale(58.8191 36.6991)">
<stop stop-color="#F29788"/>
<stop offset="0.61" stop-color="#F2A388"/>
<stop offset="0.92" stop-color="#F2AB88"/>
</radialGradient>
</defs>
</svg>
