<svg width="245" height="345" viewBox="0 0 245 345" fill="none" xmlns="http://www.w3.org/2000/svg">
<g filter="url(#filter0_f)">
<rect x="25" y="25" width="195" height="295" fill="black" fill-opacity="0.24"/>
</g>
<g opacity="0.85" filter="url(#filter1_i)">
<rect x="21" y="9" width="196" height="297" rx="5" fill="white"/>
</g>
<mask id="mask0" mask-type="alpha" maskUnits="userSpaceOnUse" x="21" y="9" width="196" height="297">
<rect x="21" y="9" width="196" height="297" rx="5" fill="white"/>
</mask>
<g mask="url(#mask0)">
<path d="M134.915 205C88.7963 205 26.0209 236.651 1 252.494V306H237V236.934C222.188 226.289 181.033 205 134.915 205Z" fill="url(#paint0_linear)"/>
</g>
<path opacity="0.85" d="M184.5 266C205.763 266 216 263.985 216 261.5C216 259.015 205.763 257 184.5 257C163.237 257 146 259.015 146 261.5C146 263.985 163.237 266 184.5 266Z" fill="black" fill-opacity="0.43"/>
<path opacity="0.85" d="M63.4915 295.256C89.2702 294.176 110.064 290.824 109.936 287.77C109.808 284.715 88.8065 283.115 63.0278 284.195C37.2491 285.276 21.2246 286.402 21.2297 291.406C21.2343 295.906 37.7128 296.336 63.4915 295.256Z" fill="black" fill-opacity="0.43"/>
<path opacity="0.85" d="M180.037 154.448C180.941 153.055 191.676 151.204 202.09 152.367C212.503 153.529 214.623 163.877 214.623 172.243C214.623 180.609 216.209 200.332 212.874 203.317C209.539 206.302 181.078 207.321 177.612 203.62C174.146 199.919 173.372 164.681 180.037 154.448Z" fill="#CF1E26"/>
<path opacity="0.85" d="M207.629 154C206.819 154.649 206.147 155.46 205.654 156.384C204.408 158.663 203.993 161.39 203.782 164.072C203.297 170.242 203.081 176.473 203.011 182.654C202.975 185.844 203.029 189.027 203.173 192.202C203.235 194.106 203.401 196.006 203.669 197.892C203.889 199.678 204.423 201.409 205.244 203.002C205.685 203.817 206.319 204.504 207.089 205C209.97 204.553 212.123 203.957 212.899 203.245C216.201 200.232 214.62 180.496 214.631 172.107C214.642 165.457 213.315 157.565 207.629 154Z" fill="#EE4C36"/>
<path opacity="0.85" d="M167 157C167 157 149.882 170.088 149.039 175.722C148.197 181.356 161.131 198 161.131 198L167 157Z" fill="#FFD996"/>
<g style="mix-blend-mode:multiply" opacity="0.85">
<path d="M165.661 158.017C165.661 158.072 165.661 158.127 165.661 158.182C164.937 163.843 162.34 169.093 159.419 174.012C157.976 176.442 156.521 178.91 154.904 181.23C154.133 182.331 153.297 183.39 152.4 184.401L152 184.841C154.724 189.397 157.737 193.791 161.024 198L167 157L165.661 158.017Z" fill="#FFD996"/>
</g>
<path opacity="0.85" d="M160.981 180.82C160.671 180.389 160.34 179.975 159.989 179.58C159.88 179.35 159.756 179.131 159.632 178.912L159.136 178.094C158.833 177.536 158.502 176.994 158.144 176.473C158.129 176.456 158.109 176.445 158.088 176.442C158.067 176.438 158.045 176.443 158.026 176.454C158.007 176.466 157.993 176.484 157.986 176.505C157.978 176.527 157.978 176.55 157.985 176.572C158.253 177.14 158.605 177.677 158.928 178.219L159.344 178.912C159.029 178.584 158.697 178.273 158.352 177.979C157.399 177.138 156.317 176.472 155.152 176.009C155.125 175.997 155.095 175.997 155.068 176.009C155.041 176.021 155.02 176.043 155.008 176.071C154.997 176.1 154.997 176.132 155.008 176.16C155.02 176.188 155.041 176.211 155.068 176.223C155.589 176.535 156.13 176.801 156.65 177.124C158.248 178.127 159.659 179.427 160.813 180.961C160.887 181.071 161.056 180.925 160.981 180.82Z" fill="#C78E23"/>
<path opacity="0.85" d="M198.373 199.227C190.94 200.03 183.452 200.213 175.988 199.774C171.609 199.609 167.259 199.015 163 198C163.117 207.653 163.605 216.365 164.193 220.45C165.757 231.28 168.27 255 168.27 255H181.13C181.069 244.931 179.294 206.722 180.115 206.564C180.936 206.405 181.985 206.454 183.777 207.423C186.151 208.705 194.24 255 194.24 255H207C205.835 243.972 200.859 210.205 199.427 199.15L198.373 199.227Z" fill="#FFA672"/>
<path opacity="0.85" d="M165.653 232.09C166.827 232.333 168.007 232.532 169.187 232.703C172.4 233.172 175.646 233.42 178.88 233.669C179.434 233.713 179.944 233.746 180.481 233.779C180.033 220.53 179.601 206.728 180.088 206.607C180.902 206.447 181.955 206.496 183.744 207.473C185.001 208.158 187.854 221.545 190.258 234C194.861 233.873 199.436 233.448 204 232.852C202.216 219.878 200.189 205.613 199.353 199.115L198.317 199.237C190.896 200.047 183.419 200.232 175.967 199.789C171.596 199.622 167.252 199.023 163 198C163.116 207.733 163.604 216.516 164.191 220.635C164.628 223.676 165.144 227.778 165.653 232.09Z" fill="#B22E2E"/>
<path opacity="0.85" d="M167.853 254.1C168.296 253.863 180.112 254.101 180.68 254.259C181.248 254.417 182.46 260.185 181.816 261.44C181.275 262.543 164.736 261.714 160.641 261.495C160.53 261.489 160.422 261.453 160.326 261.389C160.231 261.324 160.151 261.234 160.094 261.127C160.038 261.019 160.005 260.898 160.001 260.773C159.996 260.648 160.019 260.523 160.067 260.411C160.506 259.43 161.55 258.054 163.535 256.592C166.781 254.198 167.853 254.1 167.853 254.1Z" fill="#CF1E26"/>
<path opacity="0.85" d="M167.752 261.094C167.352 259.84 166.786 258.658 166.072 257.589C165.724 257.064 165.344 256.566 164.934 256.099L164.844 256C164.428 256.275 163.97 256.584 163.443 256.97C161.509 258.372 160.492 259.692 160.066 260.633C160.018 260.741 159.996 260.86 160.001 260.98C160.005 261.1 160.037 261.217 160.092 261.32C160.147 261.423 160.225 261.509 160.318 261.571C160.411 261.632 160.516 261.667 160.624 261.673C162.01 261.743 164.865 261.889 168 262C167.932 261.696 167.842 261.392 167.752 261.094Z" fill="#FFD9C4"/>
<path opacity="0.85" d="M193.849 254.1C194.293 253.863 206.107 254.101 206.68 254.259C207.253 254.417 208.46 260.185 207.816 261.44C207.275 262.543 190.739 261.714 186.638 261.495C186.527 261.49 186.419 261.454 186.324 261.389C186.228 261.325 186.149 261.235 186.092 261.127C186.036 261.019 186.004 260.897 186 260.772C185.997 260.647 186.021 260.523 186.07 260.411C186.503 259.43 187.547 258.054 189.532 256.592C192.778 254.198 193.849 254.1 193.849 254.1Z" fill="#CF1E26"/>
<path opacity="0.85" d="M192.308 258.152C191.784 257.389 191.211 256.67 190.594 256C190.277 256.215 189.943 256.449 189.576 256.719C187.566 258.195 186.509 259.584 186.071 260.574C186.021 260.687 185.997 260.812 186 260.938C186.004 261.065 186.036 261.188 186.093 261.297C186.151 261.406 186.231 261.497 186.328 261.561C186.424 261.626 186.534 261.663 186.646 261.668C188.043 261.742 190.857 261.883 194 262C193.63 260.621 193.058 259.32 192.308 258.152Z" fill="#FFD9C4"/>
<path opacity="0.85" d="M207 227.354C207 227.354 206.274 228.606 203.942 229.642C203.827 229.698 203.706 229.747 203.579 229.797C201.437 230.603 199.167 231.007 196.88 230.989C188.774 231.144 184.231 229.659 184.231 229.659C184.231 229.659 182.581 220.965 181.481 219.425C181.371 219.269 181.267 219.186 181.168 219.197C181.127 219.204 181.09 219.226 181.063 219.258C180.315 220.134 182.603 229.875 182.603 229.875C179.195 230.386 175.739 230.487 172.308 230.174C166.5 229.659 159.763 228.423 159.763 228.423C159.763 228.423 159.411 226.556 159.07 219.458C158.899 215.817 159.07 210.005 159.273 205.212C159.273 205.029 159.273 204.857 159.273 204.658C159.466 200.358 159.675 197 159.675 197H160.318L163.096 197.078H163.486L175.795 197.432H176.091L177.499 197.477H177.846L189.89 197.826H190.319L199.234 198.086H199.729L201.093 198.125C202.232 201.438 207 227.354 207 227.354Z" fill="#90D3C7"/>
<path opacity="0.85" d="M204 229.845C203.885 229.9 203.764 229.95 203.638 230C203.533 229.362 203.445 228.718 203.341 228.09C203.121 226.736 202.907 225.379 202.698 224.021C202.045 219.802 201.457 215.571 200.908 211.341C199.324 210.795 197.84 209.99 196.514 208.959C193.047 206.272 190.719 202.355 190 198H190.428C190.913 200.922 192.144 203.666 193.998 205.961C195.865 208.205 198.228 209.974 200.897 211.124C200.82 210.569 200.738 209.969 200.661 209.387C200.349 206.933 200.051 204.479 199.765 202.025C199.617 200.793 199.48 199.566 199.342 198.333C199.345 198.309 199.345 198.285 199.342 198.261H199.837L199.886 198.727C200.04 200.093 200.196 201.459 200.353 202.824C200.932 207.765 201.561 212.697 202.242 217.62C202.565 220.092 202.909 222.551 203.275 224.998C203.451 226.219 203.638 227.446 203.824 228.668C203.874 229.056 203.94 229.439 204 229.845Z" fill="black"/>
<path opacity="0.85" d="M177.732 210.639C177.732 210.734 177.627 210.793 177.529 210.804L175.619 211C175.501 211 175.436 210.915 175.422 210.835C175.066 208.338 174.935 205.823 175.03 203.31C175.085 201.534 175.262 199.761 175.56 198H175.913C175.645 199.806 175.442 201.611 175.383 203.433C175.314 205.845 175.452 208.258 175.795 210.655L177.32 210.496C177.136 209.205 177.012 207.909 176.96 206.608C176.869 204.232 176.998 201.853 177.346 199.492C177.418 199.009 177.496 198.526 177.588 198.042H178C177.209 202.212 177.119 206.45 177.732 210.639V210.639Z" fill="black"/>
<path opacity="0.85" d="M164 197.012C163.15 200.363 161.431 203.455 159 206C159 205.797 159 205.607 159 205.386C159.231 205.14 159.449 204.882 159.642 204.624C161.431 202.465 162.741 199.979 163.493 197.319C163.493 197.215 163.551 197.104 163.57 197L164 197.012Z" fill="black"/>
<path opacity="0.85" d="M181.951 219.78C179.491 218.374 176.843 217.435 174.114 217C174 217 173.949 217.167 174.068 217.199C176.735 217.876 179.346 218.81 181.872 219.992C181.98 220.043 182.053 219.838 181.951 219.78Z" fill="black"/>
<path opacity="0.85" d="M203 202.525C198.114 203.225 193.194 203.667 188.262 203.85C179.287 204.17 170.092 204.093 161.41 202.453C159.585 202.113 157.779 201.678 156 201.149C158.702 180.163 162.245 160.95 165.837 156.968C166.356 156.383 168.749 155.538 171.915 154.759L172.297 154.665C176.419 153.704 181.741 152.909 185.979 153.008C187.421 153.036 188.859 153.158 190.284 153.373C190.45 153.373 190.616 153.423 190.776 153.456C195.893 154.312 199.331 156.217 199.966 157.548C200.806 159.288 201.298 192.639 202.597 200.343C202.685 200.846 202.823 201.586 203 202.525Z" fill="#FFD996"/>
<path opacity="0.85" d="M191 154.09C189.329 155.648 187.444 157.003 185.393 158.121C183.198 159.312 180.699 159.96 178.144 160C176.873 160.009 175.61 159.806 174.419 159.402C173.385 159.038 172.422 158.44 172.116 157.408C171.902 156.69 171.986 155.926 172.351 155.261L172.728 155.176C172.452 155.635 172.323 156.157 172.358 156.679C172.393 157.202 172.59 157.706 172.925 158.131C173.631 158.903 174.834 159.227 175.874 159.432C176.995 159.65 178.147 159.707 179.287 159.601C181.558 159.371 183.742 158.672 185.672 157.558C186.642 157.015 187.568 156.407 188.44 155.739C189.174 155.196 189.874 154.616 190.535 154C190.677 154.035 190.841 154.06 191 154.09Z" fill="#C78E23"/>
<path opacity="0.85" d="M172 151.177L173.685 157.816C173.685 157.816 175.009 160.141 181.443 158.275C187.57 156.487 186.985 153.269 186.985 153.269L185.541 148L172 151.177Z" fill="#FFA672"/>
<path opacity="0.85" d="M173.366 156.055C174.875 156.156 176.39 156.011 177.852 155.626C179.651 155.257 181.376 154.591 182.956 153.655C184.47 152.703 185.709 151.354 186.105 149.841C186.199 149.595 186.23 149.331 186.196 149.071C186.163 148.81 186.065 148.562 185.912 148.349C185.508 147.987 184.99 147.777 184.448 147.755C183.384 147.648 182.311 147.68 181.255 147.848C178.045 148.354 174.897 149.195 171.863 150.358C171.113 150.542 170.437 150.949 169.925 151.525C169.429 152.263 169.302 153.809 169.792 154.536C170.431 155.477 172.138 155.94 173.366 156.055Z" fill="#B22E2E"/>
<path opacity="0.85" d="M213.871 207.475C214.694 209.643 217.558 215.123 216.904 215.454C216.249 215.784 213.944 212.348 213.944 212.348C213.944 212.348 216.327 218.576 215.404 218.928C214.481 219.28 211.488 213.849 211.488 213.849C211.488 213.849 213.345 220.744 212.008 220.993C210.671 221.243 208.903 214.418 208.903 214.418C208.903 214.418 209.513 219.893 208.344 219.893C207.174 219.893 205.546 212.543 205.546 212.543C205.546 212.543 204.332 216.397 203.308 216.137C202.284 215.876 204.136 207.968 204.175 206.38C204.073 204.602 203.845 202.832 203.493 201.084L211.672 200C211.672 200 213.049 205.29 213.871 207.475Z" fill="#FFA672"/>
<path opacity="0.85" d="M200.271 157.374C203.398 161.266 212.159 183.879 214.996 208.167C215.222 210.097 206.708 211.078 203.226 210.995C203.226 210.995 201.423 200.56 198.92 188.079C196.417 175.599 193 172.148 193 166.415C193 160.681 196.59 152.787 200.271 157.374Z" fill="#FFD996"/>
<path opacity="0.85" d="M202 202C201.398 199.479 200.847 196.947 200.295 194.415C199.744 191.883 199.259 189.335 198.68 186.814C198.1 184.293 197.409 181.804 196.591 179.347C195.772 176.891 194.774 174.489 194 172C194.468 173.215 194.969 174.413 195.476 175.612C195.983 176.81 196.451 178.025 196.897 179.245C197.77 181.698 198.502 184.196 199.092 186.727C199.37 187.996 199.616 189.27 199.866 190.539C200.117 191.807 200.379 193.082 200.613 194.356C201.07 196.898 201.571 199.446 202 202Z" fill="#C78E23"/>
<path opacity="0.85" d="M189.966 153.001C189.903 152.996 189.841 153.008 189.785 153.036C189.729 153.064 189.682 153.106 189.649 153.158C185.933 158.907 185.258 166.426 186.712 173.077C187.466 176.49 188.914 179.723 190.971 182.586C193.028 185.449 195.652 187.886 198.69 189.752C198.86 189.862 199.05 189.938 199.251 189.975C199.451 190.011 199.657 190.008 199.856 189.965C200.055 189.922 200.243 189.84 200.409 189.725C200.574 189.609 200.714 189.462 200.819 189.292C201.304 188.43 200.727 187.314 200.11 186.491C198.448 184.294 194.086 178.439 192.609 171.183C191.132 163.927 193.705 158.072 195.494 154.699C195.524 154.659 195.544 154.613 195.554 154.564C195.565 154.516 195.564 154.465 195.552 154.417C195.541 154.369 195.519 154.323 195.488 154.284C195.457 154.245 195.418 154.212 195.373 154.189C193.629 153.572 191.813 153.173 189.966 153.001V153.001Z" fill="black"/>
<path opacity="0.85" d="M169.293 155.816C167.198 156.586 165.407 158.006 164.183 159.867C156.462 172.133 157.992 184.366 158.392 184.858C158.886 185.47 159.166 183.918 159.215 183.656C161.677 171.745 165.203 165.256 167.27 162.048C168.195 160.606 169.248 159.25 170.417 157.997C171.01 157.363 171.635 156.762 172.254 156.15C172.446 155.958 173 155.554 173 155.242C173 154.581 170.258 155.472 169.918 155.581C169.688 155.658 169.48 155.734 169.293 155.816Z" fill="black"/>
<path opacity="0.85" d="M162.72 102.538C160.392 104.364 158.66 106.827 157.741 109.617C156.822 112.408 156.756 115.404 157.552 118.232C157.797 119.185 158.251 120.075 158.88 120.838C159.2 121.213 159.602 121.513 160.055 121.714C160.509 121.915 161.002 122.012 161.499 121.999C163.278 121.854 164.357 120.035 165.111 118.43C166.413 115.685 167.687 112.897 168.365 109.944C168.869 107.755 169.525 104.02 168.305 101.944C167.156 99.9804 164.048 101.532 162.72 102.538Z" fill="black"/>
<path opacity="0.85" d="M156.007 128.103C155.974 130.123 156.056 132.145 156.252 134.155C156.249 134.187 156.249 134.219 156.252 134.25C156.306 134.853 156.387 135.439 156.469 136.013C157.208 140.989 158.902 145.207 162.123 148.197L162.178 148.253C162.758 148.779 163.376 149.262 164.024 149.697C166.811 151.55 170.499 152.71 175.344 152.972C175.567 152.972 175.784 152.972 176.007 153H176.756C177.299 153 177.843 153 178.418 152.955C185.3 152.481 191.454 148.175 195.202 141.642C195.229 141.581 195.262 141.525 195.289 141.469C195.593 140.911 195.876 140.387 196.147 139.795C197.579 136.747 198.485 133.466 198.825 130.1C200.368 115.439 191.536 101.878 178.793 101.041C165.855 100.254 156.197 110.859 156.007 128.103Z" fill="#FFA672"/>
<path opacity="0.85" d="M159.099 103.486C159.249 104.625 159.808 105.667 160.669 106.411C165.532 110.479 171.61 106.294 171.61 106.294C171.61 106.294 173.382 109.576 178.349 110.936C183.316 112.295 187.846 109.916 187.846 109.916C187.376 111.465 187.213 113.093 187.365 114.707C187.517 116.32 187.982 117.887 188.732 119.317C191.27 124.293 193.929 125.875 193.929 125.875C193.929 125.875 192.485 128.7 194.804 130.288C197.403 132.066 205.198 130.634 206.839 124.627C207.794 121.162 208.164 117.558 207.933 113.967C207.649 110.546 206.681 107.03 204.443 104.199C203.022 102.412 201.203 100.996 199.137 100.07C196.446 98.9001 193.615 98.0981 190.718 97.6849C188.53 97.3466 186.326 97.1326 184.115 97.0441C179.431 96.846 174.738 97.0323 170.083 97.6013C170.083 97.6013 173.606 92.798 171.725 91.6669C171.691 91.6444 171.656 91.6239 171.621 91.6056C169.613 90.6304 166.15 94.8876 165.893 95.2053C166.282 94.2565 166.547 93.2598 166.681 92.2408C166.779 91.1264 166.555 90.1178 165.439 90.0119C165.352 89.996 165.263 89.996 165.176 90.0119C162.955 90.4744 158.262 98.4093 159.099 103.486Z" fill="black"/>
<g style="mix-blend-mode:screen" opacity="0.85">
<path d="M184.071 98.3659C184.438 99.8211 186.095 100.596 187.605 100.947C187.865 100.997 188.113 101.101 188.332 101.254C188.497 101.426 188.612 101.642 188.664 101.878C188.717 102.113 188.704 102.358 188.627 102.586C188.467 103.035 188.382 103.508 188.376 103.986C188.491 104.973 189.661 105.558 190.706 105.58C191.75 105.603 192.762 105.235 193.807 105.157C194.852 105.078 196.071 105.43 196.454 106.35C196.886 107.37 196.126 108.663 196.749 109.594C197.225 110.319 198.341 110.42 199.194 110.118C199.997 109.729 200.767 109.275 201.497 108.758C201.838 108.524 202.246 108.414 202.656 108.446C203.362 108.574 203.679 109.355 203.876 110.018C204.16 110.994 204.423 111.981 204.724 112.956C204.986 113.837 205.429 114.891 206.365 114.997C206.661 115.016 206.958 114.952 207.221 114.812C207.485 114.673 207.707 114.463 207.863 114.205C207.917 114.119 207.963 114.027 208 113.932C207.716 110.509 206.747 106.991 204.511 104.159C204.141 104.194 203.774 104.263 203.417 104.365C201.814 104.811 200.769 104.789 199.725 103.389C199.303 102.699 198.79 102.072 198.199 101.527C196.438 100.189 193.522 100.97 191.931 99.4754C191.447 98.9319 191.051 98.3126 190.76 97.6411C188.573 97.3026 186.369 97.0886 184.159 97C183.983 97.4331 183.952 97.9132 184.071 98.3659V98.3659Z" fill="#611B20"/>
</g>
<path opacity="0.85" d="M205.034 125.119C206.185 125.343 207.201 126.011 207.861 126.98C208.666 128.201 209.062 129.647 208.992 131.108C208.959 132.671 208.599 134.21 207.936 135.626C207.273 137.042 206.321 138.304 205.141 139.33C203.671 140.631 201.748 141.801 199.752 141.976C198.7 142.088 197.645 141.802 196.794 141.174C195.943 140.545 195.358 139.621 195.155 138.583C194.948 137.475 194.948 136.338 195.155 135.23C195.867 130.531 199.181 124.039 205.034 125.119Z" fill="#FFA672"/>
<path opacity="0.85" d="M203.903 129C203.36 129.031 202.83 129.173 202.35 129.417C201.87 129.66 201.451 129.999 201.12 130.411C200.331 131.271 199.74 132.28 199.385 133.37C199.03 134.461 198.919 135.611 199.058 136.745C199.1 137.077 199.649 137.093 199.649 136.745C199.554 134.869 200.154 133.021 201.345 131.524C201.607 131.18 201.909 130.866 202.243 130.585C202.579 130.964 202.812 131.416 202.922 131.9C202.979 132.176 202.999 132.457 202.982 132.738C202.982 132.811 202.982 132.884 202.982 132.957C202.982 132.906 202.982 133.03 202.982 133.03C202.984 133.065 202.984 133.101 202.982 133.137C202.931 133.303 202.903 133.475 202.899 133.648C202.899 133.713 202.92 133.776 202.958 133.83C202.996 133.884 203.05 133.926 203.112 133.951C203.175 133.977 203.245 133.984 203.312 133.972C203.379 133.96 203.441 133.929 203.49 133.884C203.758 133.566 203.901 133.168 203.891 132.76C203.923 132.398 203.889 132.032 203.791 131.681C203.635 131.111 203.32 130.59 202.881 130.175C203.069 130.078 203.267 130.001 203.472 129.944C203.842 129.847 204.236 129.873 204.589 130.017C204.949 130.169 205.126 130.512 205.457 130.686C205.506 130.713 205.56 130.729 205.616 130.733C205.672 130.737 205.728 130.728 205.78 130.708C205.832 130.688 205.878 130.657 205.915 130.617C205.953 130.577 205.98 130.53 205.995 130.478C206.095 129.54 204.695 129.017 203.903 129Z" fill="#C4311D"/>
<path opacity="0.85" d="M175.453 135.172C173.749 134.563 172.461 135.745 169.463 135.994C166.466 136.244 164.507 135.501 164.143 136.128C163.306 137.572 166.229 141 170.468 141C174.708 141 177.157 135.806 175.453 135.172Z" fill="white"/>
<g opacity="0.2">
<path opacity="0.85" d="M174.9 150.903C175.159 151.554 175.514 152.162 175.952 152.709H176.712C177.262 152.709 177.813 152.709 178.396 152.665C185.372 152.197 191.61 147.947 195.408 141.501C195.436 141.441 195.469 141.386 195.496 141.331C195.805 140.78 196.091 140.263 196.366 139.679C196.005 138.981 195.53 138.347 194.962 137.802C193.99 136.935 192.849 136.278 191.611 135.872C190.373 135.467 189.064 135.322 187.767 135.446C185.167 135.719 182.682 136.655 180.549 138.166C178.416 139.51 176.661 141.376 175.451 143.588C174.852 144.7 174.493 145.927 174.398 147.187C174.304 148.447 174.475 149.713 174.9 150.903V150.903Z" fill="#EC372F"/>
<path opacity="0.85" d="M155.914 134.109C155.911 134.14 155.911 134.172 155.914 134.203C155.969 134.797 156.051 135.375 156.134 135.942C156.883 140.852 158.6 145.014 161.865 147.964L161.92 148.019C161.735 145.626 161.282 143.261 160.571 140.968C159.685 138.304 158.16 135.799 155.914 134.109Z" fill="#EC372F"/>
</g>
<path opacity="0.85" d="M175.002 128.953C174.959 130.061 175.593 130.976 176.421 131C177.25 131.023 177.955 130.15 177.998 129.047C178.041 127.944 177.413 127.029 176.584 127.001C175.755 126.972 175.04 127.869 175.002 128.953Z" fill="black"/>
<path opacity="0.85" d="M161.003 127.958C160.955 129.08 161.587 129.977 162.415 130C163.244 130.022 163.95 129.147 163.997 128.042C164.045 126.937 163.413 126.023 162.585 126C161.756 125.978 161.05 126.836 161.003 127.958Z" fill="black"/>
<path opacity="0.85" d="M179.056 119.843C177.915 118.27 176.353 116.696 174.494 116.14C174.174 116.015 173.823 115.973 173.478 116.017C173.134 116.061 172.809 116.191 172.538 116.392C172.321 116.59 172.161 116.835 172.075 117.104C171.988 117.374 171.977 117.659 172.042 117.934C172.31 119.224 173.678 119.712 174.893 120.111C175.661 120.372 176.413 120.671 177.145 121.008C177.567 121.202 180.105 122.801 179.997 121.485C179.967 121.298 179.893 121.119 179.78 120.96C179.586 120.593 179.335 120.221 179.056 119.843Z" fill="black"/>
<path opacity="0.85" d="M160.124 118.981C160.048 119.124 160.005 119.288 160 119.456C160.049 120.689 161.919 119.456 162.235 119.352C162.795 119.119 163.366 118.925 163.946 118.773C164.866 118.541 165.924 118.246 165.998 117.036C166.01 116.751 165.966 116.466 165.87 116.203C165.774 115.94 165.629 115.707 165.444 115.519C165.229 115.302 164.974 115.146 164.698 115.065C164.423 114.984 164.134 114.979 163.857 115.051C162.448 115.363 161.35 116.666 160.603 117.997C160.428 118.315 160.268 118.643 160.124 118.981V118.981Z" fill="black"/>
<path opacity="0.85" d="M167.96 130.215C167.93 129.706 167.843 129.202 167.699 128.709C167.557 128.219 167.358 127.742 167.106 127.288C166.978 127.064 166.832 126.848 166.667 126.643C166.489 126.432 166.317 126.142 166.033 126.036C165.976 126.008 165.911 125.996 165.847 126.001C165.783 126.006 165.721 126.027 165.67 126.062C165.619 126.098 165.581 126.145 165.56 126.2C165.539 126.254 165.536 126.313 165.552 126.369C165.654 126.634 165.802 126.884 165.991 127.108C166.133 127.33 166.276 127.552 166.394 127.779C166.643 128.244 166.828 128.734 166.946 129.237C167.077 129.773 167.129 130.322 167.1 130.87C167.1 131.092 167.071 131.329 166.768 131.345C166.468 131.313 166.182 131.217 165.932 131.065C165.475 130.856 164.947 130.807 164.451 130.926C163.955 131.045 163.527 131.325 163.25 131.71C163.007 132.085 162.938 132.531 163.057 132.951C163.177 133.371 163.476 133.734 163.891 133.96C163.913 133.976 163.939 133.987 163.966 133.993C163.993 134 164.021 134.002 164.049 133.998C164.077 133.995 164.104 133.987 164.128 133.975C164.152 133.962 164.174 133.946 164.191 133.926C164.208 133.906 164.22 133.884 164.228 133.86C164.235 133.835 164.237 133.81 164.233 133.786C164.23 133.761 164.221 133.737 164.207 133.715C164.193 133.693 164.174 133.674 164.152 133.659C163.967 133.511 163.832 133.319 163.764 133.105C163.695 132.891 163.696 132.665 163.766 132.452C163.836 132.238 163.973 132.047 164.16 131.9C164.347 131.753 164.576 131.656 164.822 131.62C165.386 131.562 165.807 131.937 166.317 132.064C166.572 132.147 166.851 132.153 167.11 132.081C167.37 132.01 167.595 131.864 167.753 131.668C167.981 131.212 168.054 130.707 167.96 130.215Z" fill="#C4311D"/>
<path opacity="0.85" d="M31 142C31 150.838 43.9948 158 60 158C76.0052 158 89 150.838 89 142C89 133.162 76.0052 126 60 126C43.9948 126 31 133.162 31 142Z" fill="#003340"/>
<path opacity="0.85" d="M32.4827 92.5815C52.8303 88.8826 73.5865 89.1606 93.8513 93.4032C97.9007 94.1749 101.566 96.5852 104.166 100.187C106.766 103.788 108.125 108.337 107.991 112.988C107.662 120.948 106.471 128.832 104.444 136.462C103.377 140.513 101.174 144.06 98.1694 146.564C95.1643 149.069 91.5206 150.395 87.7905 150.342H86.8781C86.9766 150.009 87.0533 149.668 87.1077 149.322C87.3879 147.265 87.5614 145.191 87.6274 143.111L70.2308 142.707C70.0858 143.906 70.9619 146.097 68.418 150.568C55.9884 150.767 41.7702 151.007 38.8093 151C31.0023 151 23.9566 145.72 21.7752 137.393C19.5241 129.071 18.2562 120.448 18.0047 111.748C17.8053 102.264 24.0231 94.088 32.4827 92.5815Z" fill="#A2BFDC"/>
<path opacity="0.85" d="M63 151.991C64.1848 149.988 65.8129 146.24 65.8268 144C68.3972 144.922 79.8845 145.226 82.3649 144.488C82.9338 144.591 83.4851 144.789 84 145.074C84 145.074 82.1085 146.956 81.9769 147.733C81.5196 150.414 79.4203 152.844 76.94 152.966C73.7044 153.126 64.5243 152.669 64.5243 152.669C64.5243 152.669 63.6859 152.25 63 151.991Z" fill="#008ACD"/>
<path opacity="0.85" d="M18.5 118C18.3842 116.65 18.0662 115.314 18 114C25.8435 116.295 34.07 118.779 34.5106 118.819C35.2304 118.819 57.4702 118.063 69.583 117.644L83.3092 95L99.8835 117.374L108 117.604C107.932 118.333 107.857 119.062 107.771 119.798L98.8969 119.548L83.4705 98.7268L70.6937 119.805H70.1663C68.7515 119.852 35.46 121 34.5106 121C33.9955 121.02 26.2008 119.593 18.5 118Z" fill="#4890C0"/>
<g style="mix-blend-mode:multiply" opacity="0.6">
<g style="mix-blend-mode:multiply" opacity="0.85">
<path d="M31.0428 92.8255C42.2431 90.5633 53.6023 89.7914 64.9317 90.5226C59.1221 90.9097 53.3326 91.6784 47.5871 92.8255C39.9655 94.3358 34.3637 102.488 34.5215 111.96C34.7474 120.642 35.8916 129.248 37.924 137.552C39.7695 145.356 45.4748 150.297 51.9913 150.905C47.5708 151.021 41.4681 151.144 36.7481 151.13C29.7145 151.13 23.3668 145.862 21.4015 137.552C19.3734 129.247 18.2311 120.641 18.0045 111.96C17.8194 102.488 23.4212 94.3289 31.0428 92.8255Z" fill="#A3B6BF"/>
</g>
</g>
<path opacity="0.85" d="M82.0689 120.559C81.3361 130.2 86.5348 138.447 93.6761 138.973C100.817 139.5 107.198 132.141 107.931 122.479C108.664 112.817 103.465 104.597 96.3239 104.03C89.1825 103.463 82.8017 110.925 82.0689 120.559Z" fill="#008ACD"/>
<path opacity="0.85" d="M93.3248 136.976C99.6245 137.445 105.283 130.86 105.938 122.331C106.593 113.802 101.982 106.455 95.6752 106.02C89.3686 105.586 83.7167 112.137 83.062 120.666C82.4072 129.195 87.0182 136.514 93.3248 136.976Z" fill="#003340"/>
<path opacity="0.85" d="M93.4729 134.978C99.246 135.402 104.385 129.713 104.949 122.27C105.513 114.828 101.3 108.447 95.5272 108.022C89.7542 107.598 84.6149 113.287 84.0508 120.73C83.4867 128.172 87.6859 134.553 93.4729 134.978Z" fill="#0C0C0C"/>
<path opacity="0.85" d="M93.5822 133.98C98.7965 134.358 103.442 129.302 103.954 122.684C104.466 116.067 100.653 110.398 95.4175 110.02C90.1819 109.642 85.5581 114.698 85.0459 121.316C84.5337 127.933 88.368 133.595 93.5822 133.98Z" fill="#03566F"/>
<path opacity="0.85" d="M94.3284 130.985C98.1681 131.268 101.588 127.479 101.966 122.513C102.344 117.547 99.539 113.297 95.6713 113.015C91.8035 112.732 88.4114 116.521 88.0337 121.487C87.656 126.453 90.4956 130.703 94.3284 130.985Z" fill="#2BE5F9"/>
<path opacity="0.85" d="M99.6065 126.992C101.809 127.151 103.769 125.04 103.981 122.286C104.193 119.531 102.589 117.167 100.394 117.008C98.1987 116.849 96.2309 118.96 96.0189 121.714C95.807 124.469 97.3965 126.833 99.6065 126.992Z" fill="white"/>
<path opacity="0.85" d="M41.0037 122.751C40.8193 133.243 47.6049 141.89 56.1703 141.999C64.7356 142.108 71.812 133.749 71.9963 123.249C72.1807 112.75 65.3951 104.11 56.8297 104.001C48.2644 103.892 41.188 112.251 41.0037 122.751Z" fill="#008ACD"/>
<path opacity="0.85" d="M55.2128 139.999C62.6515 140.122 68.8377 132.6 68.9969 123.223C69.156 113.845 63.2328 106.132 55.7872 106.002C48.3416 105.872 42.1623 113.407 42.0031 122.777C41.844 132.148 47.7672 139.875 55.2128 139.999Z" fill="#003340"/>
<path opacity="0.85" d="M55.7722 138.999C61.8474 139.104 66.8858 132.48 66.9981 124.196C67.1103 115.912 62.3096 109.106 56.2278 109.001C50.146 108.896 45.1142 115.52 45.0019 123.804C44.8897 132.088 49.664 138.887 55.7722 138.999Z" fill="#0C0C0C"/>
<path opacity="0.85" d="M56.2938 136.999C61.5388 137.095 65.8817 131.352 65.9976 124.175C66.1136 116.998 61.9512 111.097 56.7062 111.001C51.4612 110.905 47.1184 116.655 47.0024 123.832C46.8864 131.009 51.0424 136.903 56.2938 136.999Z" fill="#03566F"/>
<path opacity="0.85" d="M56.3335 133.999C60.4747 134.07 63.903 129.651 63.998 124.134C64.093 118.617 60.8005 114.079 56.6594 114.001C52.5183 113.923 49.09 118.349 49.0017 123.866C48.9135 129.384 52.2128 133.929 56.3335 133.999Z" fill="#2BE5F9"/>
<path opacity="0.85" d="M61.9045 129C64.1082 129 65.9299 126.607 65.9981 123.57C66.0663 120.533 64.2992 118.044 62.0955 118.001C59.8918 117.957 58.0701 120.394 58.0019 123.431C57.9337 126.468 59.7008 128.956 61.9045 129Z" fill="white"/>
<path opacity="0.85" d="M65 152.788C66.1637 150.702 67.7221 147.393 67.7221 145.079C70.2468 146.027 81.5638 145.774 84 145C83.9237 146.131 83.7965 147.257 83.6189 148.373C83.1698 151.153 81.1078 153.672 78.6716 153.799C74.7926 154.02 68.668 154.391 65 152.788Z" fill="#A2BFDC"/>
<path opacity="0.85" d="M43.3414 264.974C42.8482 264.919 42.3712 264.77 41.9377 264.536C41.5041 264.302 41.1225 263.988 40.8146 263.612C40.5067 263.236 40.2785 262.805 40.1432 262.343C40.0078 261.882 39.9679 261.399 40.0257 260.923L45.4637 216.224C45.5812 215.262 46.0895 214.385 46.8768 213.785C47.6641 213.185 48.6659 212.912 49.6618 213.025C50.6578 213.139 51.5662 213.63 52.1874 214.39C52.8085 215.151 53.0914 216.118 52.9739 217.08L47.5431 261.772C47.4855 262.249 47.3311 262.71 47.0886 263.129C46.8461 263.549 46.5204 263.918 46.1301 264.215C45.7398 264.513 45.2926 264.733 44.814 264.863C44.3355 264.993 43.8351 265.031 43.3414 264.974Z" fill="#003340"/>
<path opacity="0.85" d="M73.7455 263.705L67.0066 216.897C66.9519 215.978 67.2405 215.072 67.8152 214.357C68.3899 213.643 69.2089 213.172 70.1102 213.039C71.0115 212.905 71.9296 213.119 72.6828 213.637C73.436 214.155 73.9695 214.94 74.1778 215.836L80.9373 262.643C81.0279 263.13 81.0202 263.631 80.9147 264.115C80.8092 264.599 80.608 265.056 80.3232 265.459C80.0384 265.863 79.6759 266.204 79.2575 266.462C78.8391 266.72 78.3734 266.89 77.8883 266.961C77.4033 267.033 76.9089 267.005 76.435 266.878C75.961 266.752 75.5172 266.53 75.1303 266.226C74.7433 265.922 74.4212 265.541 74.1832 265.108C73.9452 264.675 73.7963 264.198 73.7455 263.705V263.705Z" fill="#003340"/>
<path opacity="0.85" d="M41.6848 211C32.9057 211 47.4467 233 59.5432 233C69.5934 233 85.1959 211.151 76.4168 211.151L41.6848 211Z" fill="#A2BFDC"/>
<g style="mix-blend-mode:multiply" opacity="0.85">
<path d="M76.4045 211H72.4362C69.0448 217.416 60.6156 225.855 54.3465 225.855C49.4213 225.855 44.0246 222.193 40 217.856C43.2014 224.334 51.7854 233 59.4054 233C69.5162 232.972 85.2348 211 76.4045 211Z" fill="#A3B6BF"/>
</g>
<path opacity="0.85" d="M49.3896 244.194L50 284L28 283.163L37.6708 244.134C38.1726 242.108 39.2374 240.176 40.5734 239.507C42.0179 238.785 44.1067 238.927 45.619 239.359C47.3144 239.845 49.3896 242.371 49.3896 244.194Z" fill="#A2BFDC"/>
<g style="mix-blend-mode:multiply" opacity="0.85">
<path d="M49.3896 244.345C49.3735 243.881 49.2676 243.424 49.0777 243C47.3483 258.234 42.357 281.337 28 283.166L50 284L49.3896 244.345Z" fill="#A3B6BF"/>
</g>
<path opacity="0.85" d="M38.9653 284L40.1528 270.665L50 271.658V271.031L40.2083 270.058L42.8889 240C42.6736 240 42.4514 240 42.2361 240.047L40.2569 262.243H33.1597L33.0903 262.517C33.0903 262.63 33.0278 262.75 33 262.87H40.2014L38.3472 283.98L38.9653 284Z" fill="#4890C0"/>
<path opacity="0.85" d="M40.0061 269.578C40.0246 269.696 40.0846 269.803 40.1751 269.88C40.2657 269.957 40.3809 270 40.5 270C40.6191 270 40.7343 269.957 40.8249 269.88C40.9154 269.803 40.9754 269.696 40.9939 269.578C41.0051 269.506 41.0008 269.434 40.9812 269.364C40.9615 269.294 40.927 269.23 40.8801 269.175C40.8331 269.12 40.7749 269.076 40.7093 269.046C40.6436 269.016 40.5722 269 40.5 269C40.4278 269 40.3564 269.016 40.2908 269.046C40.2251 269.076 40.1669 269.12 40.1199 269.175C40.073 269.23 40.0385 269.294 40.0188 269.364C39.9992 269.434 39.9949 269.506 40.0061 269.578Z" fill="#4890C0"/>
<path opacity="0.85" d="M39.0001 260.51C39.0022 260.609 39.0332 260.704 39.0894 260.785C39.1456 260.866 39.2244 260.929 39.3159 260.965C39.4074 261.001 39.5076 261.01 39.6039 260.989C39.7002 260.969 39.7883 260.92 39.8572 260.85C39.9261 260.78 39.9727 260.69 39.9911 260.594C40.0096 260.497 39.9991 260.397 39.961 260.306C39.9228 260.216 39.8588 260.138 39.7768 260.084C39.6948 260.029 39.5986 260 39.5001 260C39.4336 260 39.3677 260.013 39.3063 260.039C39.245 260.065 39.1894 260.103 39.1428 260.15C39.0963 260.198 39.0596 260.254 39.0351 260.316C39.0106 260.378 38.9987 260.444 39.0001 260.51Z" fill="#4890C0"/>
<path opacity="0.85" d="M51.7375 290.944C51.7375 290.944 25.3191 291.299 23.3392 290.219C21.3594 289.139 28.5313 282.142 32.289 280.853C39.259 278.447 49.3469 281.448 51.0102 285.899C52.6736 290.35 51.7375 290.944 51.7375 290.944Z" fill="#BFDAE7"/>
<path opacity="0.85" d="M49.2591 288.605C49.2591 288.605 50.1953 288.02 48.5318 283.698C48.4362 283.453 48.3188 283.219 48.1816 283C49.3909 283.651 50.382 284.716 51.0102 286.039C52.6736 290.36 51.7375 290.946 51.7375 290.946C51.7375 290.946 25.317 291.291 23.337 290.24C22.7982 289.955 22.9396 289.235 23.5188 288.312C30.6846 288.852 49.2591 288.605 49.2591 288.605Z" fill="#003340"/>
<path opacity="0.85" d="M69.6324 243.193L69 283L92 282.163L81.9019 243.133C81.3749 241.109 80.2646 239.172 78.8662 238.504C77.3553 237.789 75.1769 237.924 73.5888 238.356C71.8038 238.875 69.6324 241.372 69.6324 243.193Z" fill="#A2BFDC"/>
<g style="mix-blend-mode:multiply" opacity="0.85">
<path d="M69.6324 243.344C69.6492 242.88 69.7589 242.424 69.9557 242C71.7687 257.232 76.9829 280.299 92 282.167L69 283L69.6324 243.344Z" fill="#A3B6BF"/>
</g>
<path opacity="0.85" d="M78.7734 261.375H86L85.8551 260.796V260.742H78.7182L76.7373 238.041C76.5164 238.041 76.3025 238.041 76.0471 238L78.7389 268.724L69 269.759V270.4L78.877 269.378L80.071 283H80.2919H80.713L78.7734 261.375Z" fill="#4890C0"/>
<path opacity="0.85" d="M68.6688 288C68.6688 288 101.885 287.36 103.802 286.264C105.719 285.169 93.1966 273.814 89.2809 273.096C84.393 272.193 72.4282 277.829 67.819 281.736C65.5688 283.645 68.6688 288 68.6688 288Z" fill="#BFDAE7"/>
<path opacity="0.85" d="M85.233 286.134C83.4682 286.093 81.7303 285.716 80.1234 285.027C78.5165 284.337 77.0737 283.349 75.8815 282.12C74.7045 280.903 73.3575 279.485 72.0104 278C70.184 279.002 68.4586 280.159 66.856 281.458C65.2962 282.796 66.1967 285.224 66.9765 286.722C67.4374 287.518 67.7352 287.993 67.7352 288H69.9614H70.3513H71.1596H71.585H71.8898H72.4287H73.8467H74.5556H75.2646L77.5547 287.94H78.3062H78.9727H79.1357H79.9369H80.0574H80.5324H80.6104L86.0626 287.759H86.1831L89.728 287.625H89.9691L92.0606 287.538C93.8473 287.458 95.5418 287.371 97.0803 287.278L98.9662 287.157C100.001 287.084 100.93 287.01 101.71 286.93L102.142 286.89C102.766 286.816 103.277 286.749 103.66 286.676H103.78H103.844L104 286.642C97.6545 286.415 90.196 286.254 85.233 286.134Z" fill="#003340"/>
<path opacity="0.85" d="M75.9989 210H41.0011C38.7914 210 37 211.567 37 213.5C37 215.433 38.7914 217 41.0011 217H75.9989C78.2086 217 80 215.433 80 213.5C80 211.567 78.2086 210 75.9989 210Z" fill="#003340"/>
<path opacity="0.85" d="M43.3014 210H73.1519C78.4436 204.301 84.5629 197.167 85.5263 189.992C86.0012 186.314 86.4218 181.264 85.2007 178.207C82.7244 171.998 74.563 168.376 71.3948 167.989C63.1197 166.994 54.7738 166.749 46.4561 167.258C45.4582 167.404 44.4909 167.716 43.5931 168.182C38.661 170.252 33.4643 174.509 31.6936 178.739C30.3368 182.002 31.3069 187.453 31.7818 191.102C32.718 198.271 38.0165 204.301 43.3014 210Z" fill="#A2BFDC"/>
<path opacity="0.85" d="M69 170.5C69 172.434 64.9697 174 60.0033 174C55.0368 174 51 172.434 51 170.5C51 168.566 55.0303 167 60.0033 167C64.9762 167 69 168.566 69 170.5Z" fill="#032630"/>
<path opacity="0.85" d="M66.14 210C67.38 195.822 69.5067 181.206 76 169.143C75.149 168.735 74.2739 168.384 73.38 168.092C71.3162 172.082 69.639 176.277 68.3733 180.614C62.7067 180.058 57.04 180.614 51.4067 181.206C50.299 176.301 48.6804 171.537 46.58 167C45.7826 167.204 45.0075 167.493 44.2667 167.863L44 167.981C50.22 180.594 51.1733 195.808 53.3867 210H56.1533C54.7667 201.478 53.8467 192.678 52.08 184.225C57.2267 183.668 62.3667 183.223 67.5267 183.634C65.2933 192.135 64.1933 201.137 63.4067 210H66.14Z" fill="#4890C0"/>
<path opacity="0.85" d="M64.9819 158C64.7587 169.429 65.5006 170.468 64.2401 172.63C61.4245 173.123 58.5514 173.123 55.7359 172.63C55.2513 171.8 54.9964 170.844 55 169.869V158H64.9819Z" fill="#003340"/>
<path opacity="0.85" d="M65.6732 167V167.781C70.6605 170.16 66.4223 173.771 58 174H60.4025C70.4445 174.007 73.2789 169.25 65.6732 167Z" fill="#5B8295"/>
<path opacity="0.85" d="M84.7512 176.018C82.7492 175.671 80.4001 180.303 79.4125 186.366C78.4248 192.429 79.279 197.635 81.2477 197.982C83.2163 198.329 85.5987 193.732 86.5864 187.641C87.574 181.55 86.7265 176.372 84.7512 176.018Z" fill="#032630"/>
<path opacity="0.85" d="M86.5708 188.129L86.4248 189C87.2104 183.096 86.3414 178.122 84.3809 177.768C82.4204 177.414 80.0776 181.79 79 187.679C79.0348 187.384 79.0765 187.096 79.1251 186.801C80.1262 180.484 82.6012 175.657 84.6868 176.019C86.7724 176.381 87.5719 181.805 86.5708 188.129Z" fill="#5B8295"/>
<path opacity="0.85" d="M36.1255 177.059C39.8567 176.438 43.7158 180.806 44.7463 186.875C45.7768 192.943 43.5737 198.32 39.8425 198.941C36.1113 199.562 32.2379 195.173 31.2429 189.133C30.248 183.092 32.3943 177.687 36.1255 177.059Z" fill="#032630"/>
<path opacity="0.85" d="M31.2599 189.165C31.31 189.441 31.3672 189.724 31.4245 190C30.7089 184.29 32.9058 179.337 36.4911 178.743C40.0765 178.148 43.7691 182.125 45 187.743C45 187.467 44.9213 187.184 44.8712 186.901C43.8478 180.844 39.962 176.436 36.2049 177.059C32.4478 177.681 30.2079 183.101 31.2599 189.165Z" fill="#5B8295"/>
<path opacity="0.85" d="M55 185H65L63.2118 199H56.7366L55 185Z" fill="#4890C0"/>
<path opacity="0.85" d="M56.7484 198.858C56.1761 194.112 55.6918 190.044 55 185C55.4843 189.617 56.0189 194.037 56.6352 199C59.6604 199 60.5409 199 63 198.932C61.9497 198.912 57.7233 198.864 56.7484 198.858Z" fill="#1C1713"/>
<path opacity="0.85" d="M56 186L57.3572 198H62.4L64 186.013L56 186Z" fill="#BFDAE7"/>
<path opacity="0.85" d="M60 187.5C60 187.599 59.9706 187.696 59.9157 187.778C59.8608 187.86 59.7827 187.924 59.6913 187.962C59.6 188 59.4994 188.01 59.4024 187.99C59.3055 187.971 59.2164 187.923 59.1464 187.854C59.0765 187.784 59.0289 187.695 59.0096 187.598C58.9903 187.501 59.0002 187.4 59.0381 187.309C59.0759 187.217 59.14 187.139 59.2222 187.084C59.3044 187.029 59.4011 187 59.5 187C59.5658 186.999 59.6312 187.012 59.6922 187.037C59.7532 187.061 59.8086 187.098 59.8552 187.145C59.9018 187.191 59.9386 187.247 59.9634 187.308C59.9883 187.369 60.0007 187.434 60 187.5Z" fill="#1C1713"/>
<path opacity="0.85" d="M59.9999 190.493C60.0014 190.592 59.9732 190.689 59.9192 190.773C59.8651 190.856 59.7875 190.921 59.6963 190.96C59.6051 190.999 59.5043 191.01 59.4069 190.991C59.3094 190.973 59.2196 190.926 59.149 190.856C59.0784 190.786 59.03 190.697 59.0101 190.6C58.9903 190.503 58.9997 190.402 59.0374 190.31C59.075 190.219 59.1391 190.14 59.2214 190.085C59.3038 190.03 59.4008 190 59.4999 190C59.5653 189.999 59.6301 190.011 59.6908 190.035C59.7514 190.06 59.8066 190.096 59.8531 190.142C59.8996 190.188 59.9365 190.242 59.9618 190.303C59.987 190.363 60 190.428 59.9999 190.493V190.493Z" fill="#1C1713"/>
<path opacity="0.85" d="M59.9999 192.5C59.9999 192.599 59.9706 192.696 59.9157 192.778C59.8607 192.86 59.7827 192.924 59.6913 192.962C59.5999 193 59.4994 193.01 59.4024 192.99C59.3054 192.971 59.2164 192.923 59.1464 192.854C59.0765 192.784 59.0289 192.695 59.0096 192.598C58.9903 192.501 59.0002 192.4 59.0381 192.309C59.0759 192.217 59.14 192.139 59.2222 192.084C59.3044 192.029 59.4011 192 59.5 192C59.5659 191.999 59.6313 192.011 59.6924 192.036C59.7535 192.061 59.809 192.098 59.8557 192.144C59.9023 192.191 59.9391 192.246 59.9638 192.308C59.9886 192.369 60.0009 192.434 59.9999 192.5V192.5Z" fill="#1C1713"/>
<path opacity="0.85" d="M59.9999 195.493C60.0014 195.592 59.9732 195.689 59.9192 195.773C59.8651 195.856 59.7875 195.921 59.6963 195.96C59.6051 195.999 59.5043 196.01 59.4069 195.991C59.3094 195.973 59.2196 195.926 59.149 195.856C59.0784 195.786 59.03 195.697 59.0101 195.6C58.9903 195.503 58.9997 195.402 59.0374 195.31C59.075 195.219 59.1391 195.14 59.2214 195.085C59.3038 195.03 59.4008 195 59.4999 195C59.6313 195 59.7574 195.052 59.851 195.144C59.9446 195.236 59.9981 195.361 59.9999 195.493Z" fill="#1C1713"/>
<path opacity="0.85" d="M58 187.5C58 187.633 57.9473 187.76 57.8536 187.854C57.7598 187.947 57.6326 188 57.5 188C57.3674 188 57.2402 187.947 57.1464 187.854C57.0527 187.76 57 187.633 57 187.5C57 187.367 57.0527 187.24 57.1464 187.146C57.2402 187.053 57.3674 187 57.5 187C57.6326 187 57.7598 187.053 57.8536 187.146C57.9473 187.24 58 187.367 58 187.5V187.5Z" fill="#FF0000"/>
<path opacity="0.85" d="M63 187.5C63 187.633 62.9473 187.76 62.8535 187.854C62.7598 187.947 62.6326 188 62.5 188C62.3674 188 62.2402 187.947 62.1464 187.854C62.0527 187.76 62 187.633 62 187.5C62 187.367 62.0527 187.24 62.1464 187.146C62.2402 187.053 62.3674 187 62.5 187C62.6326 187 62.7598 187.053 62.8535 187.146C62.9473 187.24 63 187.367 63 187.5V187.5Z" fill="#83FF33"/>
<path opacity="0.85" d="M85.4559 189.913C84.8422 189.77 84.2852 189.45 83.8553 188.993C83.4254 188.536 83.1421 187.963 83.0411 187.346C82.9402 186.729 83.0261 186.097 83.2881 185.528C83.5501 184.96 83.9764 184.482 84.513 184.154C97.4067 176.27 120.952 143.701 121.19 143.369C121.429 143.024 121.736 142.729 122.092 142.502C122.448 142.275 122.846 142.121 123.263 142.048C123.679 141.975 124.107 141.985 124.519 142.078C124.932 142.171 125.322 142.344 125.666 142.588C126.011 142.832 126.302 143.141 126.525 143.498C126.747 143.855 126.896 144.252 126.961 144.666C127.027 145.08 127.009 145.504 126.908 145.911C126.807 146.318 126.625 146.701 126.372 147.038C125.381 148.422 101.835 180.956 87.8586 189.525C87.5044 189.745 87.1094 189.893 86.6968 189.96C86.2841 190.026 85.8622 190.01 85.4559 189.913V189.913Z" fill="#003340"/>
<path opacity="0.85" d="M129 144.329C129 144.329 120.632 165.343 115.285 168.416C109.939 171.49 101.796 161.556 103.15 158.812C104.264 156.534 124.344 140 124.344 140L129 144.329Z" fill="#A2BFDC"/>
<path opacity="0.85" d="M116.645 152.711L125 141.613L124.349 141L106 165.38C106.202 165.593 106.403 165.8 106.618 166L116.092 153.414C117.688 155.085 119.691 156.254 121.877 156.791L122.013 156.826C122.15 156.543 122.287 156.267 122.417 155.985C120.233 155.512 118.227 154.374 116.645 152.711V152.711Z" fill="#4890C0"/>
<path opacity="0.85" d="M121.012 128.246C120.845 128.234 120.677 128.268 120.526 128.345C120.375 128.422 120.247 128.538 120.155 128.682C120.063 128.827 120.01 128.993 120.001 129.166C119.993 129.338 120.029 129.509 120.107 129.662C120.78 130.936 121.247 132.312 121.489 133.739C121.738 135.926 121.386 140.555 123.258 142.07C125.131 143.585 127.369 144.696 129.753 143.486C132.137 142.275 133.851 138.729 134.963 138.595C136.076 138.46 140.609 134.999 139.931 133.789C139.462 132.953 134.576 136.953 133.837 136.358C133.098 135.763 138.404 130.752 138.273 129.605C138.142 128.459 137.195 128.076 136.366 129.145C135.537 130.214 132.262 134.036 131.84 133.697C131.419 133.357 135.171 127.234 135.378 126.314C135.585 125.394 134.369 124.693 133.872 125.33C133.374 125.967 129.981 131.856 129.422 131.927C128.862 131.998 130.769 125.153 130.983 124.353C131.197 123.554 129.967 122.633 129.152 123.15C128.337 123.667 127.28 132.076 126.298 132.507C125.317 132.939 124.419 133.215 124.073 131.977C123.818 131.035 122.657 128.437 121.012 128.246Z" fill="#003340"/>
<path opacity="0.85" d="M8.02689 225.12C10.1754 205.265 24.6726 189.549 31.6192 185.43C32.436 184.999 33.3925 184.887 34.292 185.117C35.1916 185.347 35.9658 185.901 36.4555 186.666C36.9451 187.43 37.113 188.347 36.9246 189.228C36.7362 190.108 36.2059 190.886 35.4426 191.4C35.3053 191.48 27.281 196.495 20.2521 209.537C17.5332 214.623 15.8353 220.16 15.248 225.856C15.198 226.315 15.055 226.759 14.8272 227.165C14.5993 227.57 14.2911 227.928 13.9201 228.218C13.5492 228.508 13.1227 228.725 12.6651 228.856C12.2075 228.987 11.7277 229.029 11.2531 228.981C10.7785 228.932 10.3184 228.794 9.89905 228.574C9.47972 228.354 9.10938 228.056 8.80916 227.697C8.50895 227.339 8.28474 226.927 8.14934 226.484C8.01394 226.042 7.97 225.578 8.02002 225.12H8.02689Z" fill="#003340"/>
<path opacity="0.85" d="M7.38938 230.167C7.38938 230.167 5.71421 208.072 9.31299 203.068C12.9118 198.065 25.0142 203.33 25 206.352C25 208.844 13.721 232 13.721 232L7.38938 230.167Z" fill="#A2BFDC"/>
<path opacity="0.85" d="M14.223 217.746L10.9809 231.735L11.8775 232L19 201.279C18.7059 201.174 18.4047 201.084 18.1106 201L14.431 216.862C12.0883 216.089 9.57072 215.961 7.1578 216.493L7 216.528C7 216.848 7 217.162 7 217.482C9.38289 216.886 11.8931 216.978 14.223 217.746V217.746Z" fill="#4890C0"/>
<path opacity="0.85" d="M6.19084 230.465C6.19084 230.465 8.41964 227.64 12.1554 229.836C15.8912 232.033 13.5991 236.122 14.2512 238.48C14.9034 240.839 15.4353 244.01 14.4792 244.335C13.5231 244.66 11.269 240.663 10.908 239.391C10.5471 238.12 7.22293 243.431 6.47577 245.041C5.72862 246.651 7.05197 252.584 5.89324 252.986C4.73452 253.389 2.32843 244.914 2.01818 243.805C1.70792 242.696 5.46268 232.011 6.19084 230.465Z" fill="#003340"/>
<path d="M79.4816 40.1943V35.5068C80.3312 36.2197 81.2541 36.7568 82.2502 37.1182C83.2463 37.4697 84.2521 37.6455 85.2678 37.6455C85.8635 37.6455 86.3811 37.5918 86.8205 37.4844C87.2697 37.377 87.6408 37.2305 87.9338 37.0449C88.2365 36.8496 88.4611 36.625 88.6076 36.3711C88.7541 36.1074 88.8273 35.8242 88.8273 35.5215C88.8273 35.1113 88.7102 34.7451 88.4758 34.4229C88.2414 34.1006 87.9191 33.8027 87.509 33.5293C87.1086 33.2559 86.6301 32.9922 86.0734 32.7383C85.5168 32.4844 84.9162 32.2256 84.2717 31.9619C82.6311 31.2783 81.4055 30.4434 80.5949 29.457C79.7941 28.4707 79.3937 27.2793 79.3937 25.8828C79.3937 24.7891 79.6135 23.8516 80.0529 23.0703C80.4924 22.2793 81.0881 21.6299 81.84 21.1221C82.6018 20.6143 83.4807 20.2432 84.4768 20.0088C85.4729 19.7646 86.5275 19.6426 87.6408 19.6426C88.7346 19.6426 89.7014 19.7109 90.5412 19.8477C91.3908 19.9746 92.1721 20.1748 92.885 20.4482V24.8281C92.5334 24.584 92.1477 24.3691 91.7277 24.1836C91.3176 23.998 90.8928 23.8467 90.4533 23.7295C90.0139 23.6025 89.5744 23.5098 89.135 23.4512C88.7053 23.3926 88.2951 23.3633 87.9045 23.3633C87.3674 23.3633 86.8791 23.417 86.4396 23.5244C86.0002 23.6221 85.6291 23.7637 85.3264 23.9492C85.0236 24.1348 84.7893 24.3594 84.6232 24.623C84.4572 24.877 84.3742 25.165 84.3742 25.4873C84.3742 25.8389 84.467 26.1562 84.6525 26.4395C84.8381 26.7129 85.1018 26.9766 85.4436 27.2305C85.7854 27.4746 86.2004 27.7188 86.6887 27.9629C87.177 28.1973 87.7287 28.4414 88.3439 28.6953C89.1838 29.0469 89.9357 29.4229 90.5998 29.8232C91.2736 30.2139 91.8498 30.6582 92.3283 31.1562C92.8068 31.6543 93.173 32.2256 93.427 32.8701C93.6809 33.5049 93.8078 34.2471 93.8078 35.0967C93.8078 36.2686 93.5832 37.2549 93.134 38.0557C92.6945 38.8467 92.0939 39.4912 91.3322 39.9893C90.5705 40.4775 89.6818 40.8291 88.6662 41.0439C87.6604 41.2588 86.5959 41.3662 85.4729 41.3662C84.3205 41.3662 83.2219 41.2686 82.177 41.0732C81.1418 40.8779 80.2434 40.585 79.4816 40.1943ZM106.478 40.8242C105.795 41.1855 104.764 41.3662 103.387 41.3662C100.126 41.3662 98.4947 39.6719 98.4947 36.2832V29.4131H96.0631V26H98.4947V22.7627L103.109 21.4443V26H106.478V29.4131H103.109V35.4775C103.109 37.04 103.729 37.8213 104.969 37.8213C105.458 37.8213 105.961 37.6797 106.478 37.3965V40.8242ZM123.177 34.8184H113.392C113.548 36.9961 114.92 38.085 117.508 38.085C119.158 38.085 120.608 37.6943 121.858 36.9131V40.2529C120.472 40.9951 118.67 41.3662 116.453 41.3662C114.031 41.3662 112.151 40.6973 110.813 39.3594C109.476 38.0117 108.807 36.1367 108.807 33.7344C108.807 31.2441 109.529 29.2715 110.975 27.8164C112.42 26.3613 114.197 25.6338 116.307 25.6338C118.494 25.6338 120.184 26.2832 121.375 27.582C122.576 28.8809 123.177 30.6436 123.177 32.8701V34.8184ZM118.885 31.9766C118.885 29.8281 118.016 28.7539 116.277 28.7539C115.535 28.7539 114.891 29.0615 114.344 29.6768C113.807 30.292 113.479 31.0586 113.362 31.9766H118.885ZM150.349 41H145.735V32.4453C145.735 30.2676 144.934 29.1787 143.332 29.1787C142.571 29.1787 141.951 29.5059 141.472 30.1602C140.994 30.8145 140.754 31.6299 140.754 32.6064V41H136.125V32.3574C136.125 30.2383 135.339 29.1787 133.767 29.1787C132.976 29.1787 132.341 29.4912 131.863 30.1162C131.394 30.7412 131.16 31.5908 131.16 32.665V41H126.531V26H131.16V28.3438H131.218C131.697 27.543 132.366 26.8936 133.225 26.3955C134.094 25.8877 135.041 25.6338 136.067 25.6338C138.186 25.6338 139.636 26.5664 140.417 28.4316C141.56 26.5664 143.24 25.6338 145.456 25.6338C148.718 25.6338 150.349 27.6455 150.349 31.6689V41ZM76.0621 70H70.6275L67.3609 64.5947C67.1168 64.1846 66.8824 63.8184 66.6578 63.4961C66.4332 63.1738 66.2037 62.9004 65.9693 62.6758C65.7447 62.4414 65.5055 62.2656 65.2516 62.1484C65.0074 62.0215 64.7389 61.958 64.4459 61.958H63.1715V70H58.44V48.9941H65.94C71.0377 48.9941 73.5865 50.8984 73.5865 54.707C73.5865 55.4395 73.4742 56.1182 73.2496 56.7432C73.025 57.3584 72.7076 57.915 72.2975 58.4131C71.8873 58.9111 71.3893 59.3408 70.8033 59.7021C70.2271 60.0635 69.5826 60.3467 68.8697 60.5518V60.6104C69.1822 60.708 69.485 60.8691 69.7779 61.0938C70.0709 61.3086 70.3541 61.5625 70.6275 61.8555C70.901 62.1484 71.1598 62.4658 71.4039 62.8076C71.6578 63.1396 71.8873 63.4668 72.0924 63.7891L76.0621 70ZM63.1715 52.5391V58.3838H65.2223C66.2379 58.3838 67.0533 58.0908 67.6686 57.5049C68.2936 56.9092 68.6061 56.1719 68.6061 55.293C68.6061 53.457 67.5074 52.5391 65.3102 52.5391H63.1715ZM85.334 70.3662C82.834 70.3662 80.8662 69.668 79.4307 68.2715C78.0049 66.8652 77.292 64.9609 77.292 62.5586C77.292 60.0781 78.0342 58.1396 79.5186 56.7432C81.0029 55.3369 83.0098 54.6338 85.5391 54.6338C88.0293 54.6338 89.9824 55.3369 91.3984 56.7432C92.8145 58.1396 93.5225 59.9902 93.5225 62.2949C93.5225 64.7852 92.79 66.7529 91.3252 68.1982C89.8701 69.6436 87.873 70.3662 85.334 70.3662ZM85.4512 58.1787C84.3574 58.1787 83.5078 58.5547 82.9023 59.3066C82.2969 60.0586 81.9941 61.123 81.9941 62.5C81.9941 65.3809 83.1563 66.8213 85.4805 66.8213C87.6973 66.8213 88.8057 65.3418 88.8057 62.3828C88.8057 59.5801 87.6875 58.1787 85.4512 58.1787ZM101.813 68.2568H101.754V70H97.1254V47.793H101.754V57.2559H101.813C102.955 55.5078 104.581 54.6338 106.691 54.6338C108.624 54.6338 110.114 55.2979 111.159 56.626C112.204 57.9541 112.726 59.7705 112.726 62.0752C112.726 64.5752 112.116 66.582 110.895 68.0957C109.674 69.6094 108.043 70.3662 106.002 70.3662C104.157 70.3662 102.76 69.6631 101.813 68.2568ZM101.681 61.9287V63.4668C101.681 64.4336 101.959 65.2344 102.516 65.8691C103.073 66.5039 103.786 66.8213 104.655 66.8213C105.709 66.8213 106.525 66.416 107.101 65.6055C107.687 64.7852 107.98 63.6279 107.98 62.1338C107.98 60.8936 107.711 59.9268 107.174 59.2334C106.647 58.5303 105.89 58.1787 104.904 58.1787C103.976 58.1787 103.204 58.5254 102.589 59.2188C101.984 59.9121 101.681 60.8154 101.681 61.9287ZM123.477 70.3662C120.977 70.3662 119.01 69.668 117.574 68.2715C116.148 66.8652 115.435 64.9609 115.435 62.5586C115.435 60.0781 116.178 58.1396 117.662 56.7432C119.146 55.3369 121.153 54.6338 123.682 54.6338C126.173 54.6338 128.126 55.3369 129.542 56.7432C130.958 58.1396 131.666 59.9902 131.666 62.2949C131.666 64.7852 130.933 66.7529 129.469 68.1982C128.013 69.6436 126.016 70.3662 123.477 70.3662ZM123.595 58.1787C122.501 58.1787 121.651 58.5547 121.046 59.3066C120.44 60.0586 120.138 61.123 120.138 62.5C120.138 65.3809 121.3 66.8213 123.624 66.8213C125.841 66.8213 126.949 65.3418 126.949 62.3828C126.949 59.5801 125.831 58.1787 123.595 58.1787ZM144.336 69.8242C143.653 70.1855 142.622 70.3662 141.245 70.3662C137.984 70.3662 136.353 68.6719 136.353 65.2832V58.4131H133.921V55H136.353V51.7627L140.967 50.4443V55H144.336V58.4131H140.967V64.4775C140.967 66.04 141.587 66.8213 142.827 66.8213C143.316 66.8213 143.819 66.6797 144.336 66.3965V69.8242ZM149.902 52.627C149.121 52.627 148.481 52.3975 147.983 51.9385C147.485 51.4697 147.236 50.8984 147.236 50.2246C147.236 49.5312 147.485 48.9648 147.983 48.5254C148.481 48.0859 149.121 47.8662 149.902 47.8662C150.693 47.8662 151.333 48.0859 151.821 48.5254C152.319 48.9648 152.568 49.5312 152.568 50.2246C152.568 50.9277 152.319 51.5039 151.821 51.9531C151.333 52.4023 150.693 52.627 149.902 52.627ZM152.187 70H147.558V55H152.187V70ZM168.051 69.458C167.006 70.0635 165.497 70.3662 163.524 70.3662C161.22 70.3662 159.354 69.668 157.929 68.2715C156.503 66.875 155.79 65.0732 155.79 62.8662C155.79 60.3174 156.552 58.3105 158.075 56.8457C159.608 55.3711 161.654 54.6338 164.213 54.6338C165.98 54.6338 167.26 54.8682 168.051 55.3369V59.2627C167.084 58.54 166.005 58.1787 164.813 58.1787C163.485 58.1787 162.431 58.5693 161.649 59.3506C160.878 60.1221 160.492 61.1914 160.492 62.5586C160.492 63.8867 160.863 64.9316 161.605 65.6934C162.348 66.4453 163.368 66.8213 164.667 66.8213C165.819 66.8213 166.947 66.46 168.051 65.7373V69.458ZM170.716 69.6045V65.8545C171.478 66.3135 172.235 66.6553 172.987 66.8799C173.748 67.1045 174.466 67.2168 175.14 67.2168C175.96 67.2168 176.605 67.1045 177.074 66.8799C177.552 66.6553 177.791 66.3135 177.791 65.8545C177.791 65.5615 177.684 65.3174 177.469 65.1221C177.254 64.9268 176.976 64.7559 176.634 64.6094C176.302 64.4629 175.936 64.3311 175.536 64.2139C175.135 64.0967 174.749 63.9648 174.378 63.8184C173.783 63.5938 173.255 63.3545 172.796 63.1006C172.347 62.8369 171.966 62.5342 171.654 62.1924C171.351 61.8506 171.117 61.4551 170.951 61.0059C170.794 60.5566 170.716 60.0244 170.716 59.4092C170.716 58.5693 170.897 57.8467 171.258 57.2412C171.629 56.6357 172.118 56.1426 172.723 55.7617C173.338 55.3711 174.037 55.0879 174.818 54.9121C175.609 54.7266 176.429 54.6338 177.279 54.6338C177.943 54.6338 178.617 54.6875 179.3 54.7949C179.984 54.8926 180.658 55.0391 181.322 55.2344V58.8086C180.736 58.4668 180.106 58.2129 179.432 58.0469C178.768 57.8711 178.114 57.7832 177.469 57.7832C177.166 57.7832 176.878 57.8125 176.605 57.8711C176.341 57.9199 176.107 57.998 175.902 58.1055C175.697 58.2031 175.536 58.335 175.418 58.501C175.301 58.6572 175.243 58.8379 175.243 59.043C175.243 59.3164 175.33 59.5508 175.506 59.7461C175.682 59.9414 175.912 60.1123 176.195 60.2588C176.478 60.3955 176.79 60.5225 177.132 60.6396C177.484 60.7471 177.83 60.8594 178.172 60.9766C178.787 61.1914 179.344 61.4258 179.842 61.6797C180.34 61.9336 180.765 62.2314 181.117 62.5732C181.478 62.915 181.751 63.3154 181.937 63.7744C182.132 64.2334 182.23 64.7803 182.23 65.415C182.23 66.3037 182.035 67.0654 181.644 67.7002C181.263 68.3252 180.75 68.8379 180.106 69.2383C179.471 69.6289 178.734 69.9121 177.894 70.0879C177.064 70.2734 176.2 70.3662 175.301 70.3662C173.651 70.3662 172.122 70.1123 170.716 69.6045Z" fill="#F0B444"/>
<defs>
<filter id="filter0_f" x="0" y="0" width="245" height="345" filterUnits="userSpaceOnUse" color-interpolation-filters="sRGB">
<feFlood flood-opacity="0" result="BackgroundImageFix"/>
<feBlend mode="normal" in="SourceGraphic" in2="BackgroundImageFix" result="shape"/>
<feGaussianBlur stdDeviation="12.5" result="effect1_foregroundBlur"/>
</filter>
<filter id="filter1_i" x="21" y="9" width="196" height="297" filterUnits="userSpaceOnUse" color-interpolation-filters="sRGB">
<feFlood flood-opacity="0" result="BackgroundImageFix"/>
<feBlend mode="normal" in="SourceGraphic" in2="BackgroundImageFix" result="shape"/>
<feColorMatrix in="SourceAlpha" type="matrix" values="0 0 0 0 0 0 0 0 0 0 0 0 0 0 0 0 0 0 127 0" result="hardAlpha"/>
<feOffset/>
<feGaussianBlur stdDeviation="5"/>
<feComposite in2="hardAlpha" operator="arithmetic" k2="-1" k3="1"/>
<feColorMatrix type="matrix" values="0 0 0 0 0 0 0 0 0 0 0 0 0 0 0 0 0 0 0.25 0"/>
<feBlend mode="normal" in2="shape" result="effect1_innerShadow"/>
</filter>
<linearGradient id="paint0_linear" x1="119" y1="205" x2="119" y2="306" gradientUnits="userSpaceOnUse">
<stop stop-color="#FFF420"/>
<stop offset="1" stop-color="#EC9F52"/>
</linearGradient>
</defs>
</svg>
