<svg width="220" height="338" viewBox="0 0 220 338" fill="none" xmlns="http://www.w3.org/2000/svg">
<g filter="url(#filter0_di)">
<rect x="13" y="13" width="194" height="312" rx="5" fill="white"/>
</g>
<path d="M144.534 165C106.343 173.8 40.9319 158.667 13 150V309C13 311.761 15.2386 314 18 314H202C204.761 314 207 311.761 207 309V150C202.091 151.333 182.725 156.2 144.534 165Z" fill="#C0267D" fill-opacity="0.27"/>
<path d="M144.534 176C106.343 184.8 40.9319 169.667 13 161V320C13 322.761 15.2386 325 18 325H202C204.761 325 207 322.761 207 320V161C202.091 162.333 182.725 167.2 144.534 176Z" fill="url(#paint0_linear)"/>
<g filter="url(#filter1_i)">
<circle cx="43" cy="43" r="16" fill="url(#paint1_linear)"/>
</g>
<path d="M36.94 47.16V44.96L43.48 35.6H46.74V44.72H48.5V47.16H46.74V50H43.94V47.16H36.94ZM44.12 38.6L40.02 44.72H44.12V38.6Z" fill="white"/>
<rect x="77.7139" y="121.265" width="67.9954" height="68.4257" rx="11" fill="#1A323E"/>
<path d="M95.7881 104.912C95.7881 103.249 97.1368 101.9 98.8005 101.9V101.9C100.464 101.9 101.813 103.249 101.813 104.912V119.114H95.7881V104.912Z" fill="#1A323E"/>
<path d="M95.7881 206.045C95.7881 207.709 97.1368 209.057 98.8005 209.057V209.057C100.464 209.057 101.813 207.709 101.813 206.045V191.843H95.7881V206.045Z" fill="#1A323E"/>
<path d="M162.491 139.34C164.155 139.34 165.504 140.689 165.504 142.353V142.353C165.504 144.016 164.155 145.365 162.491 145.365L148.29 145.365L148.29 139.34L162.491 139.34Z" fill="#1A323E"/>
<path d="M60.9285 139.34C59.2647 139.34 57.916 140.689 57.916 142.353V142.353C57.916 144.016 59.2647 145.365 60.9285 145.365L75.13 145.365L75.13 139.34L60.9285 139.34Z" fill="#1A323E"/>
<path d="M108.698 104.912C108.698 103.249 110.047 101.9 111.711 101.9V101.9C113.374 101.9 114.723 103.249 114.723 104.912V119.114H108.698V104.912Z" fill="#1A323E"/>
<path d="M108.698 206.045C108.698 207.709 110.047 209.057 111.711 209.057V209.057C113.374 209.057 114.723 207.709 114.723 206.045V191.843H108.698V206.045Z" fill="#1A323E"/>
<path d="M162.491 152.251C164.155 152.251 165.504 153.6 165.504 155.264V155.264C165.504 156.927 164.155 158.276 162.491 158.276L148.29 158.276L148.29 152.251L162.491 152.251Z" fill="#1A323E"/>
<path d="M60.9285 152.251C59.2647 152.251 57.916 153.6 57.916 155.264V155.264C57.916 156.927 59.2647 158.276 60.9285 158.276L75.13 158.276L75.13 152.251L60.9285 152.251Z" fill="#1A323E"/>
<path d="M121.607 104.912C121.607 103.249 122.956 101.9 124.62 101.9V101.9C126.284 101.9 127.632 103.249 127.632 104.912V119.114H121.607V104.912Z" fill="#1A323E"/>
<path d="M121.607 206.045C121.607 207.709 122.956 209.057 124.62 209.057V209.057C126.284 209.057 127.632 207.709 127.632 206.045V191.843H121.607V206.045Z" fill="#1A323E"/>
<path d="M162.491 165.161C164.155 165.161 165.504 166.51 165.504 168.174V168.174C165.504 169.837 164.155 171.186 162.491 171.186L148.29 171.186L148.29 165.161L162.491 165.161Z" fill="#1A323E"/>
<path d="M60.9285 165.161C59.2647 165.161 57.916 166.51 57.916 168.174V168.174C57.916 169.837 59.2647 171.186 60.9285 171.186L75.13 171.186L75.13 165.161L60.9285 165.161Z" fill="#1A323E"/>
<path d="M94.5591 156.65C93.9871 156.371 93.7011 155.865 93.7011 155.132C93.7011 154.399 93.9944 153.885 94.5811 153.592C99.6118 150.615 102.501 148.899 103.249 148.444C103.997 147.989 104.444 147.74 104.591 147.696C104.752 147.623 104.943 147.586 105.163 147.586C105.559 147.586 105.97 147.945 106.395 148.664C106.674 149.119 106.813 149.463 106.813 149.698C106.813 149.918 106.762 150.109 106.659 150.27C106.527 150.505 106.226 150.776 105.757 151.084C101.386 153.665 99.1131 155.015 98.9371 155.132L105.757 159.18C106.036 159.341 106.234 159.473 106.351 159.576C106.674 159.84 106.835 160.126 106.835 160.434C106.835 160.727 106.703 161.087 106.439 161.512C106.19 161.923 105.962 162.216 105.757 162.392C105.552 162.568 105.339 162.656 105.119 162.656C104.826 162.656 104.444 162.517 103.975 162.238L94.5591 156.65ZM111.476 162.876C111.359 163.125 111.263 163.309 111.19 163.426C111.131 163.543 111.021 163.653 110.86 163.756C110.713 163.873 110.515 163.932 110.266 163.932C110.017 163.932 109.65 163.822 109.166 163.602C108.682 163.382 108.352 163.184 108.176 163.008C108.015 162.847 107.934 162.663 107.934 162.458C107.934 162.253 108.022 161.886 108.198 161.358L115.282 146.552C115.561 145.995 115.81 145.672 116.03 145.584C116.147 145.525 116.316 145.496 116.536 145.496C116.771 145.496 117.145 145.613 117.658 145.848C118.45 146.229 118.846 146.647 118.846 147.102C118.846 147.293 118.743 147.659 118.538 148.202L111.476 162.876ZM132.186 153.592C132.773 153.885 133.066 154.399 133.066 155.132C133.066 155.865 132.78 156.371 132.208 156.65L122.814 162.238C122.066 162.722 121.465 162.773 121.01 162.392C120.805 162.216 120.592 161.952 120.372 161.6C120.079 161.116 119.932 160.764 119.932 160.544C119.932 160.324 119.976 160.133 120.064 159.972C120.225 159.723 120.541 159.459 121.01 159.18L127.852 155.132L121.032 151.084C120.768 150.923 120.57 150.791 120.438 150.688C120.115 150.409 119.954 150.109 119.954 149.786C119.954 149.493 120.079 149.141 120.328 148.73C120.783 147.967 121.208 147.586 121.604 147.586C121.956 147.586 122.352 147.725 122.792 148.004L132.186 153.592Z" fill="white"/>
<path d="M57.916 209.593V227.81L69.1675 236.918V314.607" stroke="white" stroke-linecap="round" stroke-linejoin="round"/>
<path d="M162.395 209.593V227.81L151.143 236.918V314.607" stroke="white" stroke-linecap="round" stroke-linejoin="round"/>
<path d="M138.282 230.489L138.282 252.073L127.567 262.1V314.071" stroke="white" stroke-linecap="round" stroke-linejoin="round"/>
<path d="M84.7051 230.489L84.7051 252.073L95.4208 262.1V314.071" stroke="white" stroke-linecap="round" stroke-linejoin="round"/>
<path d="M77.2031 241.204V258.349L83.6326 262.711V303.355" stroke="white" stroke-linecap="round" stroke-linejoin="round"/>
<path d="M50.4141 218.701V242.812L56.8435 247.254V301.212" stroke="white" stroke-linecap="round" stroke-linejoin="round"/>
<path d="M125.424 236.918V254.063L118.994 258.425V299.069" stroke="white" stroke-linecap="round" stroke-linejoin="round"/>
<path d="M168.286 216.558V239.911L161.857 245.852V301.213" stroke="white" stroke-linecap="round" stroke-linejoin="round"/>
<circle cx="57.9159" cy="206.914" r="2.71472" stroke="white"/>
<circle r="2.71472" transform="matrix(-1 0 0 1 162.393 206.914)" stroke="white"/>
<circle r="2.71472" transform="matrix(-1 0 0 1 138.283 227.274)" stroke="white"/>
<circle cx="84.7049" cy="227.274" r="2.71472" stroke="white"/>
<g filter="url(#filter2_i)">
<path d="M66.7447 86.46H72.9047C73.2114 86.46 73.438 86.4733 73.5847 86.5C73.7447 86.5133 73.9247 86.5733 74.1247 86.68C74.4847 86.8667 74.6647 87.3867 74.6647 88.24C74.6647 89.1733 74.418 89.72 73.9247 89.88C73.698 89.96 73.3514 90 72.8847 90H64.9647C64.0314 90 63.4847 89.7467 63.3247 89.24C63.2447 89.0267 63.2047 88.6867 63.2047 88.22V77.1C63.2047 76.42 63.3314 75.96 63.5847 75.72C63.838 75.4667 64.318 75.34 65.0247 75.34H72.9047C73.2114 75.34 73.438 75.3533 73.5847 75.38C73.7447 75.3933 73.9247 75.4533 74.1247 75.56C74.4847 75.7467 74.6647 76.2667 74.6647 77.12C74.6647 78.0533 74.418 78.6 73.9247 78.76C73.698 78.84 73.3514 78.88 72.8847 78.88H66.7447V80.9H70.7047C71.0114 80.9 71.238 80.9133 71.3847 80.94C71.5447 80.9533 71.7247 81.0133 71.9247 81.12C72.2847 81.3067 72.4647 81.8267 72.4647 82.68C72.4647 83.6133 72.2114 84.16 71.7047 84.32C71.478 84.4 71.1314 84.44 70.6647 84.44H66.7447V86.46ZM79.7986 80.86C80.4253 79.9133 81.1786 79.44 82.0586 79.44C83.4186 79.44 84.4319 80.02 85.0986 81.18C85.2453 80.98 85.4186 80.7733 85.6186 80.56C85.8319 80.3333 86.1653 80.0933 86.6186 79.84C87.0719 79.5733 87.5386 79.44 88.0186 79.44C89.0853 79.44 89.9786 79.8533 90.6986 80.68C91.4186 81.4933 91.7786 82.8467 91.7786 84.74V88.24C91.7786 88.5467 91.7653 88.78 91.7386 88.94C91.7253 89.0867 91.6653 89.26 91.5586 89.46C91.3853 89.82 90.8719 90 90.0186 90C89.1786 90 88.6653 89.8133 88.4786 89.44C88.3853 89.24 88.3253 89.0667 88.2986 88.92C88.2853 88.76 88.2786 88.5267 88.2786 88.22V84.72C88.2786 83.56 87.8653 82.98 87.0386 82.98C86.5719 82.98 86.2519 83.1333 86.0786 83.44C85.9186 83.7467 85.8386 84.18 85.8386 84.74V88.24C85.8386 88.56 85.8253 88.7933 85.7986 88.94C85.7853 89.0867 85.7253 89.26 85.6186 89.46C85.4319 89.82 84.9119 90 84.0586 90C83.2186 90 82.7053 89.8133 82.5186 89.44C82.4253 89.24 82.3653 89.0667 82.3386 88.92C82.3253 88.76 82.3186 88.5267 82.3186 88.22V84.72C82.3186 83.56 81.9053 82.98 81.0786 82.98C80.2786 82.98 79.8786 83.56 79.8786 84.72V88.26C79.8786 88.5667 79.8653 88.8 79.8386 88.96C79.8253 89.1067 79.7653 89.28 79.6586 89.48C79.4586 89.8267 78.9386 90 78.0986 90C77.2586 90 76.7453 89.82 76.5586 89.46C76.4653 89.26 76.4053 89.0867 76.3786 88.94C76.3653 88.7933 76.3586 88.56 76.3586 88.24V81.2C76.3586 80.8933 76.3653 80.6667 76.3786 80.52C76.4053 80.36 76.4719 80.1867 76.5786 80C76.7786 79.64 77.2519 79.46 77.9986 79.46C78.7453 79.46 79.2319 79.58 79.4586 79.82C79.6853 80.06 79.7986 80.4067 79.7986 80.86ZM99.5503 79.48C100.737 79.48 101.824 80.0067 102.81 81.06C103.81 82.1133 104.31 83.34 104.31 84.74C104.31 86.1267 103.817 87.3467 102.83 88.4C101.844 89.44 100.784 89.96 99.6503 89.96C98.517 89.96 97.7103 89.64 97.2303 89C97.1236 89.6533 96.5503 89.98 95.5103 89.98C94.6703 89.98 94.157 89.8 93.9703 89.44C93.877 89.24 93.817 89.0667 93.7903 88.92C93.777 88.76 93.7703 88.5267 93.7703 88.22V76.28C93.7703 75.9733 93.777 75.7467 93.7903 75.6C93.817 75.44 93.877 75.2667 93.9703 75.08C94.157 74.72 94.677 74.54 95.5303 74.54C96.3703 74.54 96.877 74.72 97.0503 75.08C97.157 75.28 97.217 75.46 97.2303 75.62C97.257 75.7667 97.2703 75.9933 97.2703 76.3V80.46C97.8036 79.8067 98.5636 79.48 99.5503 79.48ZM97.7903 85.94C98.1236 86.3 98.537 86.48 99.0303 86.48C99.5236 86.48 99.9436 86.3 100.29 85.94C100.637 85.58 100.81 85.18 100.81 84.74C100.81 84.3 100.65 83.9 100.33 83.54C100.01 83.1667 99.5836 82.98 99.0503 82.98C98.517 82.98 98.0903 83.1667 97.7703 83.54C97.4636 83.9133 97.3103 84.32 97.3103 84.76C97.3103 85.1867 97.4703 85.58 97.7903 85.94ZM116.166 83.48C116.166 84.2933 115.96 84.9 115.546 85.3C115.146 85.6867 114.7 85.88 114.206 85.88H109.466C109.466 86.2533 109.686 86.5667 110.126 86.82C110.566 87.0733 111.006 87.2 111.446 87.2C112.22 87.2 112.826 87.12 113.266 86.96L113.486 86.88C113.806 86.7333 114.073 86.66 114.286 86.66C114.713 86.66 115.08 86.96 115.386 87.56C115.56 87.92 115.646 88.2267 115.646 88.48C115.646 89.6667 114.226 90.26 111.386 90.26C110.4 90.26 109.52 90.0933 108.746 89.76C107.986 89.4133 107.393 88.96 106.966 88.4C106.126 87.32 105.706 86.1133 105.706 84.78C105.706 83.1 106.246 81.76 107.326 80.76C108.42 79.7467 109.78 79.24 111.406 79.24C113.26 79.24 114.62 79.8933 115.486 81.2C115.94 81.8933 116.166 82.6533 116.166 83.48ZM111.946 84.06C112.453 84.06 112.706 83.8467 112.706 83.42C112.706 83.1133 112.586 82.8667 112.346 82.68C112.12 82.4933 111.786 82.4 111.346 82.4C110.92 82.4 110.493 82.58 110.066 82.94C109.64 83.2867 109.426 83.66 109.426 84.06H111.946ZM124.931 75.08C125.038 74.88 125.218 74.74 125.471 74.66C125.724 74.58 126.058 74.54 126.471 74.54C126.898 74.54 127.238 74.58 127.491 74.66C127.744 74.74 127.918 74.88 128.011 75.08C128.118 75.28 128.178 75.46 128.191 75.62C128.218 75.7667 128.231 75.9933 128.231 76.3V88.24C128.231 88.5467 128.218 88.78 128.191 88.94C128.178 89.0867 128.118 89.2533 128.011 89.44C127.811 89.8 127.244 89.98 126.311 89.98C125.391 89.98 124.878 89.6533 124.771 89C124.211 89.64 123.431 89.96 122.431 89.96C121.231 89.96 120.138 89.44 119.151 88.4C118.164 87.3467 117.671 86.1267 117.671 84.74C117.671 83.34 118.164 82.1133 119.151 81.06C120.151 80.0067 121.244 79.48 122.431 79.48C123.418 79.48 124.184 79.8133 124.731 80.48V76.28C124.731 75.9733 124.738 75.7467 124.751 75.6C124.778 75.44 124.838 75.2667 124.931 75.08ZM121.691 85.94C122.038 86.3 122.458 86.48 122.951 86.48C123.444 86.48 123.851 86.3 124.171 85.94C124.504 85.58 124.671 85.1867 124.671 84.76C124.671 84.32 124.511 83.9133 124.191 83.54C123.884 83.1667 123.464 82.98 122.931 82.98C122.398 82.98 121.971 83.1667 121.651 83.54C121.331 83.9 121.171 84.3 121.171 84.74C121.171 85.18 121.344 85.58 121.691 85.94ZM137.284 75.08C137.391 74.88 137.571 74.74 137.824 74.66C138.078 74.58 138.411 74.54 138.824 74.54C139.251 74.54 139.591 74.58 139.844 74.66C140.098 74.74 140.271 74.88 140.364 75.08C140.471 75.28 140.531 75.46 140.544 75.62C140.571 75.7667 140.584 75.9933 140.584 76.3V88.24C140.584 88.5467 140.571 88.78 140.544 88.94C140.531 89.0867 140.471 89.2533 140.364 89.44C140.164 89.8 139.598 89.98 138.664 89.98C137.744 89.98 137.231 89.6533 137.124 89C136.564 89.64 135.784 89.96 134.784 89.96C133.584 89.96 132.491 89.44 131.504 88.4C130.518 87.3467 130.024 86.1267 130.024 84.74C130.024 83.34 130.518 82.1133 131.504 81.06C132.504 80.0067 133.598 79.48 134.784 79.48C135.771 79.48 136.538 79.8133 137.084 80.48V76.28C137.084 75.9733 137.091 75.7467 137.104 75.6C137.131 75.44 137.191 75.2667 137.284 75.08ZM134.044 85.94C134.391 86.3 134.811 86.48 135.304 86.48C135.798 86.48 136.204 86.3 136.524 85.94C136.858 85.58 137.024 85.1867 137.024 84.76C137.024 84.32 136.864 83.9133 136.544 83.54C136.238 83.1667 135.818 82.98 135.284 82.98C134.751 82.98 134.324 83.1667 134.004 83.54C133.684 83.9 133.524 84.3 133.524 84.74C133.524 85.18 133.698 85.58 134.044 85.94ZM152.737 83.48C152.737 84.2933 152.531 84.9 152.117 85.3C151.717 85.6867 151.271 85.88 150.777 85.88H146.037C146.037 86.2533 146.257 86.5667 146.697 86.82C147.137 87.0733 147.577 87.2 148.017 87.2C148.791 87.2 149.397 87.12 149.837 86.96L150.057 86.88C150.377 86.7333 150.644 86.66 150.857 86.66C151.284 86.66 151.651 86.96 151.957 87.56C152.131 87.92 152.217 88.2267 152.217 88.48C152.217 89.6667 150.797 90.26 147.957 90.26C146.971 90.26 146.091 90.0933 145.317 89.76C144.557 89.4133 143.964 88.96 143.537 88.4C142.697 87.32 142.277 86.1133 142.277 84.78C142.277 83.1 142.817 81.76 143.897 80.76C144.991 79.7467 146.351 79.24 147.977 79.24C149.831 79.24 151.191 79.8933 152.057 81.2C152.511 81.8933 152.737 82.6533 152.737 83.48ZM148.517 84.06C149.024 84.06 149.277 83.8467 149.277 83.42C149.277 83.1133 149.157 82.8667 148.917 82.68C148.691 82.4933 148.357 82.4 147.917 82.4C147.491 82.4 147.064 82.58 146.637 82.94C146.211 83.2867 145.997 83.66 145.997 84.06H148.517ZM161.502 75.08C161.609 74.88 161.789 74.74 162.042 74.66C162.296 74.58 162.629 74.54 163.042 74.54C163.469 74.54 163.809 74.58 164.062 74.66C164.316 74.74 164.489 74.88 164.582 75.08C164.689 75.28 164.749 75.46 164.762 75.62C164.789 75.7667 164.802 75.9933 164.802 76.3V88.24C164.802 88.5467 164.789 88.78 164.762 88.94C164.749 89.0867 164.689 89.2533 164.582 89.44C164.382 89.8 163.816 89.98 162.882 89.98C161.962 89.98 161.449 89.6533 161.342 89C160.782 89.64 160.002 89.96 159.002 89.96C157.802 89.96 156.709 89.44 155.722 88.4C154.736 87.3467 154.242 86.1267 154.242 84.74C154.242 83.34 154.736 82.1133 155.722 81.06C156.722 80.0067 157.816 79.48 159.002 79.48C159.989 79.48 160.756 79.8133 161.302 80.48V76.28C161.302 75.9733 161.309 75.7467 161.322 75.6C161.349 75.44 161.409 75.2667 161.502 75.08ZM158.262 85.94C158.609 86.3 159.029 86.48 159.522 86.48C160.016 86.48 160.422 86.3 160.742 85.94C161.076 85.58 161.242 85.1867 161.242 84.76C161.242 84.32 161.082 83.9133 160.762 83.54C160.456 83.1667 160.036 82.98 159.502 82.98C158.969 82.98 158.542 83.1667 158.222 83.54C157.902 83.9 157.742 84.3 157.742 84.74C157.742 85.18 157.916 85.58 158.262 85.94Z" fill="#6B6B6B"/>
</g>
<defs>
<filter id="filter0_di" x="0" y="0" width="220" height="338" filterUnits="userSpaceOnUse" color-interpolation-filters="sRGB">
<feFlood flood-opacity="0" result="BackgroundImageFix"/>
<feColorMatrix in="SourceAlpha" type="matrix" values="0 0 0 0 0 0 0 0 0 0 0 0 0 0 0 0 0 0 127 0"/>
<feMorphology radius="3" operator="dilate" in="SourceAlpha" result="effect1_dropShadow"/>
<feOffset/>
<feGaussianBlur stdDeviation="5"/>
<feColorMatrix type="matrix" values="0 0 0 0 0 0 0 0 0 0 0 0 0 0 0 0 0 0 0.25 0"/>
<feBlend mode="normal" in2="BackgroundImageFix" result="effect1_dropShadow"/>
<feBlend mode="normal" in="SourceGraphic" in2="effect1_dropShadow" result="shape"/>
<feColorMatrix in="SourceAlpha" type="matrix" values="0 0 0 0 0 0 0 0 0 0 0 0 0 0 0 0 0 0 127 0" result="hardAlpha"/>
<feOffset dx="2" dy="-2"/>
<feGaussianBlur stdDeviation="1.5"/>
<feComposite in2="hardAlpha" operator="arithmetic" k2="-1" k3="1"/>
<feColorMatrix type="matrix" values="0 0 0 0 0 0 0 0 0 0 0 0 0 0 0 0 0 0 0.25 0"/>
<feBlend mode="normal" in2="shape" result="effect2_innerShadow"/>
</filter>
<filter id="filter1_i" x="27" y="27" width="32" height="32" filterUnits="userSpaceOnUse" color-interpolation-filters="sRGB">
<feFlood flood-opacity="0" result="BackgroundImageFix"/>
<feBlend mode="normal" in="SourceGraphic" in2="BackgroundImageFix" result="shape"/>
<feColorMatrix in="SourceAlpha" type="matrix" values="0 0 0 0 0 0 0 0 0 0 0 0 0 0 0 0 0 0 127 0" result="hardAlpha"/>
<feOffset dy="-2"/>
<feComposite in2="hardAlpha" operator="arithmetic" k2="-1" k3="1"/>
<feColorMatrix type="matrix" values="0 0 0 0 0 0 0 0 0 0 0 0 0 0 0 0 0 0 0.25 0"/>
<feBlend mode="normal" in2="shape" result="effect1_innerShadow"/>
</filter>
<filter id="filter2_i" x="63.2051" y="74.54" width="101.598" height="16.72" filterUnits="userSpaceOnUse" color-interpolation-filters="sRGB">
<feFlood flood-opacity="0" result="BackgroundImageFix"/>
<feBlend mode="normal" in="SourceGraphic" in2="BackgroundImageFix" result="shape"/>
<feColorMatrix in="SourceAlpha" type="matrix" values="0 0 0 0 0 0 0 0 0 0 0 0 0 0 0 0 0 0 127 0" result="hardAlpha"/>
<feOffset dy="1"/>
<feGaussianBlur stdDeviation="1"/>
<feComposite in2="hardAlpha" operator="arithmetic" k2="-1" k3="1"/>
<feColorMatrix type="matrix" values="0 0 0 0 1 0 0 0 0 1 0 0 0 0 1 0 0 0 0.25 0"/>
<feBlend mode="normal" in2="shape" result="effect1_innerShadow"/>
</filter>
<linearGradient id="paint0_linear" x1="110" y1="161" x2="110" y2="325" gradientUnits="userSpaceOnUse">
<stop stop-color="#C0267D"/>
<stop offset="1" stop-color="#5E2A9C"/>
</linearGradient>
<linearGradient id="paint1_linear" x1="43" y1="27" x2="43" y2="59" gradientUnits="userSpaceOnUse">
<stop stop-color="#9F237F"/>
<stop offset="0.919792" stop-color="#711E74"/>
</linearGradient>
</defs>
</svg>
