<svg id="Layer_1" enable-background="new 0 0 512 512" height="512" viewBox="0 0 512 512" width="512" xmlns="http://www.w3.org/2000/svg"><g clip-rule="evenodd" fill-rule="evenodd"><path d="m256.014 0c87.195 0 157.864 70.697 157.864 157.892 0 59.074-32.458 110.581-80.506 137.652-3.741 2.098-5.952 5.187-5.952 9.553v68.571h-142.84v-68.571c0-4.592-1.984-7.342-5.868-9.524-48.104-27.071-80.59-78.578-80.59-137.68 0-87.196 70.697-157.893 157.892-157.893z" fill="#ffe07d"/><path d="m256.014 0c87.195 0 157.864 70.697 157.864 157.892 0 59.074-32.458 110.581-80.506 137.652-3.741 2.098-5.952 5.187-5.952 9.553v68.571h-29.991v-68.571c0-4.366 2.183-7.455 5.925-9.553 48.076-27.071 80.533-78.578 80.533-137.652 0-82.149-62.731-149.615-142.868-157.183 4.932-.454 9.921-.709 14.995-.709z" fill="#ffd064"/><path d="m324.642 416.84v26.532c0 10.602-8.674 19.276-19.275 19.276l-50.968 3.997-47.736-3.997c-10.63 0-19.304-8.674-19.304-19.276v-26.532l68.287-6.265z" fill="#75cef9"/><path d="m324.642 416.84v26.532c0 10.602-8.674 19.276-19.275 19.276h-30.02c10.63 0 19.304-8.674 19.304-19.276v-26.532z" fill="#6bbef6"/><path d="m214.23 170.109h83.566v203.558h-83.566z" fill="#fc7070"/><path d="m184.58 368.679h142.84c13.294 0 24.18 10.856 24.18 24.151s-10.886 24.152-24.18 24.152h-142.84c-13.294 0-24.151-10.856-24.151-24.152 0-13.295 10.857-24.151 24.151-24.151zm120.786 93.969c0 27.27-22.111 49.352-49.353 49.352-27.269 0-49.352-22.082-49.352-49.352z" fill="#365e7d"/><path d="m297.429 368.679h29.991c13.294 0 24.18 10.856 24.18 24.151s-10.886 24.152-24.18 24.152h-29.991c13.295 0 24.151-10.856 24.151-24.152 0-13.295-10.856-24.151-24.151-24.151zm7.937 93.969c0 27.27-22.111 49.352-49.353 49.352-5.244 0-10.261-.794-14.995-2.325 19.899-6.35 34.328-25.002 34.328-47.027z" fill="#2b4d66"/><path d="m242.152 170.109h27.724v198.399h-27.724z" fill="#d15a63"/><path d="m259.246 75.573 17.659 43.285 20.892 51.251h-41.783-41.784l20.893-51.251 17.66-43.285z" fill="#fff9df"/><path d="m276.905 118.858-17.659-43.286c-1.588-3.912-4.791-4.11-6.463 0l-17.66 43.286z" fill="#fc7070"/></g></svg>