<?xml version="1.0" encoding="iso-8859-1"?>
<!-- Generator: Adobe Illustrator 19.0.0, SVG Export Plug-In . SVG Version: 6.00 Build 0)  -->
<svg version="1.1" id="Capa_1" xmlns="http://www.w3.org/2000/svg" xmlns:xlink="http://www.w3.org/1999/xlink" x="0px" y="0px"
	 viewBox="0 0 504.064 504.064" style="enable-background:new 0 0 504.064 504.064;" xml:space="preserve">
<g>
	<path style="fill:#35495E;" d="M152.363,382.976l-2.731,1.621l-56.32,33.792c-17.992,10.787-29.006,30.222-29.013,51.2v34.475
		h375.467v-34.475c-0.008-20.978-11.021-40.413-29.013-51.2l-56.32-33.792l-2.731-1.621H152.363z"/>
	<g>
		<path style="fill:#BDC3C7;" d="M252.032,384.597l-34.133,34.133l-65.536-35.755l35.755-21.504c1.282-0.728,2.344-1.79,3.072-3.072
			l1.109,0.597L252.032,384.597z"/>
		<path style="fill:#BDC3C7;" d="M351.701,382.976l-65.536,35.755l-34.133-34.133l59.733-25.6l1.109-0.597
			c0.728,1.282,1.79,2.344,3.072,3.072L351.701,382.976z"/>
	</g>
	<polygon style="fill:#CC4B4C;" points="286.165,504.064 217.899,504.064 243.499,435.797 260.565,435.797 	"/>
	<polygon style="fill:#ECF0F1;" points="243.499,435.797 217.899,504.064 149.632,384.597 152.363,382.976 217.899,418.731 
		225.237,411.392 	"/>
	<polygon style="fill:#802F34;" points="278.827,411.392 260.565,435.797 243.499,435.797 225.237,411.392 252.032,384.597 	"/>
	<polygon style="fill:#ECF0F1;" points="354.432,384.597 286.165,504.064 260.565,435.797 278.827,411.392 286.165,418.731 
		351.701,382.976 	"/>
	<path style="fill:#F0C419;" d="M380.032,204.8c0.017,39.352-18.08,76.522-49.067,100.779c-11.945,8.993-19.038,23.022-19.2,37.973
		v9.984c-0.034,1.64,0.443,3.251,1.365,4.608l-0.256,0.256l-1.109,0.597l-59.733,25.6l-59.733-25.6l-1.109-0.597l-0.256-0.256
		c0.922-1.357,1.399-2.968,1.365-4.608v-8.96c-0.213-15.504-7.506-30.058-19.797-39.509
		c-46.806-37.137-61.688-101.72-35.854-155.595s85.509-82.707,143.772-69.462S380.028,145.051,380.032,204.8z"/>
	<path style="fill:#F9EAB0;" d="M345.899,213.333c-4.713,0-8.533-3.821-8.533-8.533c-0.052-47.107-38.227-85.281-85.333-85.333
		c-4.713,0-8.533-3.821-8.533-8.533c0-4.713,3.821-8.533,8.533-8.533c56.527,0.065,102.335,45.873,102.4,102.4
		c0,2.263-0.899,4.434-2.499,6.034C350.332,212.434,348.162,213.333,345.899,213.333z"/>
	<g>
		<path style="fill:#F0C419;" d="M252.032,0c-4.713,0-8.533,3.821-8.533,8.533v34.133c0,4.713,3.821,8.533,8.533,8.533
			s8.533-3.821,8.533-8.533V8.533C260.565,3.821,256.745,0,252.032,0z"/>
		<path style="fill:#F0C419;" d="M161.29,30.562c-2.358-4.08-7.575-5.477-11.656-3.121s-5.481,7.573-3.127,11.655l17.067,29.558
			c1.523,2.642,4.341,4.271,7.392,4.272c3.05,0.001,5.869-1.626,7.394-4.268c1.525-2.642,1.524-5.896-0.002-8.537L161.29,30.562z"/>
		<path style="fill:#F0C419;" d="M115.886,116.342L86.328,99.275c-4.082-2.353-9.299-0.954-11.655,3.127
			c-2.356,4.081-0.958,9.299,3.121,11.656l29.558,17.067c4.082,2.353,9.299,0.954,11.655-3.127
			C121.363,123.917,119.966,118.699,115.886,116.342z"/>
		<path style="fill:#F0C419;" d="M98.432,204.8c0-4.713-3.821-8.533-8.533-8.533H55.765c-4.713,0-8.533,3.821-8.533,8.533
			c0,4.713,3.821,8.533,8.533,8.533h34.133C94.612,213.333,98.432,209.513,98.432,204.8z"/>
		<path style="fill:#F0C419;" d="M107.353,278.475l-29.558,17.067c-4.08,2.358-5.477,7.575-3.121,11.656
			c2.356,4.081,7.573,5.481,11.655,3.127l29.558-17.067c4.08-2.358,5.477-7.575,3.121-11.656
			C116.652,277.521,111.435,276.122,107.353,278.475z"/>
		<path style="fill:#F0C419;" d="M426.27,295.542l-29.558-17.067c-4.082-2.353-9.299-0.954-11.655,3.127
			c-2.356,4.081-0.958,9.298,3.121,11.656l29.558,17.067c4.082,2.353,9.299,0.954,11.655-3.127
			C431.746,303.117,430.349,297.899,426.27,295.542z"/>
		<path style="fill:#F0C419;" d="M448.299,196.267h-34.133c-4.713,0-8.533,3.821-8.533,8.533c0,4.713,3.82,8.533,8.533,8.533h34.133
			c4.713,0,8.533-3.821,8.533-8.533C456.832,200.087,453.012,196.267,448.299,196.267z"/>
		<path style="fill:#F0C419;" d="M392.453,132.267c1.495,0.001,2.964-0.393,4.258-1.142l29.558-17.067
			c2.642-1.524,4.271-4.341,4.272-7.392c0.001-3.05-1.626-5.869-4.268-7.394c-2.642-1.525-5.896-1.524-8.537,0.002l-29.558,17.067
			c-3.348,1.931-4.98,5.871-3.978,9.604C385.202,129.679,388.588,132.272,392.453,132.267z"/>
		<path style="fill:#F0C419;" d="M354.432,27.437c-1.96-1.132-4.29-1.439-6.477-0.853c-2.187,0.586-4.051,2.017-5.182,3.978
			l-17.067,29.558c-2.353,4.082-0.954,9.299,3.127,11.655s9.298,0.958,11.656-3.121l17.067-29.558
			C359.912,35.013,358.513,29.795,354.432,27.437z"/>
	</g>
</g>
<g>
</g>
<g>
</g>
<g>
</g>
<g>
</g>
<g>
</g>
<g>
</g>
<g>
</g>
<g>
</g>
<g>
</g>
<g>
</g>
<g>
</g>
<g>
</g>
<g>
</g>
<g>
</g>
<g>
</g>
</svg>
