<svg height="512" viewBox="0 0 64 64" width="512" xmlns="http://www.w3.org/2000/svg"><path d="m42 52.96v8.04h-20v-8.04a17.967 17.967 0 0 0 20 0z" fill="#ffb655"/><path d="m54 35a4 4 0 0 1 -4 4h-.03c.02-.33.03-.67.03-1v-7a4 4 0 0 1 4 4z" fill="#ffb655"/><path d="m14 31v7c0 .33.01.67.03 1h-.03a4 4 0 0 1 0-8z" fill="#ffb655"/><path d="m14 31v-3c0 2.21 8.06 4 18 4s18-1.79 18-4v10c0 .33-.01.67-.03 1a17.99 17.99 0 0 1 -27.97 13.96 17.722 17.722 0 0 1 -2.73-2.23 17.987 17.987 0 0 1 -5.24-11.73c-.02-.33-.03-.67-.03-1z" fill="#ffc477"/><path d="m42 52.96v2a17.967 17.967 0 0 1 -20 0v-2a17.967 17.967 0 0 0 20 0z" fill="#ffa733"/><path d="m40 24.42a72.619 72.619 0 0 0 -8-.42 72.619 72.619 0 0 0 -8 .42c-5.93.65-10 2.01-10 3.58 0 2.21 8.06 4 18 4s18-1.79 18-4c0-1.57-4.07-2.93-10-3.58z" fill="#ffb655"/><path d="m40 24v3h-16v-3a6 6 0 0 1 6-6l2 2 2-2a6 6 0 0 1 6 6z" fill="#3d9ae2"/><path d="m34 15.46v2.54l-2 2-2-2v-2.54a3.974 3.974 0 0 0 4 0z" fill="#ffb655"/><path d="m37 8v2h-1.17a2.006 2.006 0 0 1 -1.42-.59l-1.41-1.41-.83.83a4 4 0 0 1 -2.83 1.17h-2.34v-2a5 5 0 0 1 10 0z" fill="#787680"/><path d="m36 10v2a3.994 3.994 0 0 1 -6 3.46 4.225 4.225 0 0 1 -.83-.63 4.025 4.025 0 0 1 -1.17-2.83v-2h1.34a4 4 0 0 0 2.83-1.17l.83-.83 1.41 1.41a2.006 2.006 0 0 0 1.42.59z" fill="#ffc477"/><path d="m34 15.46v1a3.974 3.974 0 0 1 -4 0v-1a3.974 3.974 0 0 0 4 0z" fill="#ffa733"/><path d="m32 46a3 3 0 0 1 -3-3v-6h2v6a1 1 0 0 0 2 0v-6h2v6a3 3 0 0 1 -3 3z" fill="#ffa733"/><path d="m44 38h-2a1 1 0 0 0 -2 0h-2a3 3 0 0 1 6 0z" fill="#ee8700"/><path d="m26 38h-2a1 1 0 0 0 -2 0h-2a3 3 0 0 1 6 0z" fill="#ee8700"/><g fill="#ff9811"><path d="m32 51c-3.925 0-7-2.2-7-5h2c0 1.626 2.29 3 5 3s5-1.374 5-3h2c0 2.8-3.075 5-7 5z"/><path d="m42.707 9.707-1.414-1.414 4-4a1 1 0 0 1 .707-.293h8v2h-7.586z"/><path d="m42 14h12v2h-12z"/><path d="m21.293 9.707-3.707-3.707h-7.586v-2h8a1 1 0 0 1 .707.293l4 4z"/></g><circle cx="59" cy="5" fill="#ff5023" r="3"/><circle cx="5" cy="5" fill="#ff5023" r="3"/><circle cx="59" cy="15" fill="#00ccb3" r="3"/><circle cx="5" cy="15" fill="#00ccb3" r="3"/><path d="m10 14h12v2h-12z" fill="#ff9811"/></svg>